<svg width="291" height="210" viewBox="0 0 291 210" fill="none" xmlns="http://www.w3.org/2000/svg">
<g clip-path="url(#clip0_1424_1864)">
<path opacity="0.1" d="M169.077 39.4572C150.421 38.7615 132.639 32.2986 115.685 25.2292C98.7306 18.1598 81.9264 10.3256 63.7075 6.57959C51.9938 4.16753 38.5976 3.82829 29.1612 10.5671C20.0786 17.05 17.1448 28.2421 15.5667 38.6263C14.3798 46.4404 13.6913 54.6626 16.9358 61.9793C19.1944 67.0564 23.2026 71.3257 25.9756 76.19C35.6209 93.1147 28.8022 113.987 18.3478 130.526C13.4448 138.288 7.75671 145.674 3.97361 153.928C0.190509 162.182 -1.56172 171.637 1.74983 180.055C5.03192 188.392 12.85 194.666 21.3218 199.073C38.5279 208.017 58.8018 210.575 78.572 212.042C122.335 215.253 166.333 213.861 210.212 212.47C226.45 211.952 242.762 211.432 258.735 208.732C267.606 207.235 276.767 204.86 283.208 199.127C291.382 191.848 293.41 179.526 287.931 170.398C278.741 155.092 253.334 151.289 246.909 134.861C243.375 125.82 247.006 115.746 252.144 107.36C263.164 89.3715 281.64 73.5882 282.613 53.0239C283.283 38.8994 274.401 24.7577 260.667 18.0735C246.274 11.0616 226.314 11.9471 215.696 23.5359C204.762 35.4754 185.546 40.0695 169.077 39.4572Z" fill="#3B548E"/>
<path d="M64.9043 194.537C64.9043 194.537 50.1685 183.381 47.3848 169.19C46.2559 163.23 43.2279 157.796 38.755 153.705C36.6152 151.781 34.3041 150.057 31.8506 148.554" stroke="#535461" stroke-width="2" stroke-miterlimit="10"/>
<path d="M30.0477 139.614C31.3391 141.363 31.9232 148.776 31.9232 148.776C31.9232 148.776 25.0188 146.053 23.7247 144.306C23.1033 143.467 22.8405 142.414 22.994 141.38C23.1475 140.347 23.7048 139.416 24.5433 138.794C25.3817 138.172 26.4327 137.908 27.465 138.062C28.4973 138.216 29.4263 138.774 30.0477 139.614Z" fill="#79B154"/>
<path d="M42.4311 145.431C42.565 147.601 39.0365 154.143 39.0365 154.143C39.0365 154.143 34.7149 148.095 34.5782 145.924C34.5262 144.89 34.8835 143.876 35.5727 143.103C36.2618 142.33 37.2273 141.86 38.2599 141.795C39.2925 141.73 40.309 142.076 41.0893 142.756C41.8696 143.436 42.3507 144.397 42.4284 145.431H42.4311Z" fill="#79B154"/>
<path d="M54.4345 162.152C53.4592 164.094 47.1121 167.958 47.1121 167.958C47.1121 167.958 46.4343 160.553 47.4095 158.61C47.8896 157.697 48.7086 157.008 49.6903 156.693C50.672 156.379 51.7379 156.462 52.6586 156.926C53.5794 157.391 54.2813 158.198 54.6134 159.176C54.9456 160.153 54.8813 161.222 54.4345 162.152Z" fill="#79B154"/>
<path d="M60.6745 176.845C60.0395 178.924 54.4372 183.805 54.4372 183.805C54.4372 183.805 52.5162 176.622 53.1512 174.54C53.4564 173.541 54.1454 172.704 55.0666 172.214C55.9879 171.723 57.0659 171.62 58.0635 171.925C59.0612 172.231 59.8967 172.921 60.3864 173.843C60.876 174.766 60.9797 175.846 60.6745 176.845Z" fill="#D7B400"/>
<path d="M32.6488 159.402C34.7922 159.691 41.568 156.627 41.568 156.627C41.568 156.627 35.8505 151.884 33.6964 151.594C32.6625 151.455 31.6158 151.733 30.7865 152.366C29.9572 153 29.4132 153.938 29.2743 154.973C29.1354 156.009 29.4129 157.057 30.0457 157.887C30.6786 158.718 31.6149 159.263 32.6488 159.402Z" fill="#79B154"/>
<path d="M40.1644 176.496C42.3077 176.128 47.8457 171.178 47.8457 171.178C47.8457 171.178 40.9708 168.366 38.8301 168.734C38.3176 168.818 37.8267 169.003 37.386 169.278C36.9452 169.553 36.5632 169.913 36.262 170.336C35.9608 170.76 35.7465 171.239 35.6312 171.747C35.516 172.254 35.5022 172.779 35.5907 173.291C35.6791 173.804 35.8681 174.294 36.1466 174.733C36.4251 175.172 36.7877 175.551 37.2134 175.849C37.6391 176.147 38.1196 176.358 38.627 176.469C39.1344 176.58 39.6587 176.589 40.1697 176.496H40.1644Z" fill="#79B154"/>
<path d="M49.7424 192.109C51.9153 192.109 58.2115 188.167 58.2115 188.167C58.2115 188.167 51.9126 184.231 49.7398 184.231C48.6966 184.231 47.6962 184.646 46.9586 185.385C46.221 186.124 45.8066 187.125 45.8066 188.17C45.8066 189.215 46.221 190.217 46.9586 190.955C47.6962 191.694 48.6966 192.109 49.7398 192.109H49.7424Z" fill="#D0741F"/>
<path d="M208.057 98.044C208.057 98.044 217.139 81.9318 230.83 77.29C236.579 75.378 241.554 71.6508 245.009 66.6676C246.629 64.2851 248.027 61.7586 249.186 59.1199" stroke="#535461" stroke-width="2" stroke-miterlimit="10"/>
<path d="M257.78 56.1685C256.221 57.6818 248.963 59.2487 248.963 59.2487C248.963 59.2487 250.745 52.0311 252.304 50.5152C253.057 49.8095 254.056 49.428 255.087 49.4528C256.117 49.4776 257.097 49.9068 257.815 50.6479C258.533 51.389 258.932 52.3828 258.925 53.4153C258.919 54.4479 258.507 55.4365 257.78 56.1685Z" fill="#79B154"/>
<path d="M253.675 69.2165C251.532 69.6404 244.601 67.0056 244.601 67.0056C244.601 67.0056 250.013 61.9077 252.143 61.4918C252.654 61.3781 253.183 61.3679 253.698 61.4618C254.214 61.5557 254.705 61.7517 255.144 62.0384C255.583 62.3251 255.96 62.6967 256.253 63.1313C256.547 63.566 256.75 64.0549 256.852 64.5695C256.955 65.0841 256.953 65.6139 256.848 66.1279C256.743 66.6418 256.536 67.1295 256.24 67.5624C255.944 67.9953 255.565 68.3646 255.124 68.6486C254.684 68.9327 254.191 69.1258 253.675 69.2165Z" fill="#79B154"/>
<path d="M238.736 83.3512C236.684 82.6402 232.02 76.8554 232.02 76.8554C232.02 76.8554 239.253 75.1972 241.311 75.9082C241.806 76.0725 242.262 76.3334 242.655 76.6759C243.048 77.0184 243.369 77.4356 243.6 77.9034C243.83 78.3711 243.966 78.8801 243.998 79.4007C244.031 79.9213 243.96 80.4432 243.789 80.9361C243.619 81.429 243.352 81.883 243.005 82.2719C242.658 82.6608 242.237 82.9767 241.767 83.2014C241.297 83.4261 240.787 83.555 240.267 83.5808C239.746 83.6065 239.226 83.5284 238.736 83.3512Z" fill="#79B154"/>
<path d="M225.007 91.4972C222.864 91.143 217.302 86.2195 217.302 86.2195C217.302 86.2195 224.158 83.3593 226.299 83.7134C227.329 83.8832 228.25 84.4558 228.859 85.3055C229.467 86.1551 229.714 87.2121 229.545 88.2439C229.375 89.2757 228.803 90.1979 227.955 90.8075C227.106 91.4171 226.051 91.6642 225.021 91.4945L225.007 91.4972Z" fill="#6C63FF"/>
<path d="M238.549 61.363C238.546 63.539 242.487 69.8524 242.487 69.8524C242.487 69.8524 246.423 63.5471 246.423 61.3738C246.437 60.848 246.345 60.3249 246.154 59.8352C245.962 59.3455 245.675 58.8991 245.309 58.5224C244.942 58.1457 244.504 57.8463 244.02 57.6419C243.536 57.4375 243.016 57.3322 242.491 57.3322C241.966 57.3322 241.446 57.4375 240.963 57.6419C240.479 57.8463 240.041 58.1457 239.674 58.5224C239.308 58.8991 239.02 59.3455 238.829 59.8352C238.637 60.3249 238.546 60.848 238.56 61.3738L238.549 61.363Z" fill="#79B154"/>
<path d="M222.626 71.092C223.274 73.1688 228.912 78.0118 228.912 78.0118C228.912 78.0118 230.787 70.8157 230.133 68.7389C229.794 67.7768 229.096 66.9839 228.185 66.5272C227.274 66.0706 226.221 65.9858 225.249 66.2908C224.276 66.5958 223.46 67.2666 222.972 68.1622C222.484 69.0578 222.362 70.1081 222.631 71.092H222.626Z" fill="#6C63FF"/>
<path d="M208.461 82.6751C208.75 84.8216 213.487 90.5554 213.487 90.5554C213.487 90.5554 216.544 83.7805 216.255 81.626C216.197 81.104 216.036 80.5987 215.781 80.1399C215.526 79.6812 215.181 79.2781 214.768 78.9546C214.355 78.631 213.882 78.3935 213.376 78.2559C212.87 78.1183 212.341 78.0835 211.821 78.1534C211.302 78.2234 210.801 78.3967 210.349 78.6633C209.897 78.9298 209.503 79.2841 209.19 79.7054C208.877 80.1267 208.651 80.6065 208.526 81.1165C208.401 81.6265 208.379 82.1564 208.461 82.6751Z" fill="#6C63FF"/>
<path opacity="0.25" d="M257.78 56.1685C256.221 57.6818 248.963 59.2487 248.963 59.2487C248.963 59.2487 250.745 52.0311 252.304 50.5152C253.057 49.8095 254.056 49.428 255.087 49.4528C256.117 49.4776 257.097 49.9068 257.815 50.6479C258.533 51.389 258.932 52.3828 258.925 53.4153C258.919 54.4479 258.507 55.4365 257.78 56.1685Z" fill="black"/>
<path opacity="0.25" d="M253.676 69.2165C251.533 69.6404 244.602 67.0056 244.602 67.0056C244.602 67.0056 250.014 61.9077 252.144 61.4918C252.655 61.3781 253.184 61.3679 253.699 61.4618C254.215 61.5557 254.706 61.7517 255.145 62.0384C255.584 62.3251 255.961 62.6967 256.254 63.1313C256.548 63.566 256.751 64.0549 256.853 64.5695C256.956 65.0841 256.954 65.6139 256.849 66.1279C256.744 66.6418 256.537 67.1295 256.241 67.5624C255.945 67.9953 255.566 68.3646 255.125 68.6486C254.685 68.9327 254.192 69.1258 253.676 69.2165Z" fill="black"/>
<path opacity="0.25" d="M238.736 83.3512C236.684 82.6402 232.02 76.8554 232.02 76.8554C232.02 76.8554 239.253 75.1972 241.311 75.9082C241.806 76.0725 242.262 76.3334 242.655 76.6759C243.048 77.0184 243.369 77.4356 243.6 77.9034C243.83 78.3711 243.966 78.8801 243.998 79.4007C244.031 79.9213 243.96 80.4432 243.789 80.9361C243.619 81.429 243.352 81.883 243.005 82.2719C242.658 82.6608 242.237 82.9767 241.767 83.2014C241.297 83.4261 240.787 83.555 240.267 83.5808C239.746 83.6065 239.226 83.5284 238.736 83.3512Z" fill="black"/>
<path opacity="0.25" d="M225.007 91.4972C222.864 91.143 217.302 86.2195 217.302 86.2195C217.302 86.2195 224.158 83.3593 226.299 83.7134C227.329 83.8832 228.25 84.4558 228.859 85.3055C229.467 86.1551 229.714 87.2121 229.545 88.2439C229.375 89.2757 228.803 90.1979 227.955 90.8075C227.106 91.4171 226.051 91.6642 225.021 91.4945L225.007 91.4972Z" fill="black"/>
<path opacity="0.25" d="M238.549 61.363C238.546 63.539 242.487 69.8524 242.487 69.8524C242.487 69.8524 246.423 63.5471 246.423 61.3738C246.437 60.848 246.345 60.3249 246.154 59.8352C245.962 59.3455 245.675 58.8991 245.309 58.5224C244.942 58.1457 244.504 57.8463 244.02 57.6419C243.536 57.4375 243.016 57.3322 242.491 57.3322C241.966 57.3322 241.446 57.4375 240.963 57.6419C240.479 57.8463 240.041 58.1457 239.674 58.5224C239.308 58.8991 239.02 59.3455 238.829 59.8352C238.637 60.3249 238.546 60.848 238.56 61.3738L238.549 61.363Z" fill="black"/>
<path opacity="0.25" d="M222.626 71.092C223.274 73.1688 228.912 78.0118 228.912 78.0118C228.912 78.0118 230.787 70.8157 230.133 68.7389C229.794 67.7768 229.096 66.9839 228.185 66.5272C227.274 66.0706 226.221 65.9858 225.249 66.2908C224.276 66.5958 223.46 67.2666 222.972 68.1622C222.484 69.0578 222.362 70.1081 222.631 71.092H222.626Z" fill="black"/>
<path opacity="0.25" d="M208.461 82.6751C208.75 84.8216 213.487 90.5554 213.487 90.5554C213.487 90.5554 216.544 83.7805 216.255 81.626C216.197 81.104 216.036 80.5987 215.781 80.1399C215.526 79.6812 215.181 79.2781 214.768 78.9546C214.355 78.631 213.882 78.3935 213.376 78.2559C212.87 78.1183 212.341 78.0835 211.821 78.1534C211.302 78.2234 210.801 78.3967 210.349 78.6633C209.897 78.9298 209.503 79.2841 209.19 79.7054C208.877 80.1267 208.651 80.6065 208.526 81.1165C208.401 81.6265 208.379 82.1564 208.461 82.6751Z" fill="black"/>
<path d="M208.579 97.7247C208.579 97.7247 210.363 79.3078 220.989 69.5143C225.471 65.4328 228.511 60.0065 229.654 54.0488C230.174 51.2166 230.433 48.3425 230.428 45.4628" stroke="#535461" stroke-width="2" stroke-miterlimit="10"/>
<path d="M237.088 39.2487C236.284 41.2664 230.272 45.6453 230.272 45.6453C230.272 45.6453 228.981 38.3231 229.792 36.3054C230.183 35.3365 230.942 34.5628 231.903 34.1545C232.863 33.7461 233.946 33.7366 234.914 34.128C235.881 34.5194 236.654 35.2796 237.062 36.2414C237.469 37.2033 237.479 38.2879 237.088 39.2568V39.2487Z" fill="#79B154"/>
<path d="M238.618 52.8575C236.842 54.1079 229.429 54.5184 229.429 54.5184C229.429 54.5184 232.317 47.6657 234.093 46.4154C234.515 46.0996 234.995 45.8717 235.506 45.7452C236.016 45.6187 236.547 45.5961 237.067 45.6787C237.587 45.7614 238.084 45.9477 238.531 46.2265C238.977 46.5053 239.364 46.871 239.666 47.3019C239.969 47.7329 240.183 48.2203 240.294 48.7353C240.405 49.2503 240.412 49.7825 240.315 50.3003C240.217 50.818 240.016 51.3109 239.725 51.7497C239.434 52.1885 239.057 52.5643 238.618 52.8549V52.8575Z" fill="#79B154"/>
<path d="M230.671 71.8487C228.506 72.0311 221.899 68.6289 221.899 68.6289C221.899 68.6289 227.847 64.1749 230.012 63.9925C231.052 63.905 232.083 64.2346 232.88 64.9089C233.677 65.5831 234.174 66.5468 234.261 67.5879C234.349 68.629 234.02 69.6622 233.346 70.4602C232.673 71.2583 231.711 71.7558 230.671 71.8433V71.8487Z" fill="#79B154"/>
<path d="M221.425 84.8591C219.322 85.3957 212.238 83.1768 212.238 83.1768C212.238 83.1768 217.348 77.7811 219.451 77.2337C220.461 76.9715 221.533 77.1217 222.432 77.6513C223.331 78.1809 223.983 79.0465 224.245 80.0577C224.507 81.0689 224.357 82.1428 223.828 83.0433C223.3 83.9437 222.435 84.5969 221.425 84.8591Z" fill="#6C63FF"/>
<path d="M221.613 51.8165C222.492 53.8047 228.638 57.9876 228.638 57.9876C228.638 57.9876 229.683 50.6252 228.804 48.637C228.366 47.7068 227.582 46.985 226.62 46.6258C225.658 46.2666 224.594 46.2986 223.655 46.7148C222.716 47.131 221.976 47.8985 221.595 48.8533C221.213 49.8081 221.22 50.8745 221.613 51.8245V51.8165Z" fill="#79B154"/>
<path d="M210.993 67.1693C212.426 68.8033 219.537 70.9445 219.537 70.9445C219.537 70.9445 218.337 63.6061 216.903 61.9721C216.565 61.5751 216.151 61.2495 215.686 61.014C215.221 60.7786 214.714 60.638 214.194 60.6006C213.674 60.5631 213.152 60.6295 212.658 60.7958C212.164 60.9621 211.708 61.2251 211.317 61.5695C210.925 61.9138 210.606 62.3327 210.377 62.8017C210.148 63.2707 210.015 63.7805 209.985 64.3016C209.955 64.8226 210.029 65.3444 210.202 65.8367C210.375 66.329 210.643 66.782 210.993 67.1693Z" fill="#6C63FF"/>
<path d="M202.716 83.5149C203.852 85.3662 210.499 88.6799 210.499 88.6799C210.499 88.6799 210.555 81.245 209.428 79.3909C208.866 78.5349 207.994 77.9315 206.995 77.7088C205.997 77.4861 204.951 77.6615 204.08 78.198C203.209 78.7344 202.581 79.5896 202.328 80.5822C202.076 81.5748 202.22 82.6267 202.729 83.5149H202.716Z" fill="#6C63FF"/>
<path d="M194.914 25.5997C195.359 23.9657 195.895 22.3236 196.27 20.6681C195.82 22.3236 195.281 23.971 194.914 25.5997Z" fill="url(#paint0_linear_1424_1864)"/>
<path d="M192.921 41.3389C192.883 41.2745 192.856 41.2101 192.827 41.1511C192.827 41.1242 192.8 41.1028 192.789 41.0759C192.731 41.1035 192.671 41.1277 192.61 41.1484C192.492 41.194 192.371 41.2369 192.248 41.2718C192.125 41.3067 192.074 41.3255 191.98 41.3469C191.903 41.3738 191.823 41.3944 191.742 41.4086L191.763 41.4569C191.862 41.4355 191.959 41.4167 192.058 41.3899L192.085 41.7226C192.197 41.7226 192.302 41.7065 192.404 41.7065C192.452 41.7038 192.5 41.7038 192.548 41.7065C192.757 41.7065 192.939 41.7065 193.084 41.7065C193.028 41.5857 192.969 41.4596 192.921 41.3389ZM247.309 128.039C246.05 126.34 243.537 108.111 243.537 108.111C243.537 108.111 238.594 95.1489 239.941 89.9759C241.289 84.8028 236.26 71.567 236.26 71.567C236.26 71.567 232.938 70.1208 232.758 67.9743C232.758 67.9743 219.193 63.6813 218.558 60.4615C218.044 57.8213 209.631 55.927 206.609 55.3287C205.687 51.6045 204.76 48.1299 204.077 46.2329C203.892 45.6426 203.718 45.1328 203.557 44.7304C202.403 41.7789 198.834 41.5106 196.246 41.7467C196.134 41.2437 195.925 40.7672 195.632 40.3435C195.589 40.1978 195.505 40.068 195.388 39.9705C195.333 39.9231 195.274 39.88 195.211 39.8417C195.165 39.7547 195.103 39.6767 195.029 39.611C194.956 39.5446 194.875 39.487 194.788 39.4392C194.726 39.4055 194.661 39.3759 194.595 39.3507C194.44 39.2915 194.279 39.2474 194.116 39.2192C193.925 39.1799 193.731 39.1548 193.537 39.1441C194.01 38.9369 194.431 38.6282 194.772 38.2399C195.004 37.9672 195.176 37.6492 195.278 37.3062C195.363 37.0208 195.401 36.7236 195.391 36.4261C195.321 36.5487 195.241 36.6646 195.15 36.7722C195.262 35.5836 194.635 34.3762 194.276 33.1929C193.841 31.6525 193.761 30.0333 194.041 28.4572C194.4 26.08 195.289 23.6759 195.892 21.2557C195.894 21.2423 195.894 21.2288 195.892 21.2155C196.208 20.0135 196.404 18.7831 196.476 17.5423C196.581 15.0389 195.94 12.5409 194.911 10.2603C193.998 8.23988 192.65 6.25169 190.587 5.43065C189.055 4.81085 187.337 4.91012 185.687 4.80817C181.984 4.57742 178.453 3.27342 174.932 2.08748C171.412 0.901539 167.789 -0.177077 164.084 0.0295239C160.379 0.236124 156.566 2.02577 154.876 5.30991C154.34 6.33486 154.032 7.47519 153.391 8.43843C152.191 10.2549 150.042 11.1645 148.25 12.4175C146.457 13.6705 144.879 15.4494 144.231 17.5718C143.877 18.7152 143.827 19.9314 144.086 21.1001C144.145 21.364 144.22 21.6239 144.311 21.8782C144.566 22.5871 144.962 23.2364 145.477 23.7859C145.865 24.192 146.311 24.5383 146.8 24.8135C147.415 25.1547 148.073 25.4111 148.756 25.5755C148.732 25.656 148.708 25.7419 148.681 25.8251C148.638 25.9619 148.601 26.0934 148.561 26.241C148.472 26.571 148.389 26.9064 148.319 27.2444C148.317 27.2685 148.317 27.2928 148.319 27.3169C147.99 28.843 147.825 30.4 147.826 31.9614C147.826 32.6998 147.864 33.4377 147.939 34.1723C149.011 45.0604 157.986 53.6491 169.076 54.2071C169.456 54.2259 169.839 54.2367 170.228 54.2367C170.404 54.2367 170.579 54.2367 170.763 54.2367C170.938 54.4674 171.109 54.7035 171.272 54.9343C171.436 55.165 171.586 55.4011 171.728 55.6319L171.339 55.2294L170.951 54.8726C170.846 55.0173 170.728 55.1529 170.6 55.2777C170.347 55.1885 170.088 55.115 169.826 55.0577C168.714 54.8108 167.021 54.7196 164.791 55.3931C162.742 56.0075 160.237 57.2713 157.306 59.6727L143.023 68.2587L135.296 72.9649L132.512 79.78C132.512 79.78 130.419 87.8777 128.091 97.1559C128 97.1827 127.912 97.2096 127.823 97.2418C127.635 97.2203 127.445 97.2095 127.255 97.2096C125.904 97.2064 124.605 97.7276 123.63 98.6637C122.655 99.5998 122.079 100.878 122.025 102.23C117.396 107.864 117.133 113.499 118.221 116.085C118.319 116.328 118.443 116.559 118.591 116.775C119.303 117.805 120.635 120.462 121.985 123.292C121.95 123.526 121.929 123.722 121.918 123.869C121.916 123.917 121.916 123.966 121.918 124.014C121.918 124.014 122.722 136.171 120.043 139.657C119.456 140.416 119.544 141.414 120.043 142.519C121.838 146.496 128.935 151.806 128.935 151.806C128.935 151.806 137.447 151.76 142.189 151.242C142.176 151.72 142.165 152.195 142.155 152.659C142.047 157.349 142.047 161.28 142.047 161.28L141.871 166.198C141.871 166.198 140.263 176.563 139.459 179.42C138.953 181.213 139.537 197.808 140.046 210.008H223.911C224.897 202.79 223.507 180.861 223.507 180.861C223.507 180.861 222.186 175.192 222.138 170.25C222.135 170.244 222.134 170.238 222.134 170.232C222.134 170.226 222.135 170.22 222.138 170.215C222.138 169.783 222.138 169.361 222.154 168.948L222.762 168.927L223.855 168.889H223.954C223.954 168.889 223.981 168.787 224.043 168.621C224.187 168.206 224.385 167.812 224.63 167.448C225.096 166.759 225.824 166.083 226.92 166.037C227.526 166.013 228.463 165.522 229.522 164.797C229.529 164.799 229.536 164.799 229.543 164.797C232.391 162.868 236.156 159.308 237.069 158.723C238.326 157.918 244.343 152.552 244.343 152.552C244.343 152.552 245.241 151.414 246.197 150.043L246.232 149.995C247.422 148.277 248.686 146.225 248.376 145.578C247.84 144.419 248.735 141.647 248.735 141.647C251.529 136.525 248.568 129.737 247.309 128.039ZM195.501 45.5111C195.527 45.5912 195.543 45.6741 195.549 45.758C195.482 45.6694 195.415 45.5755 195.348 45.4897L195.284 45.4038L195.238 45.3394L195.34 45.1999C195.34 45.1999 195.34 45.1999 195.34 45.2187C195.411 45.3057 195.465 45.4048 195.501 45.5111ZM194.601 43.1339C194.309 43.1929 194.078 43.2466 193.928 43.2868C193.738 42.9488 193.556 42.6107 193.392 42.2673C193.822 42.5168 194.226 42.807 194.601 43.1339ZM194.097 43.5578C194.096 43.5525 194.096 43.5471 194.097 43.5417L194.118 43.5578C194.228 43.6303 194.335 43.7 194.435 43.7725C194.523 43.8369 194.603 43.8986 194.684 43.963C194.63 44.0569 194.571 44.1535 194.512 44.2313C194.418 44.0837 194.33 43.9415 194.244 43.7939C194.191 43.7349 194.142 43.6544 194.097 43.5578ZM192.489 40.2469C193.007 40.1957 193.528 40.1957 194.046 40.2469C194.118 40.2469 194.183 40.2603 194.247 40.271C194.392 40.2935 194.535 40.3304 194.673 40.381C194.99 40.8246 195.185 41.3436 195.238 41.8862L195.094 41.9077L194.952 41.9345C194.684 41.9802 194.416 42.0258 194.207 42.0687L193.939 42.125C193.583 42.2029 193.376 42.2619 193.368 42.2646C193.333 42.1921 193.299 42.125 193.261 42.0553C193.202 41.9399 193.14 41.8219 193.087 41.7065C193.033 41.5911 192.964 41.4596 192.907 41.3389C192.87 41.2745 192.843 41.2101 192.814 41.1511C192.814 41.1242 192.787 41.1028 192.776 41.0759C192.76 41.0475 192.747 41.0179 192.736 40.9874C192.572 40.6547 192.422 40.322 192.278 39.9946C192.262 39.9624 192.248 39.9276 192.235 39.8954L192.438 39.882V39.9517L192.489 40.2469ZM128.565 206.692C128.544 202.697 128.255 198.374 127.451 194.317C127.108 192.592 126.754 190.867 126.395 189.171C126.304 188.747 126.216 188.328 126.127 187.91L125.302 188.02H125.227C122.977 177.392 120.624 168.028 120.624 168.028C120.624 168.028 115.952 150.161 116.493 148.736C116.562 148.551 116.474 148.052 116.276 147.32C115.145 143.257 110.424 132.063 108.774 128.237C108.774 128.221 108.761 128.202 108.755 128.189C108.487 127.548 108.294 127.116 108.235 126.99L108.624 121.28L108.645 120.936L108.696 120.207L108.675 120.188L108.696 119.85C108.696 119.85 104.618 116.501 97.7114 114.084C97.4434 113.987 97.1594 113.893 96.8781 113.802C97.2237 111.492 97.6819 108.884 98.2794 106.343C98.3356 106.088 98.3972 105.841 98.4615 105.592C98.5178 105.342 98.5821 105.101 98.6464 104.856C98.7482 104.459 98.8581 104.068 98.9706 103.681C99.343 103.563 99.7101 103.432 100.072 103.292L100.211 103.239C104.667 101.502 108.344 98.2078 110.56 93.9653C112.777 89.7228 113.383 84.8196 112.268 80.1637C111.631 77.5231 110.456 75.0429 108.817 72.879C108.694 72.7126 108.562 72.5463 108.431 72.3826C108.3 72.2189 108.142 72.0365 107.994 71.8701C108.769 70.1073 109.682 68.4304 109.757 66.7159C109.771 66.4987 109.771 66.281 109.757 66.0639V66.037C109.658 64.9343 109.17 63.8181 108.034 62.6456C106.376 60.9257 104.016 60.0537 101.655 59.6351C99.2948 59.2165 96.8888 59.2058 94.515 58.9241C90.5792 58.4518 86.7452 57.2364 82.8094 56.8634C77.9616 56.4139 73.0808 57.2465 68.655 59.2782C65.7266 60.6198 62.7607 62.9649 62.5839 66.1819C62.4392 68.8409 64.2879 71.3899 63.8217 74.0166C63.3582 76.5978 60.7325 78.6289 60.9629 81.2396C61.0514 82.2592 61.5738 83.1715 62.2275 83.9845C62.4526 84.2528 62.6911 84.5211 62.9375 84.7894C63.8913 85.8009 64.9416 86.7722 65.4748 88.0467C65.4962 88.1004 65.5176 88.154 65.5364 88.2077C65.9892 89.4661 65.7856 91.0572 64.6656 91.7789C64.6718 91.7837 64.6765 91.7903 64.679 91.7977C64.6951 91.8192 64.7112 91.8353 64.7246 91.8567C64.7262 91.8524 64.7262 91.8476 64.7246 91.8433C65.1217 92.3148 65.6569 92.649 66.2544 92.7985L66.4822 92.8683C66.2973 93.0695 66.1231 93.2788 65.9463 93.4988L65.8311 93.6517C65.5358 94.0493 65.2673 94.4661 65.0273 94.8994C64.8907 95.1409 64.7594 95.3823 64.6496 95.6238C64.2823 96.3599 64.0164 97.1425 63.8592 97.9501C63.5725 99.7263 63.9771 101.578 63.543 103.316C63.0072 105.463 61.3112 107.11 60.3548 109.104C58.5436 112.86 59.5697 117.269 59.9341 121.417C60.4298 127.051 59.626 132.71 58.8249 138.307C58.3998 141.283 57.9747 144.263 57.5496 147.244C56.4779 154.729 55.4062 162.213 54.3345 169.697C53.9433 172.439 53.4798 175.331 51.6553 177.448H51.674C51.674 177.448 51.674 177.464 51.6553 177.47C52.203 177.71 52.7855 177.86 53.3807 177.915C55.7625 178.154 58.2864 177 60.4298 175.739C62.1272 174.757 63.7347 173.627 65.2336 172.361C65.014 173.166 64.7782 174.043 64.5263 174.988C64.5272 174.997 64.5272 175.006 64.5263 175.015C61.5015 186.552 56.636 207.703 56.636 207.703C56.636 207.703 56.1939 208.624 55.6205 209.995H131.175C130.291 208.921 129.468 207.894 128.825 207.065L128.565 206.692ZM72.623 100.011C72.6417 99.9785 72.6551 99.949 72.6739 99.9195C72.6739 100.005 72.6739 100.089 72.6739 100.169C72.6739 100.25 72.6739 100.322 72.6739 100.397C72.6739 100.472 72.6739 100.464 72.6739 100.502C72.6739 100.539 72.6739 100.502 72.6739 100.502C72.6739 100.612 72.6498 100.722 72.631 100.832C72.631 100.832 72.631 100.845 72.631 100.856L72.8989 100.955L73.2097 101.084C75.0459 101.81 76.9053 102.468 78.7879 103.056C78.9808 103.118 79.1764 103.177 79.372 103.233L79.4122 103.566C79.4604 103.907 79.5059 104.253 79.5488 104.599C79.5488 104.599 79.5488 104.615 79.5488 104.626C79.6694 105.584 79.7873 106.539 79.8918 107.473C79.8918 107.473 74.9727 105.594 75.0343 108.446C75.0315 108.497 75.0315 108.548 75.0343 108.599C75.0288 108.667 75.0288 108.735 75.0343 108.803C75.0798 111.025 75.7738 112.342 75.9131 113.019C75.9047 113.047 75.8901 113.072 75.8702 113.094C75.7514 113.353 75.7104 113.641 75.7523 113.923C75.7477 114.403 75.7853 114.882 75.8649 115.356C75.7202 115.444 75.5782 115.533 75.4362 115.624C75.329 115.691 75.2272 115.766 75.1227 115.841C74.4654 113.558 73.6056 111.338 72.5533 109.208C71.8165 107.69 70.9886 106.107 70.9967 104.441C70.9967 104.333 70.9967 104.223 71.0101 104.113C71.0399 103.63 71.1318 103.153 71.2834 102.694C71.345 102.519 71.412 102.348 71.487 102.179C71.6621 101.777 71.8579 101.385 72.0737 101.003C72.2131 100.751 72.3604 100.502 72.5024 100.25C72.548 100.174 72.5908 100.097 72.6337 100.021L72.623 100.011ZM192.921 41.3389C192.883 41.2745 192.856 41.2101 192.827 41.1511C192.827 41.1242 192.8 41.1028 192.789 41.0759C192.731 41.1035 192.671 41.1277 192.61 41.1484C192.492 41.194 192.371 41.2369 192.248 41.2718C192.125 41.3067 192.074 41.3255 191.98 41.3469L191.742 41.4086L191.763 41.4569C191.862 41.4355 191.959 41.4167 192.058 41.3899L192.085 41.7226C192.197 41.7226 192.302 41.7065 192.404 41.7065H192.548C192.757 41.7065 192.939 41.7065 193.084 41.7065C193.028 41.5857 192.969 41.4596 192.921 41.3389Z" fill="url(#paint1_linear_1424_1864)"/>
<path d="M134.38 80.7486L132.772 81.4596C132.772 81.4596 122.294 122.227 122.294 125.522C122.294 128.817 144.513 147.151 144.513 147.151L147.98 123.716C147.98 123.716 143.002 69.9759 134.38 80.7486Z" fill="#E8F5FF"/>
<path d="M183.118 67.7811L173.834 62.93C173.314 60.7101 172.392 58.6047 171.112 56.7185C169.754 54.7545 167.948 52.8253 165.697 51.8192C160.009 49.2648 189.757 35.8573 189.757 35.8573C190.226 37.4679 190.777 39.0531 191.41 40.6064C192.943 44.395 195.485 49.2944 198.762 50.6896C204.332 53.0641 183.118 67.7811 183.118 67.7811Z" fill="#885200"/>
<path opacity="0.1" d="M191.41 40.6064C190.139 45.0832 187.496 49.047 183.854 51.938C180.212 54.8291 175.755 56.5013 171.112 56.7185C169.754 54.7545 167.948 52.8253 165.697 51.8192C160.009 49.2648 189.757 35.8573 189.757 35.8573C190.226 37.4679 190.777 39.0531 191.41 40.6064Z" fill="black"/>
<path d="M192.246 33.8369C192.247 38.2275 190.948 42.5198 188.513 46.1709C186.078 49.822 182.616 52.6679 178.566 54.3488C174.516 56.0296 170.059 56.4698 165.758 55.6137C161.458 54.7575 157.508 52.6436 154.408 49.5392C151.308 46.4347 149.196 42.4793 148.341 38.1731C147.486 33.8669 147.925 29.4033 149.603 25.347C151.28 21.2907 154.122 17.8238 157.767 15.3848C161.413 12.9458 165.699 11.6442 170.083 11.6448C172.997 11.6313 175.885 12.1961 178.58 13.3065C181.274 14.4169 183.723 16.051 185.784 18.1144C187.844 20.1778 189.476 22.6296 190.585 25.3282C191.695 28.0268 192.259 30.9187 192.246 33.8369Z" fill="#975B00"/>
<path d="M195.445 64.9316L189.401 79.0556L184.069 88.4304H167.002L162.024 75.6131L164.042 62.3209H177.076L185.492 61.846L188.335 60.8962L190.167 61.9372L195.445 64.9316Z" fill="#575A89"/>
<path opacity="0.1" d="M193.363 46.1041C193.363 46.1041 197.133 46.909 193.757 49.6807C190.381 52.4524 178.734 61.2664 178.734 61.2664C178.734 61.2664 182.826 64.9155 181.979 69.1897L195.533 61.6233L197.944 49.517C197.944 49.517 198.215 45.8787 193.363 46.1041Z" fill="black"/>
<path opacity="0.1" d="M181.4 61.2664L172.778 62.6912C172.778 62.6912 174.557 69.2782 173.668 71.1484C173.641 71.2065 173.619 71.2666 173.601 71.3281L170.083 80.8505L172.719 88.3284L181.845 75.8653L178.734 71.1484C178.734 71.1484 182.022 66.7856 183.978 65.2723C185.933 63.759 181.4 61.2664 181.4 61.2664Z" fill="black"/>
<path d="M181.4 60.8988L172.778 62.3209C172.778 62.3209 174.557 68.908 173.668 70.7781C173.641 70.8362 173.619 70.8963 173.601 70.9579L170.083 80.4803L172.719 87.9581L181.845 75.487L178.734 70.77C178.734 70.77 182.022 66.4073 183.978 64.894C185.933 63.3807 181.4 60.8988 181.4 60.8988Z" fill="#DCE6F2"/>
<path d="M193.725 45.3931C193.725 45.3931 197.494 46.198 194.116 48.9697C190.737 51.7414 178.734 61.2664 178.734 61.2664C178.734 61.2664 183.179 64.2045 182.335 68.476L195.89 60.9123L198.301 48.806C198.301 48.806 198.569 45.1677 193.725 45.3931Z" fill="#575A89"/>
<path opacity="0.1" d="M171.704 57.5583C171.704 57.5583 172.526 59.0985 176.157 61.8755C176.157 61.8755 170.112 65.0952 172.425 69.6217L163.179 67.2069L161.756 62.7556L171.704 57.5583Z" fill="black"/>
<path d="M171.348 57.2042C171.348 57.2042 172.17 58.7443 175.801 61.5213C175.801 61.5213 169.756 64.725 172.068 69.2648L162.825 66.85L161.402 62.4014L171.348 57.2042Z" fill="#575A89"/>
<path opacity="0.1" d="M195.445 64.9316L189.401 79.0555L184.08 88.4304H167.002L162.024 75.6131L164.039 62.3209H167.664C167.605 65.4226 168.736 69.0663 168.664 70.4212C168.54 72.6482 171.98 84.6633 171.98 84.6633C171.98 84.6633 179.18 73.0024 182.022 71.964C183.809 71.312 187.595 65.8868 190.164 61.9372L195.445 64.9316Z" fill="black"/>
<path d="M219.255 139.257L218.642 140.03C218.642 140.03 223.087 162.372 221.857 167.446C221.648 168.36 221.528 169.293 221.501 170.231V170.271C221.284 175.433 222.84 182.133 222.84 182.133C222.84 182.133 224.083 201.881 223.376 210.003H140.154C139.666 197.993 139.141 182.434 139.618 180.708C140.421 177.862 142.029 167.534 142.029 167.534L142.206 162.64C142.206 162.64 142.206 157.91 142.351 152.64C142.412 150.271 142.503 147.784 142.635 145.578C142.803 142.804 143.039 140.467 143.363 139.318C143.563 138.448 143.678 137.56 143.706 136.668C143.706 136.584 143.706 136.499 143.722 136.413C143.722 136.144 143.749 135.855 143.76 135.557C143.76 135.474 143.76 135.39 143.76 135.288C143.811 133.561 143.792 131.511 143.736 129.386C143.736 129.27 143.736 129.152 143.736 129.034C143.69 127.44 143.623 125.814 143.548 124.269C143.315 119.439 143.012 115.356 143.012 115.356L132.791 81.4408L135.545 74.6472L143.189 69.9571L157.322 61.4113C164.216 55.7365 168.754 56.418 170.485 57.0405C170.653 57.098 170.818 57.1651 170.978 57.2417C171.032 57.2686 171.075 57.29 171.115 57.3142C171.17 57.3403 171.223 57.3708 171.273 57.4054C170.799 57.6338 170.387 57.9734 170.073 58.3955C169.718 58.8758 169.466 59.4237 169.33 60.0054C169.24 60.3659 169.176 60.7327 169.14 61.1028C169.105 61.4918 169.092 61.8943 169.092 62.2994C169.111 63.1879 169.187 64.0743 169.32 64.953C169.32 64.9691 169.32 64.9906 169.32 65.0121C169.408 65.6399 169.518 66.2544 169.625 66.8312C169.624 66.841 169.624 66.8509 169.625 66.8607C169.748 67.5342 169.872 68.1567 169.955 68.6933C169.971 68.7899 169.984 68.8785 169.998 68.9616C170.057 69.3162 170.084 69.6754 170.081 70.0349C170.111 70.9029 170.227 71.7658 170.429 72.6107C170.499 72.9648 170.579 73.3432 170.667 73.7376C170.788 74.2742 170.919 74.8591 171.061 75.4548C171.139 75.7821 171.222 76.1202 171.308 76.4556C171.34 76.5897 171.375 76.7239 171.407 76.8607L171.46 77.0727C172.031 79.3453 172.65 81.6072 173.03 82.9756C173.256 83.7805 173.398 84.2769 173.398 84.2769C173.398 84.2769 177.432 77.7435 180.653 74.0247C180.701 73.971 180.744 73.92 180.79 73.8717C181.108 73.5042 181.422 73.1688 181.722 72.8736C182.378 72.2189 182.968 71.7521 183.442 71.5804C183.543 71.5432 183.641 71.4974 183.734 71.4435C185.052 70.6949 187.18 67.9769 189.17 65.1301C189.366 64.8618 189.556 64.5694 189.749 64.293C190.191 63.6544 190.62 63.0131 191.024 62.3987C191.335 61.9292 191.632 61.473 191.914 61.0384C193.253 58.9509 194.196 57.3947 194.196 57.3947L196.056 57.3115L196.38 57.2954H196.597L205.039 56.9037C205.039 56.9037 205.404 56.9654 206.004 57.0861C206.036 57.0861 206.068 57.0861 206.103 57.1076C209.098 57.7032 217.42 59.5895 217.929 62.2055C218.551 65.4092 231.974 69.6834 231.974 69.6834C232.151 71.8299 235.438 73.2439 235.438 73.2439C235.438 73.2439 240.416 86.418 239.084 91.5804C237.769 96.6783 242.508 109.289 242.634 109.643L241.726 110.792L219.255 139.257Z" fill="#E8F5FF"/>
<path d="M186.969 86.4834L187.089 89.8161L188.807 89.7542L188.773 88.8117L188.062 88.8373L188.009 87.3897L189.505 87.3358L189.471 86.3933L186.969 86.4834Z" fill="#6ABF4B"/>
<path d="M195.4 86.1797L193.713 86.2405L193.747 87.183L194.426 87.1586L194.478 88.6062L193.015 88.6589L193.049 89.6014L195.52 89.5124L195.4 86.1797Z" fill="#385CAD"/>
<path d="M192.929 86.2687L190.479 86.357L190.513 87.2995L191.955 87.2476L192.007 88.6952L192.041 89.6388L192.091 91.0363L190.649 91.0883L190.625 90.4232L189.617 90.4596L189.675 92.0617L193.133 91.9371L193.049 89.6014L193.015 88.6588L192.929 86.2687Z" fill="#6ABF4B"/>
<path d="M190.565 88.7471L190.512 87.2995L190.479 86.357L190.43 84.9987L191.872 84.9467L191.894 85.566L192.902 85.5297L192.846 83.9678L189.388 84.0924L189.471 86.3933L189.505 87.3358L189.591 89.7271L192.041 89.6388L192.007 88.6952L190.565 88.7471Z" fill="#385CAD"/>
<path d="M197.747 86.5649L197.355 86.579C197.298 86.4895 197.196 86.4452 197.064 86.45C196.836 86.4582 196.69 86.615 196.698 86.8512C196.707 87.1037 196.866 87.2451 197.121 87.2359C197.297 87.2296 197.416 87.1381 197.465 86.9826L197.016 86.9988L197.007 86.755L197.778 86.7273L197.789 87.0353C197.723 87.2731 197.489 87.5158 197.105 87.5296C196.67 87.5453 196.352 87.2712 196.337 86.8642C196.323 86.4571 196.617 86.1599 197.053 86.1442C197.402 86.1305 197.66 86.289 197.747 86.5649Z" fill="#385CAD"/>
<path d="M198.855 86.3604L198.319 86.3797L198.329 86.6551L198.803 86.638L198.813 86.8938L198.338 86.9109L198.349 87.2091L198.885 87.1898L198.895 87.4553L198.003 87.4875L197.954 86.127L198.846 86.0948L198.855 86.3604Z" fill="#385CAD"/>
<path d="M200.408 86.7197C200.422 87.1224 200.134 87.4107 199.67 87.4274L199.125 87.447L199.076 86.0865L199.621 86.0669C200.085 86.0502 200.393 86.3148 200.408 86.7197ZM199.636 87.1409C199.904 87.1313 200.056 86.9819 200.047 86.7327C200.038 86.4823 199.875 86.3411 199.608 86.3507L199.44 86.3568L199.469 87.1469L199.636 87.1409Z" fill="#385CAD"/>
<path d="M201.483 86.2657L200.947 86.2851L200.957 86.5604L201.431 86.5433L201.441 86.7991L200.966 86.8162L200.976 87.1144L201.513 87.0951L201.523 87.3607L200.631 87.3928L200.582 86.0323L201.474 86.0002L201.483 86.2657Z" fill="#385CAD"/>
<path d="M202.442 87.3407C202.03 87.3555 201.683 87.0792 201.669 86.6699C201.654 86.2607 201.979 85.9624 202.392 85.9475C202.806 85.9326 203.146 86.208 203.161 86.6162C203.177 87.0254 202.855 87.3258 202.442 87.3407ZM202.431 87.0381C202.663 87.0297 202.809 86.8676 202.8 86.6292C202.791 86.3865 202.634 86.2396 202.403 86.2479C202.166 86.2564 202.023 86.4152 202.032 86.6569C202.04 86.8952 202.195 87.0466 202.431 87.0381Z" fill="#385CAD"/>
<path d="M204.636 85.8862L204.685 87.2467L204.331 87.2595L203.709 86.4417L203.739 87.2808L203.385 87.2936L203.336 85.9331L203.69 85.9203L204.313 86.7425L204.282 85.899L204.636 85.8862Z" fill="#385CAD"/>
<path d="M196.446 88.1756L196.743 88.1649L197.19 89.0556L197.572 88.1351L197.866 88.1245L197.91 89.3424L197.648 89.3518L197.62 88.5595L197.299 89.3644L197.101 89.3715L196.723 88.5918L196.751 89.3841L196.489 89.3936L196.445 88.1757L196.446 88.1756Z" fill="#6ABF4B"/>
<path d="M198.888 88.2849L198.393 88.3028L198.404 88.6086L198.843 88.5928L198.85 88.7865L198.411 88.8023L198.423 89.1256L198.917 89.1078L198.925 89.307L198.168 89.3342L198.124 88.1141L198.881 88.0869L198.888 88.2849Z" fill="#6ABF4B"/>
<path d="M200.282 88.6489C200.295 89.0167 200.033 89.266 199.617 89.2809L199.162 89.2973L199.118 88.0794L199.573 88.063C199.989 88.048 200.269 88.2788 200.282 88.6489ZM199.599 89.0745C199.874 89.0646 200.023 88.9121 200.014 88.6596C200.005 88.4071 199.845 88.2603 199.57 88.2702L199.385 88.2769L199.414 89.0812L199.599 89.0745Z" fill="#6ABF4B"/>
<path d="M200.454 88.0312L200.716 88.0218L200.76 89.2397L200.498 89.2492L200.454 88.0312Z" fill="#6ABF4B"/>
<path d="M201.569 87.9758C201.859 87.9654 202.099 88.1017 202.196 88.3478L201.895 88.3586C201.83 88.2443 201.716 88.1907 201.575 88.1958C201.347 88.204 201.191 88.3654 201.199 88.6125C201.208 88.8585 201.377 89.0104 201.604 89.0023C201.744 88.9972 201.854 88.9355 201.912 88.8146L202.212 88.8038C202.134 89.0584 201.904 89.2094 201.614 89.2199C201.239 89.2334 200.944 88.9868 200.931 88.6222C200.919 88.2575 201.195 87.9893 201.569 87.9758Z" fill="#6ABF4B"/>
<path d="M203.241 88.9182L202.722 88.9369L202.644 89.1719L202.369 89.1818L202.794 87.9448L203.098 87.9338L203.611 89.137L203.335 89.147L203.241 88.9182ZM202.956 88.2223L202.786 88.7385L203.163 88.7249L202.956 88.2223Z" fill="#6ABF4B"/>
<path d="M204.003 87.9034L204.04 88.9276L204.469 88.9121L204.476 89.1059L203.786 89.1307L203.742 87.9128L204.003 87.9034Z" fill="#6ABF4B"/>
<path d="M205.64 87.8292C205.929 87.8187 206.17 87.955 206.266 88.2011L205.966 88.2119C205.9 88.0977 205.786 88.0441 205.646 88.0491C205.418 88.0573 205.262 88.2188 205.271 88.4658C205.28 88.7118 205.447 88.8638 205.675 88.8556C205.815 88.8506 205.926 88.7888 205.982 88.668L206.282 88.6572C206.204 88.9117 205.974 89.0628 205.684 89.0732C205.31 89.0867 205.014 88.8402 205.001 88.4756C204.988 88.1109 205.264 87.8427 205.64 87.8292Z" fill="#6ABF4B"/>
<path d="M207.238 87.9841L206.744 88.0019L206.755 88.3078L207.193 88.292L207.2 88.4857L206.762 88.5015L206.773 88.8248L207.268 88.807L207.275 89.0061L206.519 89.0334L206.475 87.8133L207.231 87.786L207.238 87.9841Z" fill="#6ABF4B"/>
<path d="M208.583 87.7374L208.627 88.9575L208.365 88.9669L207.743 88.1523L207.774 88.9882L207.512 88.9976L207.468 87.7775L207.73 87.7681L208.351 88.5849L208.321 87.7468L208.583 87.7374Z" fill="#6ABF4B"/>
<path d="M208.771 87.7317L209.726 87.6973L209.733 87.8943L209.386 87.9068L209.423 88.9277L209.161 88.9371L209.124 87.9162L208.778 87.9287L208.771 87.7317Z" fill="#6ABF4B"/>
<path d="M210.679 87.8602L210.184 87.878L210.195 88.1838L210.634 88.168L210.641 88.3618L210.202 88.3776L210.214 88.7008L210.708 88.683L210.716 88.8822L209.959 88.9094L209.915 87.6893L210.672 87.6621L210.679 87.8602Z" fill="#6ABF4B"/>
<path d="M211.397 87.637C211.71 87.6258 211.874 87.7888 211.881 87.9934C211.886 88.1414 211.804 88.2948 211.597 88.3546L211.926 88.8375L211.624 88.8484L211.319 88.3842L211.196 88.3886L211.213 88.8632L210.951 88.8726L210.907 87.6547L211.397 87.637ZM211.395 87.8398L211.176 87.8477L211.189 88.2058L211.408 88.1979C211.554 88.1927 211.616 88.1185 211.612 88.0086C211.61 87.9008 211.541 87.8346 211.395 87.8398Z" fill="#6ABF4B"/>
<path opacity="0.1" d="M193.36 45.1677C193.36 45.1677 201.578 42.8334 203.445 47.6389C205.312 52.4443 209.489 71.8514 209.489 71.8514C209.489 71.8514 198.644 73.8986 195.801 71.8514C194.134 70.6363 192.07 70.0959 190.022 70.3381L183.889 74.5211L182.078 73.9844C182.078 73.9844 191.889 59.3775 194.022 54.4137C196.155 49.45 196.876 47.231 193.36 45.1677Z" fill="black"/>
<path d="M193.004 44.0945C193.004 44.0945 201.227 41.7601 203.102 46.5656C204.977 51.3711 209.146 70.7781 209.146 70.7781C209.146 70.7781 198.303 72.8253 195.458 70.7781C193.792 69.563 191.729 69.0226 189.682 69.2648L183.544 73.4478L181.732 72.9112C181.732 72.9112 191.544 58.3043 193.676 53.3405C195.809 48.3767 196.519 46.1631 193.004 44.0945Z" fill="#E8F5FF"/>
<path opacity="0.1" d="M137.847 121.516C137.847 121.516 143.98 123.029 145.137 126.501C146.295 129.973 140.604 130.062 140.604 130.062C140.604 130.062 137.137 123.92 137.847 121.516Z" fill="black"/>
<path opacity="0.1" d="M160.69 147.151C160.69 147.151 145.67 177.95 149.137 180.888C152.604 183.826 160.69 147.151 160.69 147.151Z" fill="black"/>
<path opacity="0.1" d="M181.4 124.454C181.4 124.454 193.401 154.371 191 158.991C188.6 163.612 196.155 158.991 196.155 158.991L181.4 124.454Z" fill="black"/>
<path d="M198.111 154.006C198.111 154.006 157.579 155.965 169.403 168.605C181.226 181.245 205.49 169.141 205.49 169.141L198.111 154.006Z" fill="#885200"/>
<path opacity="0.1" d="M192.246 33.8369C192.249 36.7481 191.679 39.6314 190.566 42.3209C190.193 42.3638 189.821 42.3907 189.462 42.4068C188.926 41.2289 189.213 39.8685 189.224 38.5726C189.234 37.2766 188.757 35.7526 187.512 35.4038C185.028 34.7035 183.313 39.3534 180.864 38.5136C178.989 37.875 179.479 35.0255 178.399 33.3808C177.545 32.0794 175.833 31.7118 174.501 30.8962C171.669 29.1548 171.755 26.3697 170.439 23.7349C169.062 20.974 166.153 21.7897 163.626 23.4183C161.708 24.6579 160.052 26.3188 158 27.3062C156.223 28.1648 154.227 28.476 152.258 28.5216C151.046 28.5687 149.833 28.4403 148.657 28.1406C150.04 22.9337 153.267 18.4083 157.736 15.4083C162.205 12.4083 167.611 11.1385 172.946 11.8357C178.281 12.533 183.181 15.1496 186.731 19.1977C190.282 23.2458 192.241 28.4489 192.243 33.8369H192.246Z" fill="black"/>
<path d="M163.635 22.7073C161.714 23.9469 160.061 25.605 158.008 26.5978C156.232 27.4537 154.236 27.7649 152.267 27.8106C149.855 27.8642 147.259 27.4403 145.612 25.6963C144.098 24.0864 143.736 21.6099 144.376 19.4982C145.017 17.3866 146.552 15.6346 148.355 14.3654C150.158 13.0963 152.251 12.2189 153.446 10.4025C154.078 9.4419 154.383 8.30962 154.908 7.28735C156.588 4.01663 160.366 2.24577 164.018 2.02575C167.67 1.80573 171.289 2.89508 174.767 4.07566C178.245 5.25623 181.749 6.55486 185.42 6.79903C187.054 6.90098 188.753 6.79903 190.269 7.41883C192.308 8.24791 193.645 10.2307 194.556 12.2484C195.577 14.5237 196.212 17.0083 196.104 19.4929C195.879 24.7974 192.38 30.0027 193.918 35.0845C194.325 36.4395 195.089 37.8293 194.682 39.1843C194.087 41.1618 191.539 41.6126 189.479 41.7065C188.943 40.5286 189.23 39.1655 189.24 37.8723C189.251 36.579 188.774 35.0523 187.531 34.7035C185.045 34.0086 183.33 38.6504 180.886 37.8132C179.024 37.172 179.507 34.3252 178.424 32.6804C177.569 31.3764 175.855 31.0115 174.526 30.1959C171.694 28.4545 171.78 25.6694 170.464 23.0346C169.076 20.2603 166.164 21.0759 163.635 22.7073Z" fill="#301D00"/>
<path d="M124.333 124.808L122.289 125.522C122.289 125.522 123.092 137.628 120.413 141.1C117.734 144.572 129.212 153.204 129.212 153.204C129.212 153.204 144.944 153.115 145.389 151.862C145.834 150.609 144.585 129.431 144.585 129.431C144.585 129.431 136.14 126.136 136.85 120.885C136.85 120.885 134.273 133.257 130.452 132.723C126.632 132.189 122.294 128.994 124.333 124.808Z" fill="#E8F5FF"/>
<path opacity="0.1" d="M131.151 136.469C134.13 136.469 136.544 134.257 136.544 131.529C136.544 128.801 134.13 126.59 131.151 126.59C128.172 126.59 125.758 128.801 125.758 131.529C125.758 134.257 128.172 136.469 131.151 136.469Z" fill="black"/>
<path d="M137.049 125.165C137.049 125.165 135.977 92.4095 126.648 99.7075C117.319 107.006 117.228 115.734 119.004 118.312C120.78 120.891 126.476 133.799 126.476 133.799C127.367 134.316 128.368 134.615 129.396 134.67C130.425 134.725 131.451 134.536 132.392 134.117C133.333 133.698 134.162 133.062 134.81 132.26C135.458 131.459 135.908 130.515 136.122 129.506L137.049 125.165Z" fill="#975B00"/>
<path opacity="0.1" d="M195.244 42.1948C195.201 42.0509 195.117 41.9224 195.003 41.8245C194.542 41.4033 193.551 41.2557 192.056 41.3845L192.118 42.0928C194.111 41.9211 194.505 42.3182 194.556 42.3853V42.4524L194.617 42.5409C194.866 42.8754 195.042 43.2582 195.134 43.6648C195.227 44.0714 195.233 44.4928 195.153 44.9021C194.717 47.0888 192.035 48.8302 192.008 48.8489L191.943 48.8865L191.903 48.9482C190.746 50.6681 184.201 55.5219 182.488 56.7776L182.338 56.6059C181.572 57.2713 174.837 63.1768 174.472 65.4387C174.236 66.8581 172.64 67.4081 172.061 67.561C171.45 67.0969 169.467 65.5165 168.436 63.7456C167.469 62.0794 171.362 58.8275 171.705 57.5584L171.169 57.0083C171.112 57.2122 166.113 61.8916 167.504 64.2823C168.618 66.2007 170.654 67.8428 171.367 68.3848C171.139 70.4561 169.722 82.6187 167.544 85.5004C164.838 89.0824 162.563 107.134 162.815 113.437C163.037 119.037 161.577 129.614 156.701 134.156C155.857 134.977 154.838 135.596 153.722 135.968C152.605 136.34 151.419 136.454 150.252 136.303H150.193H150.134C150.064 136.303 142.991 137.027 137.049 132.01C132.186 127.913 129.432 121.226 128.858 112.13H128.74L128.692 109.482C130.011 109.276 131.198 108.566 132.005 107.502C132.812 106.437 133.175 105.101 133.019 103.774C132.863 102.447 132.199 101.232 131.167 100.385C130.135 99.5374 128.815 99.1237 127.485 99.2304C126.155 99.3372 124.918 99.9561 124.033 100.957C123.149 101.958 122.687 103.263 122.744 104.599C122.801 105.934 123.372 107.195 124.338 108.117C125.304 109.039 126.589 109.551 127.923 109.544H127.982L128.03 112.176L127.795 112.192C128.384 121.583 131.278 128.53 136.368 132.82C140.237 136.031 145.18 137.651 150.196 137.352C150.552 137.391 150.909 137.41 151.267 137.411C153.567 137.423 155.779 136.532 157.43 134.929C162.566 130.14 164.128 119.174 163.884 113.383C163.616 106.705 166.003 89.3024 168.398 86.1336C170.745 83.0239 172.168 70.9069 172.417 68.5592C173.267 68.3204 175.188 67.5664 175.514 65.6077C175.75 64.191 180.249 59.8256 183.016 57.4081L182.933 57.3115C184.423 56.2222 189.055 52.7878 191.351 50.5822C192.064 49.898 192.771 49.2138 193.511 48.5618C194.4 47.773 195.531 46.52 195.828 45.0389C195.93 44.55 195.93 44.0455 195.83 43.5564C195.729 43.0673 195.53 42.604 195.244 42.1948Z" fill="black"/>
<path d="M171.275 68.2157C171.163 68.1379 168.494 66.2249 167.157 63.9227C165.77 61.5321 170.769 56.8554 170.823 56.6515L171.358 57.2015C171.018 58.4679 167.125 61.7226 168.092 63.3861C169.311 65.487 171.878 67.3249 171.905 67.3437L171.275 68.2157Z" fill="#353146"/>
<path d="M182.14 57.2981L181.722 56.7212C181.807 56.6595 190.223 50.5635 191.549 48.5914L191.592 48.5323L191.654 48.4921C191.68 48.4733 194.362 46.7347 194.799 44.5452C194.88 44.1364 194.874 43.7153 194.781 43.309C194.689 42.9027 194.512 42.5204 194.263 42.1868L194.202 42.0955V42.0311C194.148 41.9614 193.754 41.567 191.761 41.7387L191.699 41.0277C193.197 40.8989 194.185 41.0464 194.646 41.4677C194.761 41.5665 194.846 41.6958 194.89 41.8406C195.18 42.2486 195.383 42.7116 195.487 43.2013C195.591 43.6909 195.594 44.1967 195.496 44.6874C195.198 46.1712 194.07 47.4242 193.178 48.2104C192.441 48.8624 191.731 49.5519 191.021 50.2308C188.329 52.8146 182.434 57.0861 182.14 57.2981Z" fill="#E8F5FF"/>
<path d="M128.346 108.548L127.636 108.561L127.715 112.883L128.425 112.87L128.346 108.548Z" fill="#E8F5FF"/>
<path d="M127.577 109.203C130.44 109.203 132.761 106.879 132.761 104.011C132.761 101.144 130.44 98.8194 127.577 98.8194C124.714 98.8194 122.393 101.144 122.393 104.011C122.393 106.879 124.714 109.203 127.577 109.203Z" fill="#6ABF4B"/>
<path d="M127.577 108.323C129.955 108.323 131.883 106.393 131.883 104.011C131.883 101.63 129.955 99.6995 127.577 99.6995C125.199 99.6995 123.271 101.63 123.271 104.011C123.271 106.393 125.199 108.323 127.577 108.323Z" fill="#E8F5FF"/>
<path d="M150.93 137.065C150.572 137.065 150.214 137.046 149.858 137.008C144.842 137.304 139.901 135.685 136.031 132.477C130.94 128.184 128.052 121.245 127.457 111.846L128.529 111.779C129.102 120.875 131.856 127.564 136.722 131.658C142.664 136.662 149.735 135.951 149.805 135.951H149.863H149.922C151.09 136.102 152.276 135.987 153.393 135.616C154.51 135.244 155.529 134.625 156.374 133.805C161.248 129.262 162.708 118.685 162.485 113.086C162.217 106.778 164.492 88.7255 167.201 85.1462C169.572 82.0097 171.043 67.8723 171.059 67.7301L171.099 67.3276L171.496 67.2578C171.52 67.2578 173.835 66.8178 174.124 65.0845C174.499 62.8253 181.224 56.9198 181.988 56.2517L182.687 57.0566C179.908 59.4714 175.41 63.8396 175.185 65.2589C174.858 67.223 172.937 67.9742 172.09 68.2104C171.823 70.5608 170.411 82.6751 168.072 85.7848C165.676 88.9536 163.289 106.356 163.557 113.035C163.788 118.825 162.242 129.793 157.105 134.58C155.452 136.187 153.234 137.079 150.93 137.065Z" fill="#353146"/>
<g opacity="0.1">
<path opacity="0.1" d="M194.529 27.494C194.969 25.868 195.499 24.2313 195.869 22.5839C195.427 24.2393 194.894 25.868 194.529 27.494Z" fill="black"/>
<path opacity="0.1" d="M190.046 40.271C189.511 39.0931 189.797 37.7301 189.808 36.4368C189.819 35.1435 189.342 33.6303 188.099 33.268C185.612 32.5731 183.898 37.2176 181.454 36.3778C179.579 35.7365 180.074 32.8897 178.992 31.245C178.137 29.941 176.425 29.5761 175.096 28.7604C172.262 27.0191 172.347 24.234 171.035 21.5991C169.655 18.8355 166.748 19.6512 164.219 21.2825C162.298 22.5221 160.645 24.183 158.592 25.1731C156.816 26.029 154.82 26.3402 152.851 26.3858C150.453 26.4422 147.843 26.0156 146.195 24.2715C144.925 22.93 144.467 20.9632 144.73 19.1199C144.684 19.246 144.644 19.3721 144.604 19.4983C143.961 21.6099 144.336 24.0918 145.839 25.6963C147.487 27.4403 150.096 27.8642 152.494 27.8106C154.466 27.765 156.46 27.4537 158.239 26.5978C160.296 25.605 161.949 23.9469 163.865 22.7073C166.394 21.0759 169.304 20.2603 170.681 23.0239C171.994 25.6587 171.911 28.4438 174.743 30.1851C176.082 30.9901 177.784 31.3657 178.641 32.6697C179.713 34.3198 179.238 37.1613 181.103 37.8025C183.544 38.6397 185.259 33.9979 187.745 34.6928C188.988 35.0416 189.468 36.571 189.454 37.8615C189.441 39.1521 189.162 40.5178 189.693 41.6957C191.753 41.6018 194.301 41.1591 194.899 39.1736C194.981 38.8887 195.019 38.5927 195.011 38.2962C194.14 39.8014 191.901 40.1878 190.046 40.271Z" fill="black"/>
</g>
<path opacity="0.1" d="M238.468 106.383L241.579 109.678C241.579 109.678 244.068 127.835 245.311 129.533C246.554 131.232 249.491 137.988 246.734 143.061C246.734 143.061 245.844 145.822 246.378 146.979C246.911 148.135 242.38 153.923 242.38 153.923C242.38 153.923 236.424 159.262 235.178 160.064C233.933 160.867 227.358 167.274 225.137 167.362C222.916 167.451 222.189 170.212 222.189 170.212L209.656 170.657C209.656 170.657 202.733 170.295 201.227 171.274C201.227 171.274 202.031 160.682 194.296 153.738L204.161 150.177C204.161 150.177 207.896 148.567 209.05 146.885C209.777 145.854 210.807 145.076 211.998 144.661C211.998 144.661 214.752 142.702 214.84 141.634C214.929 140.566 218.208 139.257 218.208 139.257L216.351 123.386L217.329 97.0378C217.329 97.0378 220.44 74.9611 227.017 76.2087C233.595 77.4564 238.468 106.383 238.468 106.383Z" fill="black"/>
<path d="M239.54 106.383L242.65 109.678C242.65 109.678 245.139 127.835 246.383 129.533C247.626 131.232 250.562 137.988 247.805 143.061C247.805 143.061 246.918 145.822 247.452 146.979C247.985 148.135 243.451 153.923 243.451 153.923C243.451 153.923 237.495 159.262 236.25 160.064C235.004 160.867 228.429 167.274 226.208 167.362C223.987 167.451 223.261 170.212 223.261 170.212L210.727 170.657C210.727 170.657 203.799 170.295 202.298 171.274C202.298 171.274 203.102 160.682 195.367 153.738L205.232 150.177C205.232 150.177 208.967 148.567 210.122 146.885C210.848 145.854 211.879 145.076 213.069 144.661C213.069 144.661 215.823 142.702 215.912 141.634C216 140.566 219.279 139.257 219.279 139.257L217.423 123.386L218.401 97.0378C218.401 97.0378 221.511 74.9611 228.089 76.2087C234.666 77.4564 239.54 106.383 239.54 106.383Z" fill="#E8F5FF"/>
<path opacity="0.1" d="M227.977 133C227.977 133 237.132 130.585 239.532 133.536C241.933 136.488 227.977 133 227.977 133Z" fill="black"/>
<path opacity="0.1" d="M225.844 137.049C228.954 139.23 238.554 139.319 238.554 139.319L225.844 137.049Z" fill="black"/>
<path opacity="0.1" d="M230.554 147.953C230.822 148.041 237.153 154.808 239.81 152.761C242.468 150.714 230.554 147.953 230.554 147.953Z" fill="black"/>
<path opacity="0.1" d="M145.29 91.1618C145.29 91.1618 147.149 103.982 146.233 109.203C145.317 114.424 148.661 120.894 148.661 120.894L145.29 91.1618Z" fill="black"/>
<path d="M104.126 96.3751C101.982 98.0574 100.418 102.039 99.2843 106.415C97.307 114.049 96.6613 122.9 96.6613 122.9C96.6613 122.9 79.5946 118.983 80.8377 117.204C81.6201 116.085 80.5698 107.655 79.6937 101.543C79.1713 97.9313 78.7051 95.1275 78.7051 95.1275C78.7051 95.1275 109.993 91.744 104.126 96.3751Z" fill="#E8BE80"/>
<path opacity="0.1" d="M104.126 96.0182C101.982 97.7032 100.418 101.682 99.2843 106.058C95.8839 107.093 92.2676 107.186 88.8186 106.328C85.3696 105.471 82.2165 103.695 79.6937 101.189C79.1713 97.5745 78.7051 94.7706 78.7051 94.7706C78.7051 94.7706 109.993 91.3899 104.126 96.0182Z" fill="black"/>
<path d="M113.3 86.4287C113.301 91.0956 111.654 95.6125 108.65 99.1802C105.646 102.748 101.479 105.136 96.8855 105.923C92.2921 106.709 87.569 105.843 83.552 103.477C79.5351 101.111 76.4834 97.3989 74.937 92.9966C73.3906 88.5942 73.4492 83.7859 75.1024 79.4227C76.7557 75.0594 79.897 71.4226 83.9703 69.1558C88.0437 66.889 92.7866 66.1384 97.3594 67.0368C101.932 67.9353 106.04 70.4248 108.957 74.0649C111.767 77.5713 113.299 81.9327 113.3 86.4287Z" fill="#E8BE80"/>
<path opacity="0.1" d="M128.861 210.003H123.235L122.76 200.051L122.265 189.75C122.265 189.75 123.543 189.56 125.579 189.276L126.401 189.166H126.468C126.913 191.256 127.352 193.402 127.776 195.546C128.48 199.352 128.847 203.213 128.872 207.083C128.872 207.352 128.872 207.62 128.872 207.872C128.888 208.589 128.872 209.305 128.861 210.003Z" fill="black"/>
<path d="M127.781 210.003H57.2207C57.5261 209.308 57.7298 208.886 57.7298 208.886C57.7298 208.886 63.3749 184.153 66.2444 173.689C66.2453 173.68 66.2453 173.671 66.2444 173.662C66.6029 172.241 67.0357 170.839 67.5411 169.463C67.5738 169.37 67.616 169.28 67.667 169.195C69.087 166.882 70.8661 164.39 68.377 160.829C65.888 157.269 66.7695 141.602 66.7695 141.602C66.7695 141.602 69.7917 128.248 72.9907 121.127C73.4762 120.024 74.1652 119.023 75.0216 118.175C75.3 117.903 75.5972 117.65 75.9111 117.419C76.1497 117.239 76.3983 117.074 76.6559 116.922L76.7068 116.89C78.0506 116.127 79.5429 115.663 81.082 115.53C82.1753 115.415 83.2788 115.446 84.3641 115.621C89.5511 116.383 93.7039 117.658 97.0047 119.109C105.951 123.045 108.659 128.32 108.713 128.43L108.734 128.476C109.093 129.316 114.345 141.594 116.236 147.322C116.727 148.814 116.994 149.863 116.887 150.15C116.351 151.572 120.976 169.375 120.976 169.375C120.976 169.375 123.119 177.961 125.263 188.025C125.356 188.444 125.445 188.862 125.531 189.286C125.914 191.113 126.294 192.976 126.661 194.835C127.372 198.667 127.739 202.555 127.757 206.453C127.796 207.667 127.804 208.851 127.781 210.003Z" fill="#B4C9FD"/>
<path opacity="0.1" d="M80.6613 109.407C80.6613 109.407 75.7932 107.529 75.8521 110.378C75.911 113.228 77.039 114.591 76.6827 115.007C76.3263 115.423 76.8595 117.915 76.8595 117.915C76.8595 117.915 83.437 117.915 86.4592 119.278C89.4814 120.641 100.622 123.373 102.044 124.204C103.467 125.036 108.742 128.766 108.742 128.766L109.217 121.704C109.217 121.704 103.764 117.193 94.8184 114.881C85.8724 112.568 80.6613 109.407 80.6613 109.407Z" fill="black"/>
<path d="M80.6613 109.05C80.6613 109.05 75.7932 107.172 75.8521 110.021C75.911 112.871 77.039 114.234 76.6827 114.65C76.3263 115.066 76.8595 117.558 76.8595 117.558C76.8595 117.558 83.437 117.558 86.4592 118.924C89.4814 120.29 100.622 123.019 102.044 123.848C103.467 124.677 108.742 128.409 108.742 128.409L109.222 121.368C109.222 121.368 103.77 116.858 94.8238 114.545C85.8778 112.232 80.6613 109.05 80.6613 109.05Z" fill="#385CAD"/>
<path opacity="0.1" d="M95.3564 126.045C95.3564 126.045 104.659 136.131 104.185 138.924C103.71 141.717 95.3564 126.045 95.3564 126.045Z" fill="black"/>
<path opacity="0.1" d="M80.2458 162.479C80.2458 162.479 73.4272 168.771 71.4177 169.128C69.4083 169.485 72.9583 170.671 75.2678 169.724C77.5773 168.776 82.5017 166.284 82.5017 166.284L80.2458 162.479Z" fill="black"/>
<path d="M130.551 210.003H114.65C112.426 208.071 110.323 206.281 108.984 205.205C106.84 203.483 105.294 200.947 104.308 198.908C104.086 198.444 103.893 198.009 103.73 197.615C103.437 196.935 103.179 196.241 102.958 195.535L114.733 188.532C115.384 189.087 115.995 189.685 116.563 190.325L116.705 190.488C117.359 191.261 117.935 192.138 117.986 192.858C118.045 193.695 120.37 196.933 122.747 200.043C125.158 203.206 127.628 206.23 127.792 206.434C127.792 206.434 128.199 206.99 128.864 207.843C129.332 208.46 129.911 209.2 130.551 210.003Z" fill="#E8BE80"/>
<path opacity="0.1" d="M108.956 74.0649C108.391 75.3421 107.885 76.6676 107.809 78.0896C107.598 82.1948 107.941 91.3738 103.402 93.4344C101.154 94.4486 98.7483 92.2216 96.2834 92.168C94.5098 92.1304 92.8835 93.2573 91.801 94.666C90.7186 96.0746 90.0462 97.7462 89.2611 99.34C88.5465 100.787 87.7234 102.177 86.7989 103.499C86.5226 103.903 86.2182 104.288 85.888 104.65C83.1205 103.48 80.6561 101.694 78.6825 99.426C76.709 97.1582 75.2784 94.4692 74.4998 91.5639C73.7211 88.6586 73.615 85.6136 74.1895 82.661C74.7639 79.7084 76.0038 76.926 77.8146 74.526C79.6255 72.1259 81.9595 70.1715 84.6388 68.8116C87.3181 67.4518 90.2721 66.7223 93.2755 66.6789C96.279 66.6354 99.2527 67.2792 101.97 68.561C104.688 69.8429 107.077 71.729 108.956 74.0757V74.0649Z" fill="black"/>
<path d="M107.454 77.3652C107.239 81.4704 107.585 90.6493 103.044 92.7073C100.796 93.7215 98.3897 91.4972 95.9248 91.4435C94.1512 91.4033 92.5275 92.5329 91.4424 93.9388C90.3573 95.3448 89.6902 97.0191 88.9025 98.6155C88.1877 100.062 87.3646 101.452 86.4403 102.774C85.8884 103.558 85.2775 104.344 84.4282 104.784C82.9493 105.557 81.1569 105.122 79.5707 104.626C77.5131 103.976 75.4858 103.245 73.4889 102.431C73.5347 102.129 73.558 101.824 73.5585 101.519C73.4996 101.631 73.4353 101.736 73.371 101.849L73.2451 102.069C73.0173 102.471 72.795 102.874 72.5913 103.287C72.5136 103.445 72.4386 103.609 72.3716 103.772C72.1022 104.382 71.933 105.03 71.8706 105.694C71.734 107.483 72.6154 109.182 73.3978 110.792C76.4066 117.019 78.266 124.301 76.002 130.834C75.0214 133.676 73.3228 136.201 72.0823 138.946C69.9138 143.807 69.2755 149.215 70.2524 154.449C70.8713 157.701 72.1118 160.92 71.8063 164.218C71.2705 169.893 66.3835 174.116 61.4886 177.019C58.8442 178.581 55.6076 179.97 52.7998 178.736C54.5895 176.643 55.0504 173.748 55.4362 171.017C56.4918 163.567 57.5501 156.113 58.6111 148.656C59.0344 145.688 59.4568 142.721 59.8783 139.753C60.666 134.178 61.4645 128.54 60.9715 122.93C60.6125 118.795 59.5997 114.406 61.3894 110.663C62.3352 108.68 64.0205 107.038 64.5456 104.902C64.9769 103.166 64.5751 101.32 64.859 99.5519C65.0145 98.7474 65.2777 97.9677 65.6414 97.2337C66.1046 96.2377 66.7092 95.3141 67.4365 94.4915C66.7184 94.2823 66.0486 93.9952 65.6414 93.3941C66.7935 92.6429 66.9676 90.9498 66.4452 89.678C65.9227 88.4062 64.8778 87.4376 63.9374 86.4341C62.997 85.4306 62.0914 84.2608 61.9735 82.8924C61.7458 80.2871 64.3446 78.2694 64.8028 75.699C65.2663 73.0829 63.4337 70.5393 63.5811 67.8911C63.7525 64.6901 66.689 62.3638 69.5879 61.0142C73.9625 58.9862 78.795 58.1531 83.595 58.5994C87.5013 58.9697 91.2817 60.1798 95.1773 60.6493C97.527 60.9176 99.9088 60.9445 102.242 61.3577C104.576 61.7709 106.915 62.6429 108.557 64.3574C112.887 68.8785 107.7 72.5999 107.454 77.3652Z" fill="#8B604A"/>
<path opacity="0.1" d="M103.831 198.911C102.465 198.318 99.9783 198.672 95.7103 197.371C91.4422 196.069 90.6197 190.188 90.6197 190.188V190.169C90.5688 190.035 90.1723 189.16 87.4877 186.096C84.5218 182.713 78.1104 165.624 78.1104 165.624C78.1104 165.624 72.425 159.509 72.6045 157.255C72.784 155.001 71.5945 149.005 71.7123 142.297C71.8302 135.589 84.5111 131.14 84.5111 131.14C108.927 126.807 103.177 154.996 102.526 157.132C101.875 159.267 105.254 165.036 105.254 165.036C104.777 167.548 107.21 171.435 107.21 171.435C107.21 171.435 107.799 174.875 107.92 176.182C107.926 176.242 107.94 176.302 107.96 176.359C108.351 177.591 111.539 178.707 112.836 179.386C114.2 180.099 118.586 186.329 118.586 186.329C119.531 190.904 105.192 199.512 103.831 198.911Z" fill="black"/>
<path d="M104.541 197.837C103.178 197.242 100.689 197.599 96.4232 196.295C92.1578 194.991 91.3326 189.115 91.3326 189.115V189.096C91.2844 188.959 90.8852 188.087 88.2006 185.023C85.2347 181.639 78.8233 164.548 78.8233 164.548C78.8233 164.548 73.1379 158.436 73.3148 156.182C73.4916 153.928 72.3074 147.931 72.4253 141.229C72.5431 134.526 85.2159 130.08 85.2159 130.08C109.632 125.747 103.882 153.936 103.231 156.072C102.58 158.208 105.959 163.976 105.959 163.976C105.482 166.488 107.914 170.376 107.914 170.376C107.914 170.376 108.504 173.815 108.627 175.122C108.632 175.183 108.644 175.242 108.665 175.299C109.056 176.531 112.244 177.647 113.544 178.326C114.905 179.037 119.293 185.27 119.293 185.27C120.244 189.836 105.905 198.444 104.541 197.837Z" fill="#B4C9FD"/>
<path opacity="0.1" d="M85.6982 144.797C85.6982 144.797 96.3643 156.067 99.148 156.067C101.932 156.067 85.6982 144.797 85.6982 144.797Z" fill="black"/>
<path d="M104.541 197.837C103.177 197.242 100.688 197.599 96.4226 196.295C92.1572 194.991 91.332 189.115 91.332 189.115V189.096C94.1586 187.218 101.318 181.913 104.139 179.973C106.124 178.613 107.745 176.614 108.693 175.288C109.085 176.52 112.273 177.636 113.572 178.315C114.933 179.026 119.322 185.259 119.322 185.259C120.244 189.836 105.904 198.444 104.541 197.837Z" fill="#385CAD"/>
<g opacity="0.1">
<path opacity="0.1" d="M65.6572 93.4237C65.6706 93.4451 65.6894 93.4639 65.7055 93.4854C65.7858 93.3834 65.8689 93.2814 65.9546 93.1848C65.8633 93.2738 65.7637 93.3537 65.6572 93.4237Z" fill="black"/>
<path opacity="0.1" d="M71.8733 105.723C71.9858 104.234 72.7815 102.922 73.5264 101.613C73.0388 101.425 72.5511 101.234 72.0689 101.036C72.1148 100.735 72.1381 100.431 72.1385 100.126C71.3857 101.468 70.5658 102.788 70.4506 104.298C70.314 106.091 71.1954 107.786 71.9778 109.396C74.9892 115.621 76.8459 122.903 74.582 129.439C73.5987 132.278 71.9028 134.805 70.6623 137.55C68.4946 142.411 67.8572 147.818 68.835 153.051C69.4486 156.305 70.6917 159.522 70.3863 162.82C69.8505 168.495 64.9662 172.718 60.0686 175.618C58.0672 176.804 55.7282 177.891 53.491 177.813C53.284 178.147 53.0529 178.465 52.7998 178.766C55.6103 180.008 58.8442 178.61 61.4886 177.043C66.3889 174.145 71.2839 169.933 71.8197 164.247C72.1251 160.95 70.882 157.733 70.2657 154.478C69.2876 149.246 69.9231 143.839 72.0876 138.978C73.3201 136.236 75.0348 133.705 76.0073 130.867C78.2713 124.331 76.4119 117.049 73.4031 110.824C72.6235 109.203 71.7366 107.515 71.8733 105.723Z" fill="black"/>
<path opacity="0.1" d="M108.552 64.3896C108.289 64.1188 108.006 63.8677 107.706 63.6383C110.953 67.8562 106.264 71.4408 106.031 75.9807C105.822 80.0858 106.165 89.2675 101.624 91.3228C99.3787 92.3397 96.9701 90.1127 94.5079 90.059C92.7315 90.0215 91.1079 91.151 90.0228 92.557C88.9377 93.963 88.2706 95.6372 87.4856 97.231C86.7694 98.6773 85.9455 100.068 85.0207 101.39C84.4848 102.176 83.8579 102.959 83.0059 103.402C81.5323 104.172 79.7399 103.74 78.1511 103.241C76.6061 102.755 75.0754 102.218 73.5589 101.631C73.5558 101.911 73.5325 102.19 73.4893 102.466C75.488 103.281 77.5162 104.013 79.5738 104.661C81.1599 105.16 82.9523 105.592 84.4286 104.822C85.2779 104.379 85.8941 103.593 86.4434 102.807C87.3688 101.486 88.192 100.097 88.9056 98.6504C89.6933 97.0566 90.3577 95.3796 91.4455 93.9737C92.5333 92.5677 94.1542 91.4408 95.9279 91.4784C98.3928 91.532 100.801 93.759 103.047 92.7421C107.588 90.6869 107.242 81.5052 107.454 77.4C107.7 72.6268 112.887 68.908 108.552 64.3896Z" fill="black"/>
</g>
<path opacity="0.1" d="M73.2472 102.071C73.0195 102.474 72.7971 102.876 72.5935 103.29C72.5158 103.448 72.4408 103.611 72.3738 103.775C70.9699 102.358 67.5512 98.9911 65.6436 97.9474C66.1074 96.9518 66.7119 96.0283 67.4386 95.2053C67.4386 95.2053 71.9853 97.612 73.2472 102.071Z" fill="black"/>
<path d="M73.3731 101.851C72.3202 97.0781 67.4386 94.4942 67.4386 94.4942C66.7113 95.3168 66.1067 96.2404 65.6436 97.2364C67.6557 98.3392 71.3637 102.036 72.5935 103.29L73.3731 101.851Z" fill="#385CAD"/>
</g>
<defs>
<linearGradient id="paint0_linear_1424_1864" x1="195.592" y1="25.5997" x2="195.592" y2="20.6681" gradientUnits="userSpaceOnUse">
<stop stop-color="#808080" stop-opacity="0.25"/>
<stop offset="0.54" stop-color="#808080" stop-opacity="0.12"/>
<stop offset="1" stop-color="#808080" stop-opacity="0.1"/>
</linearGradient>
<linearGradient id="paint1_linear_1424_1864" x1="122916" y1="176685" x2="122916" y2="12318.8" gradientUnits="userSpaceOnUse">
<stop stop-color="#808080" stop-opacity="0.25"/>
<stop offset="0.54" stop-color="#808080" stop-opacity="0.12"/>
<stop offset="1" stop-color="#808080" stop-opacity="0.1"/>
</linearGradient>
<clipPath id="clip0_1424_1864">
<rect width="291" height="210" fill="white"/>
</clipPath>
</defs>
</svg>
