<?xml version="1.0" encoding="UTF-8"?>
<svg version="1.1" xmlns="http://www.w3.org/2000/svg" width="500" height="500">
<path d="M0 0 C165 0 330 0 500 0 C500 165 500 330 500 500 C335 500 170 500 0 500 C0 335 0 170 0 0 Z " fill="#00BF63" transform="translate(0,0)"/>
<path d="M0 0 C0.639375 0.66 1.27875 1.32 1.9375 2 C2.95778686 3.00055755 3.97869767 4.000479 5 5 C5.58523437 5.60457031 6.17046875 6.20914063 6.7734375 6.83203125 C15.04817494 14.86898887 25.51647098 19.03740213 35.9375 23.625 C43.96623838 27.24154882 51.00045597 31.61628035 56 39 C56.73089844 40.06541016 56.73089844 40.06541016 57.4765625 41.15234375 C61.06419953 47.49584721 61.46138928 53.49447119 61.5 60.625 C61.50942627 61.94878662 61.50942627 61.94878662 61.51904297 63.29931641 C61.40300537 69.33214512 60.22940486 74.40092128 58 80 C45.18559318 80 31.90715143 71.78035924 23 63 C20.17940614 59.7725008 17.53501046 56.45554498 15 53 C24.06123401 67.82747384 37.19466441 78.2147519 54 83 C54.64453125 83.18949219 55.2890625 83.37898438 55.953125 83.57421875 C66.10276758 85.68549936 74.73501065 83.44249304 83.25 77.875 C90.05946194 70.75601706 94.44101484 62.30843027 94.2734375 52.37109375 C93.89007575 49.04679976 92.76250188 46.13412833 91.61328125 43.0078125 C90.79076339 40.31498332 90.93080129 38.59662543 92 36 C92.97519732 34.97579778 93.97261851 33.97184735 95 33 C101.70930744 43.52812709 104.66737432 54.60455465 102 67 C99.58212198 76.35613669 95.36058053 83.19041862 87.375 88.75 C74.19578703 96.1413837 58.39732195 97.05735369 43.75 94 C27.17810143 89.01667731 12.33089752 79.68740219 3.9296875 64.2890625 C2.13024994 60.87091691 0.46315526 57.40313487 -1.13818359 53.88818359 C-1.86522573 52.29528164 -2.62613992 50.71790396 -3.39453125 49.14453125 C-6.29422884 42.20779884 -6.37454608 35.29007272 -6.4375 27.875 C-6.4478125 26.86115234 -6.458125 25.84730469 -6.46875 24.80273438 C-6.36239713 15.73319788 -4.40178483 7.96513445 0 0 Z " fill="#27844B" transform="translate(162,155)"/>
<path d="M0 0 C8.50437295 9.71928338 7.73194431 24.28746287 7.22216797 36.38671875 C6.68731081 42.67804954 4.55115294 48.24866024 2 54 C1.5985376 54.91434814 1.5985376 54.91434814 1.18896484 55.84716797 C-6.34321327 72.72507147 -16.84883488 83.85135823 -34.2890625 90.78125 C-49.6847657 95.83752305 -66.77704844 97.48132821 -82 91 C-80.54290754 87.60011759 -79.04062507 85.16044413 -76 83 C-72.4375 83.25 -72.4375 83.25 -70.3125 83.6171875 C-57.0445341 85.81357375 -44.45403616 81.45697163 -33.55078125 73.9296875 C-24.41895221 67.02138191 -18.11474991 59.55614297 -12 50 C-12.30550781 50.44988281 -12.61101562 50.89976562 -12.92578125 51.36328125 C-22.21326406 64.41808103 -35.59094302 77.01653509 -52 80 C-53.99963028 80.03845443 -56.00051633 80.04544281 -58 80 C-61.82081411 64.83045829 -62.76105806 52.88199856 -55.3125 38.8125 C-48.71339775 30.78656484 -41.31073732 26.2622576 -31.94726562 21.90625 C-14.03904449 13.6094928 -14.03904449 13.6094928 0 0 Z " fill="#A5CE45" transform="translate(337,155)"/>
<path d="M0 0 C5.43002441 2.47685324 9.53408784 6.92415624 12.11328125 12.3359375 C14.36507993 19.10125335 13.83388387 26.08668519 10.8125 32.5 C8.08918495 37.3063039 5.31916602 40.22694466 0 42 C-14.7862286 43.13311551 -14.7862286 43.13311551 -21 38 C-25.82124941 32.00601425 -27.50268057 26.18206333 -27.30859375 18.58984375 C-26.56298791 12.3324175 -24.10042204 7.64337632 -19.375 3.5 C-13.45418287 -1.1539174 -7.34083137 -0.59429764 0 0 Z " fill="#04C065" transform="translate(293,276)"/>
<path d="M0 0 C5.05015242 7.57522863 5.99138723 17.11093252 5 26 C3.14675384 35.0254135 0.09974429 42.84329639 -7.17578125 48.7734375 C-9.74592709 51.91044634 -9.36792472 54.07217655 -9.1875 58.0625 C-8.92669173 64.78007519 -8.92669173 64.78007519 -10 68 C-10.66 68 -11.32 68 -12 68 C-12.24234375 67.13117188 -12.4846875 66.26234375 -12.734375 65.3671875 C-15.26060561 56.63129585 -15.26060561 56.63129585 -20 49 C-24.41748043 50.50275019 -26.27115659 53.91742747 -28.625 57.6875 C-29.21667969 58.58758789 -29.21667969 58.58758789 -29.8203125 59.50585938 C-34.72836877 67.22444111 -35.88030095 74.95805169 -35 84 C-33.56000293 87.3850877 -33.56000293 87.3850877 -32 90 C-32 93.30050011 -33.20157196 94.22741452 -35.4375 96.75 C-38 99 -38 99 -40 99 C-44.73650188 87.07416492 -45.87590652 76.11112265 -41 64 C-37.05819749 56.30730849 -31.51326846 49.88575486 -25.90234375 43.3828125 C-15.54560041 31.36215317 -4.96890301 18.87217593 -1.47265625 3.01171875 C-1 1 -1 1 0 0 Z " fill="#A2CE46" transform="translate(279,132)"/>
<path d="M0 0 C3.49983803 -0.08803772 6.99938638 -0.14073608 10.5 -0.1875 C11.97339844 -0.22520508 11.97339844 -0.22520508 13.4765625 -0.26367188 C19.72470958 -0.32615335 24.33810018 0.29241717 30 3 C32.58612706 5.90939294 32.95987691 7.62551784 33.375 11.5 C32.97091243 15.27148402 32.40928119 17.09224684 30 20 C27.3125 21.3125 27.3125 21.3125 25 22 C25.33773437 22.4846875 25.67546875 22.969375 26.0234375 23.46875 C29.21941664 28.27195564 30.88821408 32.33999894 32 38 C32.99 37.67 33.98 37.34 35 37 C35.33 36.01 35.66 35.02 36 34 C36.99 34 37.98 34 39 34 C38.6875 37.375 38.6875 37.375 38 41 C35 43 35 43 31.5 42.8125 C27.89480621 41.97558001 27.1535795 41.79189808 25 39 C23.90234375 36.15234375 23.90234375 36.15234375 22.9375 32.9375 C21.70976931 28.53260333 21.70976931 28.53260333 19 25 C16.34462628 24.43479997 13.70855287 24.26211802 11 24 C11.33 28.95 11.66 33.9 12 39 C13.98 39 15.96 39 18 39 C18 39.99 18 40.98 18 42 C12.06 42 6.12 42 0 42 C0 41.01 0 40.02 0 39 C1.98 38.505 1.98 38.505 4 38 C4.33 26.78 4.66 15.56 5 4 C3.35 4 1.7 4 0 4 C0 2.68 0 1.36 0 0 Z " fill="#F3FCF7" transform="translate(226,276)"/>
<path d="M0 0 C2.1030833 3.15462495 2.97644186 5.83520402 4.125 9.4375 C7.90103009 20.46447827 14.72278038 29.17253131 22.58251953 37.63696289 C25.99594338 41.44424334 25.99594338 41.44424334 26.015625 44.140625 C24.81220981 46.3438005 23.43145871 47.94255671 21.6875 49.75 C16.15591959 55.87101111 13.71339163 62.0041724 12 70 C8.87619014 65.27207156 10.1040196 59.93756081 10.41796875 54.53125 C10.37151346 50.88085111 10.37151346 50.88085111 7.6875 48.84375 C6.3571875 47.93109375 6.3571875 47.93109375 5 47 C3.26953125 44.5625 3.26953125 44.5625 1.8125 42 C1.07966797 40.7315625 1.07966797 40.7315625 0.33203125 39.4375 C-5.57608448 28.62616798 -4.92438801 16.75170736 -2 5 C-1.36386611 3.32144232 -0.70531803 1.65068128 0 0 Z " fill="#27854B" transform="translate(220,132)"/>
<path d="M0 0 C3.88520026 -0.78430211 7.13155616 -0.95199985 11 0 C14.20488967 2.97210207 16.38213018 6.4535348 18.72998047 10.12060547 C21.09849827 13.62557472 23.82281516 16.85376644 26.5 20.125 C31.86094894 26.72189788 31.86094894 26.72189788 33 29 C33.33 20.75 33.66 12.5 34 4 C32.35 4 30.7 4 29 4 C29 2.68 29 1.36 29 0 C33.95 0 38.9 0 44 0 C44 1.32 44 2.64 44 4 C42.35 4 40.7 4 39 4 C39 16.54 39 29.08 39 42 C33.3836981 40.87673962 32.88871241 40.27070606 29.5 36 C29.08637207 35.48469727 28.67274414 34.96939453 28.24658203 34.43847656 C26.8131814 32.63897838 25.40485009 30.82187256 24 29 C23.42991211 28.26330078 22.85982422 27.52660156 22.27246094 26.76757812 C18.48681143 21.86562118 14.74185667 16.93606625 11 12 C11 20.58 11 29.16 11 38 C12.32 38.33 13.64 38.66 15 39 C15 39.99 15 40.98 15 42 C10.38 42 5.76 42 1 42 C1 41.01 1 40.02 1 39 C2.485 38.505 2.485 38.505 4 38 C4.33 26.78 4.66 15.56 5 4 C3.35 4 1.7 4 0 4 C0 2.68 0 1.36 0 0 Z " fill="#EAF9F2" transform="translate(109,276)"/>
<path d="M0 0 C1.65 0 3.3 0 5 0 C9.28686386 7.94687498 12.20488505 16.40936006 15.21826172 24.8984375 C15.91400023 26.8512544 16.62737779 28.79686208 17.34375 30.7421875 C17.75818359 31.8957373 18.17261719 33.04928711 18.59960938 34.23779297 C20.09965637 37.19656768 20.90702477 37.97312564 24 39 C24 39.99 24 40.98 24 42 C18.39 42 12.78 42 7 42 C7 41.01 7 40.02 7 39 C8.98 38.505 8.98 38.505 11 38 C10.43260132 33.87026372 10.43260132 33.87026372 9 30 C3.72 30 -1.56 30 -7 30 C-9.18569534 34.56671088 -9.18569534 34.56671088 -9 38 C-7.68 38.33 -6.36 38.66 -5 39 C-5 39.99 -5 40.98 -5 42 C-9.95 42 -14.9 42 -20 42 C-20 41.01 -20 40.02 -20 39 C-18.87911987 38.41738403 -18.87911987 38.41738403 -17.7355957 37.82299805 C-13.83683451 35.22486776 -12.90100866 32.09802281 -11.23046875 27.83203125 C-10.90460281 27.03721848 -10.57873688 26.2424057 -10.24299622 25.42350769 C-9.20928911 22.89237514 -8.19822232 20.35288625 -7.1875 17.8125 C-6.48910594 16.09119738 -5.78925227 14.37048621 -5.08789062 12.65039062 C-3.37493669 8.44026031 -1.6822256 4.22249704 0 0 Z " fill="#F4FCF8" transform="translate(368,276)"/>
<path d="M0 0 C5.43002441 2.47685324 9.53408784 6.92415624 12.11328125 12.3359375 C14.36507993 19.10125335 13.83388387 26.08668519 10.8125 32.5 C8.08918495 37.3063039 5.31916602 40.22694466 0 42 C-14.7862286 43.13311551 -14.7862286 43.13311551 -21 38 C-25.82124941 32.00601425 -27.50268057 26.18206333 -27.30859375 18.58984375 C-26.56298791 12.3324175 -24.10042204 7.64337632 -19.375 3.5 C-13.45418287 -1.1539174 -7.34083137 -0.59429764 0 0 Z M-17 9 C-20.65560822 14.6200098 -19.63459816 22.59055855 -19 29 C-17.28021769 33.66987043 -15.11375604 36.25749598 -11 39 C-6.79585919 39.47594047 -4.53023079 39.27531214 -0.75 37.3125 C3.36280253 33.85400696 4.84144941 31.44838103 5.43359375 26.0390625 C5.45073202 24.56780757 5.45164699 23.09628673 5.4375 21.625 C5.45748047 20.89539063 5.47746094 20.16578125 5.49804688 19.4140625 C5.49307418 13.84464077 4.198209 10.56887001 1 6 C-5.41146452 1.72569032 -12.44847737 2.74165639 -17 9 Z " fill="#F0FBF5" transform="translate(293,276)"/>
<path d="M0 0 C3.98135309 1.39455743 7.03241524 4.28345101 9 8 C9.3125 11.125 9.3125 11.125 9 14 C7 16 7 16 4.4375 16.1875 C2 16 2 16 1 15 C1.08937803 13.47480724 1.24537146 11.95318071 1.4375 10.4375 C1.53933594 9.61121094 1.64117187 8.78492188 1.74609375 7.93359375 C1.82988281 7.29550781 1.91367187 6.65742188 2 6 C-2.16422495 4.41362859 -5.54304681 3.44288085 -10 4 C-14.29789148 6.10680955 -16.88297769 8.28840169 -18.52734375 12.88671875 C-20.12765003 20.04180714 -19.54509851 26.6514893 -16.19140625 33.18359375 C-14.42621892 35.87478098 -13.0561442 36.95813266 -10 38 C-6.00691552 38.62167782 -2.96066219 38.64844698 0.5 36.3125 C2.24633224 33.62023779 2.34982212 32.14839906 2 29 C0.02 28.67 -1.96 28.34 -4 28 C-4 26.68 -4 25.36 -4 24 C0.29 24 4.58 24 9 24 C9 29.94 9 35.88 9 42 C7.68 42 6.36 42 5 42 C4.34 41.34 3.68 40.68 3 40 C2.48179687 40.32226562 1.96359375 40.64453125 1.4296875 40.9765625 C-3.6844363 43.13074327 -9.56780066 42.51163738 -15 42 C-20.35236597 39.50838136 -23.92030484 35.75965406 -26.08203125 30.234375 C-27.78227692 24.24372216 -28.29324766 17.47456238 -26.08984375 11.5546875 C-19.78330054 0.88831538 -11.89967453 -0.98825511 0 0 Z " fill="#F3FCF7" transform="translate(336,276)"/>
<path d="M0 0 C10.23 0 20.46 0 31 0 C31 3.3 31 6.6 31 10 C29.68 10 28.36 10 27 10 C26.67 8.02 26.34 6.04 26 4 C21.05 3.67 16.1 3.34 11 3 C11 8.61 11 14.22 11 20 C13.97 19.67 16.94 19.34 20 19 C20.33 18.01 20.66 17.02 21 16 C22.32 16 23.64 16 25 16 C25 19.3 25 22.6 25 26 C23.68 26 22.36 26 21 26 C21 25.01 21 24.02 21 23 C17.7 23 14.4 23 11 23 C11 28.28 11 33.56 11 39 C18.92 38.505 18.92 38.505 27 38 C27.66 36.02 28.32 34.04 29 32 C30.32 32 31.64 32 33 32 C32.505 36.95 32.505 36.95 32 42 C21.44 42 10.88 42 0 42 C0 41.01 0 40.02 0 39 C1.98 38.505 1.98 38.505 4 38 C4 27.11 4 16.22 4 5 C2.68 4.67 1.36 4.34 0 4 C0 2.68 0 1.36 0 0 Z " fill="#F5FCF9" transform="translate(190,276)"/>
<path d="M0 0 C10.23 0 20.46 0 31 0 C31 3.3 31 6.6 31 10 C29.68 10 28.36 10 27 10 C26.67 8.02 26.34 6.04 26 4 C21.05 3.67 16.1 3.34 11 3 C11 8.61 11 14.22 11 20 C13.97 19.67 16.94 19.34 20 19 C20.33 18.01 20.66 17.02 21 16 C22.32 16 23.64 16 25 16 C25 19.3 25 22.6 25 26 C23.68 26 22.36 26 21 26 C21 25.01 21 24.02 21 23 C17.7 23 14.4 23 11 23 C11 28.28 11 33.56 11 39 C18.92 38.505 18.92 38.505 27 38 C27.66 36.02 28.32 34.04 29 32 C30.32 32 31.64 32 33 32 C32.505 36.95 32.505 36.95 32 42 C21.44 42 10.88 42 0 42 C0 41.01 0 40.02 0 39 C1.98 38.505 1.98 38.505 4 38 C4 27.11 4 16.22 4 5 C2.68 4.67 1.36 4.34 0 4 C0 2.68 0 1.36 0 0 Z " fill="#F5FCF9" transform="translate(154,276)"/>
<path d="M0 0 C3.70390021 2.02666238 5.65363011 3.48044516 8 7 C8.47364652 11.81540624 8.49199653 14.05114955 6.25 18.375 C3.05000967 22.10832206 1.47434932 22.80888064 -3.375 23.4375 C-8.1853299 22.85694294 -9.61392593 21.38607407 -13 18 C-14.72986655 14.5402669 -14.48431489 10.78289201 -14 7 C-10.37672133 1.12778974 -6.85451718 -0.69706954 0 0 Z " fill="#27854B" transform="translate(253,136)"/>
<path d="M0 0 C1.32 0 2.64 0 4 0 C4.495 8.415 4.495 8.415 5 17 C2.40125 17.04125 -0.1975 17.0825 -2.875 17.125 C-4.10065674 17.15231201 -4.10065674 17.15231201 -5.35107422 17.18017578 C-7.23495049 17.19477217 -9.11869312 17.09943482 -11 17 C-11.66 16.34 -12.32 15.68 -13 15 C-13.66 15.66 -14.32 16.32 -15 17 C-18 17.3125 -18 17.3125 -21 17 C-23.15502531 13.76746204 -23.46856135 12.74849077 -23 9 C-21.8125 7.1875 -21.8125 7.1875 -20 6 C-16.25150923 5.53143865 -15.23253796 5.84497469 -12 8 C-11.34 7.34 -10.68 6.68 -10 6 C-6.9375 5.8125 -6.9375 5.8125 -4 6 C-2.03177114 7.96822886 -2.33751619 11.34808709 -2 14 C-1.34 14 -0.68 14 0 14 C0 9.38 0 4.76 0 0 Z " fill="#D6F4E5" transform="translate(292,335)"/>
<path d="M0 0 C9.07692308 0 9.07692308 0 13 3 C15 5 15 5 15.3125 8.3125 C14.96368567 12.42850907 13.9398098 15.0601902 11 18 C7.3308423 18.14310287 3.67284559 18.04221662 0 18 C0 12.06 0 6.12 0 0 Z " fill="#0BC169" transform="translate(237,279)"/>
<path d="M0 0 C1.62463842 -0.05395478 3.24978541 -0.09277195 4.875 -0.125 C5.77992188 -0.14820313 6.68484375 -0.17140625 7.6171875 -0.1953125 C10 0 10 0 12 2 C11.625 5.125 11.625 5.125 11 8 C11.66 8.33 12.32 8.66 13 9 C13.125 11.375 13.125 11.375 13 14 C11 16 11 16 8.3984375 16.1953125 C7.40070313 16.17210937 6.40296875 16.14890625 5.375 16.125 C3.87066406 16.09792969 3.87066406 16.09792969 2.3359375 16.0703125 C1.56507813 16.04710937 0.79421875 16.02390625 0 16 C0.66 15.67 1.32 15.34 2 15 C1.85930804 12.87465341 1.71229079 10.74972471 1.5625 8.625 C1.48128906 7.44164062 1.40007812 6.25828125 1.31640625 5.0390625 C1.18915064 2.08481099 1.18915064 2.08481099 0 0 Z " fill="#E9F9F1" transform="translate(148,336)"/>
<path d="M0 0 C0 5.28 0 10.56 0 16 C1.32 16 2.64 16 4 16 C4 13.36 4 10.72 4 8 C3.34 8 2.68 8 2 8 C2 7.34 2 6.68 2 6 C3.32 6 4.64 6 6 6 C6 9.3 6 12.6 6 16 C6.66 16.33 7.32 16.66 8 17 C5.37472811 17.05382106 2.75055287 17.09358313 0.125 17.125 C-0.62136719 17.14175781 -1.36773437 17.15851563 -2.13671875 17.17578125 C-4.09194461 17.1933959 -6.04742021 17.10320189 -8 17 C-10 15 -10 15 -10.25 11.5 C-10 8 -10 8 -8 6 C-5.375 5.875 -5.375 5.875 -3 6 C-2.67 4.68 -2.34 3.36 -2 2 C-2.66 1.67 -3.32 1.34 -4 1 C-2 0 -2 0 0 0 Z " fill="#E8F9F1" transform="translate(260,335)"/>
<path d="M0 0 C0.66 0 1.32 0 2 0 C2 0.99 2 1.98 2 3 C4.31 3 6.62 3 9 3 C9 2.01 9 1.02 9 0 C9.66 0 10.32 0 11 0 C11 0.99 11 1.98 11 3 C11.99 3 12.98 3 14 3 C14 3.66 14 4.32 14 5 C13.01 5 12.02 5 11 5 C11 7.64 11 10.28 11 13 C11.66 13 12.32 13 13 13 C13 12.34 13 11.68 13 11 C13.66 11.33 14.32 11.66 15 12 C14.67 12.66 14.34 13.32 14 14 C9.25 14.125 9.25 14.125 7 13 C4.99890722 13.32670903 2.99883869 13.65977214 1 14 C-0.63717481 12.36282519 -0.39672144 10.37517442 -0.625 8.125 C-0.72039062 7.24070312 -0.81578125 6.35640625 -0.9140625 5.4453125 C-1 3 -1 3 0 0 Z " fill="#0FC36C" transform="translate(175,338)"/>
<path d="M0 0 C2.31 0.33 4.62 0.66 7 1 C7.33 3.31 7.66 5.62 8 8 C8.66 8 9.32 8 10 8 C10 5.36 10 2.72 10 0 C12.64 0 15.28 0 18 0 C18 0.99 18 1.98 18 3 C17.01 3 16.02 3 15 3 C14.67 5.31 14.34 7.62 14 10 C14.66 10.33 15.32 10.66 16 11 C10.39 11 4.78 11 -1 11 C-1.33 9.35 -1.66 7.7 -2 6 C-0.02 5.34 1.96 4.68 4 4 C4 3.01 4 2.02 4 1 C3.01 1 2.02 1 1 1 C1 1.99 1 2.98 1 4 C0.34 4 -0.32 4 -1 4 C-0.67 2.68 -0.34 1.36 0 0 Z " fill="#D8F5E7" transform="translate(323,341)"/>
<path d="M0 0 C1.65 0 3.3 0 5 0 C6.32 2.97 7.64 5.94 9 9 C11.6465335 6.3534665 12.59941997 3.43778736 14 0 C15.65 0 17.3 0 19 0 C18.67 0.66 18.34 1.32 18 2 C17.90350061 3.9981051 17.87019128 5.9995718 17.875 8 C17.87242187 9.0725 17.86984375 10.145 17.8671875 11.25 C17.8127659 13.96182052 17.8127659 13.96182052 19 16 C17.02 16 15.04 16 13 16 C13.33 15.34 13.66 14.68 14 14 C14.04022391 11.6670134 14.04320247 9.33293334 14 7 C12.68 9.97 11.36 12.94 10 16 C7.2574043 13.2574043 6.49792802 12.25588615 5.3125 8.8125 C4.93544922 7.73935547 4.93544922 7.73935547 4.55078125 6.64453125 C4.36902344 6.10183594 4.18726563 5.55914062 4 5 C3.9729957 6.45823212 3.95360213 7.91660675 3.9375 9.375 C3.92589844 10.18710937 3.91429687 10.99921875 3.90234375 11.8359375 C3.85533666 14.04937142 3.85533666 14.04937142 5 16 C3.35 16 1.7 16 0 16 C0.33 15.34 0.66 14.68 1 14 C1.09649939 12.0018949 1.12980872 10.0004282 1.125 8 C1.12757813 6.9275 1.13015625 5.855 1.1328125 4.75 C1.1872341 2.03817948 1.1872341 2.03817948 0 0 Z " fill="#DAF5E8" transform="translate(218,336)"/>
<path d="M0 0 C3.16074764 1.58037382 3.54298175 4.76378948 4.625 7.9375 C4.85445313 8.58396484 5.08390625 9.23042969 5.3203125 9.89648438 C7 14.71058873 7 14.71058873 7 17 C2.71 17 -1.58 17 -6 17 C-5.19980115 12.19880692 -4.45116558 9.35886096 -2.4375 5.125 C-1.75494141 3.67480469 -1.75494141 3.67480469 -1.05859375 2.1953125 C-0.70925781 1.47085937 -0.35992187 0.74640625 0 0 Z " fill="#10C36C" transform="translate(369,285)"/>
<path d="M0 0 C2.3125 1 2.3125 1 4 2 C4 2.66 4 3.32 4 4 C4.99 3.34 5.98 2.68 7 2 C7.99 2 8.98 2 10 2 C10 2.66 10 3.32 10 4 C9.0925 4.4125 8.185 4.825 7.25 5.25 C3.9801694 6.78016742 3.9801694 6.78016742 2 9.1875 C0 11 0 11 -3.125 11.4375 C-4.07375 11.293125 -5.0225 11.14875 -6 11 C-8.15502531 7.76746204 -8.46856135 6.74849077 -8 3 C-5.83425725 -0.30560735 -3.79067536 -0.46227748 0 0 Z " fill="#1AC573" transform="translate(277,341)"/>
<path d="M0 0 C0.33 0.66 0.66 1.32 1 2 C-6.89335763 13.98620973 -14.42987623 22.60580955 -27 30 C-27.33 29.34 -27.66 28.68 -28 28 C-25.68765866 25.50863869 -23.21050483 23.73833175 -20.375 21.875 C-11.80876703 15.93108324 -5.37331372 8.91337923 0 0 Z " fill="#12C05F" transform="translate(325,203)"/>
<path d="M0 0 C2.5 0.25 2.5 0.25 4.5 2.25 C4.5 3.57 4.5 4.89 4.5 6.25 C2.19 6.25 -0.12 6.25 -2.5 6.25 C-2.17 6.91 -1.84 7.57 -1.5 8.25 C0.48 8.25 2.46 8.25 4.5 8.25 C4.17 9.24 3.84 10.23 3.5 11.25 C-1.8820598 11.60880399 -1.8820598 11.60880399 -4.4375 10.125 C-5.5 8.25 -5.5 8.25 -5.3125 5.1875 C-4.32868366 1.63062554 -3.77050877 0.37705088 0 0 Z " fill="#B4ECD1" transform="translate(243.5,340.75)"/>
<path d="M0 0 C2.5 0.25 2.5 0.25 4.5 2.25 C4.5 3.57 4.5 4.89 4.5 6.25 C2.19 6.25 -0.12 6.25 -2.5 6.25 C-2.17 6.91 -1.84 7.57 -1.5 8.25 C0.48 8.25 2.46 8.25 4.5 8.25 C4.17 9.24 3.84 10.23 3.5 11.25 C-1.8820598 11.60880399 -1.8820598 11.60880399 -4.4375 10.125 C-5.5 8.25 -5.5 8.25 -5.3125 5.1875 C-4.32868366 1.63062554 -3.77050877 0.37705088 0 0 Z " fill="#B4ECD1" transform="translate(167.5,340.75)"/>
<path d="M0 0 C1.9375 1.5 1.9375 1.5 3 3 C2.67 3.99 2.34 4.98 2 6 C1.01 5.67 0.02 5.34 -1 5 C-1 4.01 -1 3.02 -1 2 C-4.29075996 2.37904208 -4.29075996 2.37904208 -7 4 C-7.33856828 9.32673036 -7.33856828 9.32673036 -5 14 C-1.39007621 13.34414811 -1.39007621 13.34414811 2 12 C1.34 13.32 0.68 14.64 0 16 C-3.25 16.3125 -3.25 16.3125 -7 16 C-10.22456813 13.27151928 -10.91290117 11.62057913 -11.5 7.4375 C-11 4 -11 4 -9.4375 1.5625 C-6.09493717 -0.58016848 -3.89504791 -0.49573337 0 0 Z " fill="#E0F7EC" transform="translate(316,336)"/>
<path d="M0 0 C0 5.28 0 10.56 0 16 C1.32 16 2.64 16 4 16 C4 13.36 4 10.72 4 8 C3.34 8 2.68 8 2 8 C2 7.34 2 6.68 2 6 C3.32 6 4.64 6 6 6 C6 9.3 6 12.6 6 16 C6.66 16.33 7.32 16.66 8 17 C5.03 17 2.06 17 -1 17 C-1.36644578 15.44033408 -1.71760862 13.87707349 -2.0625 12.3125 C-2.25972656 11.44238281 -2.45695312 10.57226562 -2.66015625 9.67578125 C-3.02032279 6.83998724 -2.70909969 4.75210018 -2 2 C-2.66 1.67 -3.32 1.34 -4 1 C-2 0 -2 0 0 0 Z " fill="#F0FBF6" transform="translate(260,335)"/>
<path d="M0 0 C1.32 0 2.64 0 4 0 C4.33 5.61 4.66 11.22 5 17 C3.35 17 1.7 17 0 17 C0 11.39 0 5.78 0 0 Z " fill="#CEF2E1" transform="translate(292,335)"/>
<path d="M0 0 C0.66 0 1.32 0 2 0 C2 0.99 2 1.98 2 3 C2.99 3 3.98 3 5 3 C5 3.66 5 4.32 5 5 C4.01 5 3.02 5 2 5 C2 7.64 2 10.28 2 13 C2.66 13 3.32 13 4 13 C4 12.34 4 11.68 4 11 C4.66 11.33 5.32 11.66 6 12 C5.67 12.66 5.34 13.32 5 14 C3.33388095 14.042721 1.66617115 14.04063832 0 14 C-1.66342837 12.33657163 -1.36048097 10.2174291 -1.5625 7.9375 C-1.64628906 7.01839844 -1.73007813 6.09929687 -1.81640625 5.15234375 C-1.90728516 4.08693359 -1.90728516 4.08693359 -2 3 C-1.34 3 -0.68 3 0 3 C0 2.01 0 1.02 0 0 Z " fill="#DDF6EA" transform="translate(184,338)"/>
<path d="M0 0 C0.66 1.32 1.32 2.64 2 4 C1.01 4.33 0.02 4.66 -1 5 C-1 3.68 -1 2.36 -1 1 C-2.32 1.33 -3.64 1.66 -5 2 C-4.67 4.31 -4.34 6.62 -4 9 C-2.35 8.67 -0.7 8.34 1 8 C0.67 8.99 0.34 9.98 0 11 C-2.875 11.1875 -2.875 11.1875 -6 11 C-8.15502531 7.76746204 -8.46856135 6.74849077 -8 3 C-5.82311273 -0.32261741 -3.79605352 -0.30778812 0 0 Z " fill="#DAF5E8" transform="translate(277,341)"/>
<path d="M0 0 C1.2065625 0.0309375 1.2065625 0.0309375 2.4375 0.0625 C2.1075 0.7225 1.7775 1.3825 1.4375 2.0625 C1.34100061 4.0606051 1.30769128 6.0620718 1.3125 8.0625 C1.30992187 9.135 1.30734375 10.2075 1.3046875 11.3125 C1.2502659 14.02432052 1.2502659 14.02432052 2.4375 16.0625 C0.4575 16.0625 -1.5225 16.0625 -3.5625 16.0625 C-3.2325 15.4025 -2.9025 14.7425 -2.5625 14.0625 C-2.46694583 12.60670413 -2.43265309 11.1464204 -2.4375 9.6875 C-2.43492187 8.91664063 -2.43234375 8.14578125 -2.4296875 7.3515625 C-2.48986542 5.05027034 -2.48986542 5.05027034 -3.1328125 2.8359375 C-3.27460938 2.25070312 -3.41640625 1.66546875 -3.5625 1.0625 C-2.5625 0.0625 -2.5625 0.0625 0 0 Z " fill="#F3FCF8" transform="translate(234.5625,335.9375)"/>
<path d="M0 0 C2.64 0 5.28 0 8 0 C8 0.99 8 1.98 8 3 C7.01 3 6.02 3 5 3 C4.67 5.31 4.34 7.62 4 10 C4.66 10.33 5.32 10.66 6 11 C4.02 11 2.04 11 0 11 C0 7.37 0 3.74 0 0 Z " fill="#EEFAF4" transform="translate(333,341)"/>
<path d="M0 0 C2.64 0 5.28 0 8 0 C8 0.99 8 1.98 8 3 C6.68 2.67 5.36 2.34 4 2 C4 4.64 4 7.28 4 10 C4.66 10.33 5.32 10.66 6 11 C4.02 11 2.04 11 0 11 C0 7.37 0 3.74 0 0 Z " fill="#BDEED6" transform="translate(202,341)"/>
<path d="M0 0 C0.66 0 1.32 0 2 0 C2.33 1.65 2.66 3.3 3 5 C0.36 5 -2.28 5 -5 5 C-3.27773504 8.24849977 -3.27773504 8.24849977 0 9 C0 8.34 0 7.68 0 7 C0.66 7 1.32 7 2 7 C1.67 7.99 1.34 8.98 1 10 C-1.875 10.125 -1.875 10.125 -5 10 C-7 8 -7 8 -7.125 4.375 C-7.08375 3.26125 -7.0425 2.1475 -7 1 C-6.34 1 -5.68 1 -5 1 C-5 1.99 -5 2.98 -5 4 C-3.35 4 -1.7 4 0 4 C0 2.68 0 1.36 0 0 Z " fill="#E3F8EE" transform="translate(349,342)"/>
<path d="M0 0 C0.66 0 1.32 0 2 0 C2.33 1.65 2.66 3.3 3 5 C0.36 5 -2.28 5 -5 5 C-3.27773504 8.24849977 -3.27773504 8.24849977 0 9 C0 8.34 0 7.68 0 7 C0.66 7 1.32 7 2 7 C1.67 7.99 1.34 8.98 1 10 C-1.875 10.125 -1.875 10.125 -5 10 C-7 8 -7 8 -7.125 4.375 C-7.08375 3.26125 -7.0425 2.1475 -7 1 C-6.34 1 -5.68 1 -5 1 C-5 1.99 -5 2.98 -5 4 C-3.35 4 -1.7 4 0 4 C0 2.68 0 1.36 0 0 Z " fill="#E3F8EE" transform="translate(198,342)"/>
<path d="M0 0 C2.77249211 2.66935783 5.14687739 5.41056904 7.4375 8.5 C10.00437334 11.85795714 12.50321045 14.56284365 16 17 C15.67 17.99 15.34 18.98 15 20 C9.19437212 14.5427098 3.81146801 9.06989948 0 2 C0 1.34 0 0.68 0 0 Z " fill="#06B55F" transform="translate(175,205)"/>
<path d="M0 0 C0.33 0 0.66 0 1 0 C1 2.31 1 4.62 1 7 C1.99 7 2.98 7 4 7 C4 9.64 4 12.28 4 15 C2.68 15 1.36 15 0 15 C0 10.05 0 5.1 0 0 Z " fill="#18C572" transform="translate(260,336)"/>
<path d="M0 0 C0.66 0 1.32 0 2 0 C2 0.99 2 1.98 2 3 C2.99 3.33 3.98 3.66 5 4 C4.01 4 3.02 4 2 4 C2.33 6.64 2.66 9.28 3 12 C3.99 11.67 4.98 11.34 6 11 C5.67 11.99 5.34 12.98 5 14 C3.35 13.67 1.7 13.34 0 13 C-0.19551338 11.39679026 -0.38111983 9.79237014 -0.5625 8.1875 C-0.71912109 6.84751953 -0.71912109 6.84751953 -0.87890625 5.48046875 C-1 3 -1 3 0 0 Z " fill="#EEFAF5" transform="translate(175,338)"/>
<path d="M0 0 C2.475 0.495 2.475 0.495 5 1 C5.33 2.65 5.66 4.3 6 6 C4.02 6.33 2.04 6.66 0 7 C0 4.69 0 2.38 0 0 Z " fill="#1EC675" transform="translate(152,344)"/>
<path d="M0 0 C0.99 0.33 1.98 0.66 3 1 C2.67 2.98 2.34 4.96 2 7 C0.35 7 -1.3 7 -3 7 C-3.33 5.68 -3.66 4.36 -4 3 C-2.1875 1.4375 -2.1875 1.4375 0 0 Z " fill="#95E4BE" transform="translate(284,345)"/>
<path d="M0 0 C2.475 0.495 2.475 0.495 5 1 C5 2.65 5 4.3 5 6 C3.02 6.99 3.02 6.99 1 8 C0 7 0 7 -0.0625 3.4375 C-0.041875 2.303125 -0.02125 1.16875 0 0 Z " fill="#11C36D" transform="translate(253,343)"/>
<path d="M0 0 C1.65 0 3.3 0 5 0 C5 0.99 5 1.98 5 3 C4.34 3 3.68 3 3 3 C3.14084796 4.79206547 3.28783701 6.58364917 3.4375 8.375 C3.55931641 9.87160156 3.55931641 9.87160156 3.68359375 11.3984375 C3.84965626 13.97927613 3.84965626 13.97927613 5 16 C3.35 16 1.7 16 0 16 C0.33 15.34 0.66 14.68 1 14 C1.09649939 12.0018949 1.12980872 10.0004282 1.125 8 C1.12757813 6.9275 1.13015625 5.855 1.1328125 4.75 C1.1872341 2.03817948 1.1872341 2.03817948 0 0 Z " fill="#F6FCF9" transform="translate(218,336)"/>
<path d="M0 0 C0.33 0.66 0.66 1.32 1 2 C-0.40320739 4.1557823 -1.82120132 6.29878098 -3.25 8.4375 C-3.64574219 9.04916016 -4.04148437 9.66082031 -4.44921875 10.29101562 C-7.48592544 14.79629358 -7.48592544 14.79629358 -10.296875 15.91015625 C-10.85890625 15.93980469 -11.4209375 15.96945313 -12 16 C-10.700625 14.5459375 -10.700625 14.5459375 -9.375 13.0625 C-5.84803156 8.96449858 -2.90897683 4.54914461 0 0 Z " fill="#25C25C" transform="translate(325,203)"/>
<path d="M0 0 C0.28875 0.598125 0.5775 1.19625 0.875 1.8125 C2.04742026 4.19327792 2.04742026 4.19327792 4 7 C7.60992379 6.34414811 7.60992379 6.34414811 11 5 C10.34 6.32 9.68 7.64 9 9 C2.64 9.36 2.64 9.36 0 7.875 C-1.49672661 5.06863762 -0.73294398 2.99840718 0 0 Z " fill="#ECFAF3" transform="translate(307,343)"/>
<path d="M0 0 C2.475 0.495 2.475 0.495 5 1 C4.67 2.65 4.34 4.3 4 6 C2.68 6 1.36 6 0 6 C0 4.02 0 2.04 0 0 Z " fill="#1CC674" transform="translate(152,337)"/>
<path d="M0 0 C1.4540625 0.0309375 1.4540625 0.0309375 2.9375 0.0625 C2.6075 1.7125 2.2775 3.3625 1.9375 5.0625 C0.2875 5.0625 -1.3625 5.0625 -3.0625 5.0625 C-3.625 3.125 -3.625 3.125 -4.0625 1.0625 C-3.0625 0.0625 -3.0625 0.0625 0 0 Z " fill="#6EDAA6" transform="translate(347.0625,340.9375)"/>
<path d="M0 0 C1.4540625 0.0309375 1.4540625 0.0309375 2.9375 0.0625 C2.6075 1.7125 2.2775 3.3625 1.9375 5.0625 C0.2875 5.0625 -1.3625 5.0625 -3.0625 5.0625 C-3.625 3.125 -3.625 3.125 -4.0625 1.0625 C-3.0625 0.0625 -3.0625 0.0625 0 0 Z " fill="#6EDAA6" transform="translate(196.0625,340.9375)"/>
<path d="M0 0 C1.62463842 -0.05395478 3.24978541 -0.09277195 4.875 -0.125 C5.77992188 -0.14820313 6.68484375 -0.17140625 7.6171875 -0.1953125 C10 0 10 0 12 2 C11.625 4.625 11.625 4.625 11 7 C10.690625 6.360625 10.38125 5.72125 10.0625 5.0625 C9.1654837 3.06389179 9.1654837 3.06389179 8 2 C5.66702567 1.95907063 3.33294775 1.95758277 1 2 C0.67 1.34 0.34 0.68 0 0 Z " fill="#E6F8F0" transform="translate(148,336)"/>
<path d="M0 0 C0.66 0 1.32 0 2 0 C2 2.64 2 5.28 2 8 C2.66 8.33 3.32 8.66 4 9 C2.02 9 0.04 9 -2 9 C-1.34 6.03 -0.68 3.06 0 0 Z " fill="#F4FCF8" transform="translate(204,343)"/>
<path d="M0 0 C-0.33 1.32 -0.66 2.64 -1 4 C-3.97 3.505 -3.97 3.505 -7 3 C-7 2.34 -7 1.68 -7 1 C-3.375 -1.125 -3.375 -1.125 0 0 Z " fill="#6FDAA7" transform="translate(328,346)"/>
<path d="M0 0 C2.64 0 5.28 0 8 0 C6.515 1.98 6.515 1.98 5 4 C3.0625 3.6875 3.0625 3.6875 1 3 C0.67 2.01 0.34 1.02 0 0 Z " fill="#21C777" transform="translate(344,347)"/>
<path d="M0 0 C2.64 0 5.28 0 8 0 C6.515 1.98 6.515 1.98 5 4 C3.0625 3.6875 3.0625 3.6875 1 3 C0.67 2.01 0.34 1.02 0 0 Z " fill="#21C777" transform="translate(193,347)"/>
<path d="M0 0 C1.65 0 3.3 0 5 0 C5 0.66 5 1.32 5 2 C3.68 2 2.36 2 1 2 C1 3.98 1 5.96 1 8 C0.01 6.68 -0.98 5.36 -2 4 C-1.34 2.68 -0.68 1.36 0 0 Z " fill="#B9EDD4" transform="translate(252,341)"/>
<path d="M0 0 C0.33 0.99 0.66 1.98 1 3 C1.99 3 2.98 3 4 3 C4 3.66 4 4.32 4 5 C3.01 5 2.02 5 1 5 C1 7.31 1 9.62 1 12 C0.67 12 0.34 12 0 12 C-0.19573608 10.56359829 -0.38127816 9.12580496 -0.5625 7.6875 C-0.66691406 6.88699219 -0.77132812 6.08648437 -0.87890625 5.26171875 C-1 3 -1 3 0 0 Z " fill="#A7E9C9" transform="translate(185,338)"/>
<path d="M0 0 C0 0.99 0 1.98 0 3 C-0.99 3 -1.98 3 -3 3 C-3.33 4.98 -3.66 6.96 -4 9 C-4.33 9 -4.66 9 -5 9 C-5 6.36 -5 3.72 -5 1 C-3 0 -3 0 0 0 Z " fill="#B4ECD1" transform="translate(341,341)"/>
</svg>
