<?xml version="1.0" encoding="UTF-8"?>
<svg version="1.1" xmlns="http://www.w3.org/2000/svg" width="900" height="500">
<path d="M0 0 C297 0 594 0 900 0 C900 165 900 330 900 500 C603 500 306 500 0 500 C0 335 0 170 0 0 Z " fill="#FEFEFE" transform="translate(0,0)"/>
<path d="M0 0 C36.3 0 72.6 0 110 0 C110 19.8 110 39.6 110 60 C107.82929452 56.74394178 106.63882928 53.47441807 105.375 49.8125 C104.199375 46.4403125 104.199375 46.4403125 103 43 C102.67 50.26 102.34 57.52 102 65 C97.50120337 60.50120337 97.50120337 60.50120337 95.6328125 57.2421875 C95.22160156 56.53320312 94.81039062 55.82421875 94.38671875 55.09375 C93.97035156 54.3615625 93.55398437 53.629375 93.125 52.875 C92.29480035 51.43459051 91.46406514 49.99448957 90.6328125 48.5546875 C90.21547852 47.82862305 89.79814453 47.10255859 89.36816406 46.35449219 C86.95892836 42.20840563 84.47839275 38.10500498 82 34 C82.27787354 35.0194873 82.55574707 36.03897461 82.84204102 37.08935547 C83.86861479 40.86314494 84.8858071 44.63940936 85.90014648 48.41650391 C86.34093778 50.05261461 86.78428918 51.68803778 87.23022461 53.32275391 C87.86982673 55.66914745 88.50025767 58.01783903 89.12890625 60.3671875 C89.33093155 61.10057343 89.53295685 61.83395935 89.74110413 62.58956909 C91.11387171 67.77225659 91.11387171 67.77225659 90 70 C88.64242826 68.6701338 87.28916504 67.33586929 85.9375 66 C85.18339844 65.2575 84.42929688 64.515 83.65234375 63.75 C80.30332119 60.27767028 77.15003019 56.65247162 74 53 C74.36351562 53.89307861 74.36351562 53.89307861 74.734375 54.80419922 C75.82649824 57.49302765 76.91330919 60.18397174 78 62.875 C78.3815625 63.81214844 78.763125 64.74929687 79.15625 65.71484375 C79.5171875 66.61074219 79.878125 67.50664062 80.25 68.4296875 C80.58515625 69.25710449 80.9203125 70.08452148 81.265625 70.93701172 C82 73 82 73 82 75 C80 75 80 75 77.7890625 72.859375 C76.86867187 71.91578125 75.94828125 70.9721875 75 70 C72.83021071 68.03797113 70.60405734 66.14420586 68.375 64.25 C67.45412598 63.46338989 67.45412598 63.46338989 66.51464844 62.66088867 C62.79801142 59.4963468 59.04229297 56.38631012 55.25 53.3125 C50.00086369 49.05391393 44.97958447 44.56911981 40 40 C40 40.99 40 41.98 40 43 C40.66 43 41.32 43 42 43 C42 43.66 42 44.32 42 45 C42.66 45 43.32 45 44 45 C45.19140625 46.36328125 45.19140625 46.36328125 46.5625 48.3125 C49.88335299 52.91566256 53.48961831 57.2414395 57.14453125 61.58203125 C59 64 59 64 60 67 C60.66 67 61.32 67 62 67 C63.296875 68.50390625 63.296875 68.50390625 64.75 70.5625 C67.64682256 74.56525236 70.74684614 78.28210987 74 82 C73.67 82.66 73.34 83.32 73 84 C72.03900391 83.51080078 72.03900391 83.51080078 71.05859375 83.01171875 C63.35606514 78.40624037 63.35606514 78.40624037 55 76 C57.43463855 78.99112736 59.83362645 81.83362645 62.5625 84.5625 C64.91678161 86.91678161 66.96815678 89.36612915 69 92 C62.87568452 90.87078782 56.89026587 89.47808242 50.89453125 87.796875 C45.95380821 86.43667595 40.97580927 85.2244138 36 84 C37.485 84.99 37.485 84.99 39 86 C39.66 86.66 40.32 87.32 41 88 C42.65914347 88.68517529 44.32709091 89.3491564 46 90 C47.8054865 90.9320358 49.59691191 91.891702 51.375 92.875 C52.80392578 93.66390625 52.80392578 93.66390625 54.26171875 94.46875 C57.52063744 96.29114105 60.76699195 98.1320398 64 100 C64 100.66 64 101.32 64 102 C56.74 102.33 49.48 102.66 42 103 C46.70936603 104.8444526 46.70936603 104.8444526 51.42260742 106.67895508 C55.16583315 108.16057488 58.64851206 109.72879749 62 112 C62 112.33 62 112.66 62 113 C55.19051989 113.40908256 48.38102978 113.81799833 41.5715332 114.22680664 C39.26261171 114.36544153 36.95369238 114.50411242 34.64477539 114.64282227 C21.43032138 115.4366639 8.21571939 116.22748082 -5 117 C7.03038055 118.02421252 19.05670735 118.93518175 31.1171875 119.5078125 C31.97615631 119.54929413 32.83512512 119.59077576 33.72012329 119.6335144 C38.02212163 119.83985651 42.3242491 120.0346549 46.62744141 120.21435547 C48.22039333 120.28839949 49.8133303 120.36276591 51.40625 120.4375 C52.51394241 120.47812057 52.51394241 120.47812057 53.64401245 120.51956177 C58.77319645 120.77319645 58.77319645 120.77319645 61 123 C58.62918558 124.15524418 56.25396043 125.29925208 53.875 126.4375 C53.20984375 126.76298828 52.5446875 127.08847656 51.859375 127.42382812 C47.90132029 129.30584433 44.41020487 130.51226706 40 131 C41.04871253 132.27305556 41.04871253 132.27305556 43.40844727 132.11352539 C44.45057373 132.10828857 45.4927002 132.10305176 46.56640625 132.09765625 C47.69111328 132.09443359 48.81582031 132.09121094 49.97460938 132.08789062 C51.15861328 132.07951172 52.34261719 132.07113281 53.5625 132.0625 C54.75037109 132.05798828 55.93824219 132.05347656 57.16210938 132.04882812 C60.10812226 132.03699675 63.05403681 132.02051287 66 132 C64.65830763 134.68338474 63.23073124 135.06886389 60.5625 136.4375 C52.1453535 140.90215046 44.0987572 145.98794904 36 151 C41.09676336 149.47466628 46.19166284 147.94366008 51.28125 146.39453125 C53.02083333 145.8671875 54.76041667 145.33984375 56.5 144.8125 C57.83804688 144.40354492 57.83804688 144.40354492 59.203125 143.98632812 C60.47929687 143.60057617 60.47929687 143.60057617 61.78125 143.20703125 C62.9269043 142.85862183 62.9269043 142.85862183 64.09570312 142.50317383 C66 142 66 142 68 142 C66.70396588 144.82868857 65.30810402 146.9701021 63.1796875 149.234375 C62.37724609 150.09482422 62.37724609 150.09482422 61.55859375 150.97265625 C61.00300781 151.55917969 60.44742188 152.14570313 59.875 152.75 C59.31167969 153.35199219 58.74835938 153.95398438 58.16796875 154.57421875 C56.78275854 156.05334151 55.3919271 157.52719641 54 159 C59.5725543 157.52185048 64.46023728 155.46429761 69.64453125 152.92578125 C70.81048828 152.46751953 70.81048828 152.46751953 72 152 C72.66 152.33 73.32 152.66 74 153 C73.14322917 154.04036458 72.28645833 155.08072917 71.4296875 156.12109375 C70.86967041 156.80115479 70.30965332 157.48121582 69.73266602 158.18188477 C68.48070942 159.7020355 67.22859012 161.22205225 65.97631836 162.74194336 C62.71351836 166.70248998 59.45321092 170.66502501 56.19921875 174.6328125 C55.58900879 175.3760376 54.97879883 176.1192627 54.35009766 176.88500977 C53.19379768 178.29351011 52.03845867 179.70280014 50.88427734 181.11303711 C47.01409859 185.82413071 43.03840905 190.43243579 39 195 C43.11233116 191.76777002 47.06082497 188.37561279 51 184.9375 C56.50531308 180.14817624 62.03834911 175.39517547 67.62231445 170.69775391 C70.50834659 168.26936855 73.35955319 165.80809017 76.1875 163.3125 C79 161 79 161 81 161 C80.56442084 162.47973345 80.12639904 163.95874785 79.6875 165.4375 C79.44386719 166.26121094 79.20023438 167.08492187 78.94921875 167.93359375 C77.69774974 171.97640515 76.33830111 175.98509666 75 180 C79.95 175.05 84.9 170.1 90 165 C91.53457508 168.06915015 90.20893517 170.74375766 89.34765625 173.90625 C89.16867294 174.58675415 88.98968964 175.2672583 88.80528259 175.96838379 C88.23102611 178.14741974 87.64723123 180.32375371 87.0625 182.5 C86.48294472 184.67663206 85.90540226 186.85376929 85.33042908 189.03161621 C84.97177916 190.38797229 84.61017655 191.74355166 84.24537659 193.0982666 C83.31189575 196.50217709 83.31189575 196.50217709 83 200 C83.37286133 199.36497559 83.74572266 198.72995117 84.12988281 198.07568359 C85.83478286 195.17439031 87.54236685 192.27468542 89.25 189.375 C90.12978516 187.87646484 90.12978516 187.87646484 91.02734375 186.34765625 C97.0947569 176.05350585 97.0947569 176.05350585 100 172 C100.33 172 100.66 172 101 172 C101.33 179.26 101.66 186.52 102 194 C104.22134568 188.12411469 104.22134568 188.12411469 106.42724609 182.24243164 C106.84611084 181.14983032 106.84611084 181.14983032 107.2734375 180.03515625 C107.55622559 179.2862915 107.83901367 178.53742676 108.13037109 177.76586914 C109 176 109 176 111 175 C111 194.8 111 214.6 111 235 C74.37 235 37.74 235 0 235 C0 214.21 0 193.42 0 172 C-20.46 172 -40.92 172 -62 172 C-62 135.7 -62 99.4 -62 62 C-41.54 62 -21.08 62 0 62 C0 41.54 0 21.08 0 0 Z " fill="#02D142" transform="translate(78,126)"/>
<path d="M0 0 C12.21 0 24.42 0 37 0 C37.99 2.97 38.98 5.94 40 9 C40.680625 11.0109375 40.680625 11.0109375 41.375 13.0625 C42.3506301 15.9791205 43.2858014 18.90598645 44.1953125 21.84375 C44.41010254 22.53718506 44.62489258 23.23062012 44.84619141 23.94506836 C45.26998956 25.31758568 45.69167215 26.69075872 46.11083984 28.06469727 C47.09919537 31.26831874 48.1508789 34.39376776 49.3515625 37.52734375 C51.84687306 44.07235533 53.80533274 50.8112329 55.875 57.5 C56.30056515 58.86985882 56.72634519 60.2396509 57.15234375 61.609375 C58.00413039 64.34911946 58.85509162 67.08911797 59.70532227 69.8293457 C61.03699222 74.12000063 62.3702924 78.41014012 63.70703125 82.69921875 C63.91049164 83.35398193 64.11395203 84.00874512 64.32357788 84.68334961 C65.43484539 88.24551857 66.59730324 91.78456657 67.8125 95.3125 C69 99 69 99 69 102 C69.66 102 70.32 102 71 102 C71.15977074 100.54522751 71.15977074 100.54522751 71.32276917 99.06106567 C71.97488598 94.53422231 73.37246423 90.3441739 74.83569336 86.02294922 C75.2700042 84.71673111 75.2700042 84.71673111 75.71308899 83.38412476 C76.66624609 80.52235258 77.62791979 77.66352358 78.58984375 74.8046875 C79.25671228 72.80900893 79.9230919 70.81316693 80.58900452 68.81716919 C81.98336942 64.64170225 83.38159334 60.46755607 84.78295898 56.29443359 C86.57812845 50.94853724 88.36680923 45.60050033 90.15300655 40.25160027 C91.85900375 35.14358793 93.56796747 30.03656985 95.27734375 24.9296875 C95.60268538 23.95705837 95.928027 22.98442924 96.26322746 21.98232651 C97.18550444 19.22709242 98.10985545 16.4725636 99.03491211 13.71826172 C99.30667267 12.90566895 99.57843323 12.09307617 99.85842896 11.25585938 C100.23902214 10.12481277 100.23902214 10.12481277 100.62730408 8.97091675 C100.95443594 7.99593137 100.95443594 7.99593137 101.28817654 7.00124931 C102.12688507 4.64327018 103.07052127 2.32369682 104 0 C115.88 0 127.76 0 140 0 C140 1.65 140 3.3 140 5 C136.04 5 132.08 5 128 5 C128 44.93 128 84.86 128 126 C131.96 126 135.92 126 140 126 C140 127.65 140 129.3 140 131 C123.17 131 106.34 131 89 131 C89 129.35 89 127.7 89 126 C94.94 126 100.88 126 107 126 C106.67 88.05 106.34 50.1 106 11 C92.8 50.6 79.6 90.2 66 131 C63.69 131 61.38 131 59 131 C51.96794166 110.09246872 45.13253364 89.12684508 38.59765625 68.05859375 C38.29710327 67.09000931 37.99655029 66.12142487 37.68688965 65.12348938 C36.19502516 60.31320749 34.7067067 55.50187049 33.22412109 50.6887207 C29.00565033 37.05061716 24.51733154 23.55199461 20 10 C19.67 48.28 19.34 86.56 19 126 C23.95 126 28.9 126 34 126 C34 127.65 34 129.3 34 131 C22.78 131 11.56 131 0 131 C0 129.35 0 127.7 0 126 C4.62 126 9.24 126 14 126 C14 85.74 14 45.48 14 4 C9.38 4 4.76 4 0 4 C0 2.68 0 1.36 0 0 Z " fill="#080808" transform="translate(223,124)"/>
<path d="M0 0 C3.21576591 2.14384394 3.80635937 3.15402706 5.5 6.5 C9.92556038 14.91305767 15.01210086 22.9098709 20 31 C20.33 23.41 20.66 15.82 21 8 C30.29046313 17.29046313 29.79565124 34.07457571 29.85932922 46.15037537 C29.85190619 48.56770389 29.8427645 50.98502766 29.83203125 53.40234375 C29.83863045 55.93567869 29.84685536 58.46900985 29.85661316 61.00233459 C29.86989554 66.28647809 29.86178521 71.57016639 29.8371582 76.85424805 C29.80937143 82.91176027 29.82873017 88.9677928 29.87203389 95.02518076 C29.91249343 100.91729143 29.91291517 106.80884403 29.89777184 112.70105171 C29.89563867 115.17862886 29.90393888 117.65624055 29.92350197 120.13374138 C30.02077612 134.95641045 29.22633802 147.77486017 22 161 C21.34 161.33 20.68 161.66 20 162 C19.67 154.74 19.34 147.48 19 140 C17.86820312 141.93746094 16.73640625 143.87492188 15.5703125 145.87109375 C14.47277098 147.74170749 13.37343871 149.6112574 12.27392578 151.48071289 C11.50967415 152.78234417 10.74729438 154.08507637 9.98681641 155.38891602 C8.8945341 157.26089136 7.79562106 159.12882769 6.6953125 160.99609375 C5.7055542 162.68496704 5.7055542 162.68496704 4.69580078 164.40795898 C3 167 3 167 1 168 C2.33741855 159.99841016 4.11379814 152.16965944 6.125 144.3125 C6.54072266 142.66991211 6.54072266 142.66991211 6.96484375 140.99414062 C7.63995964 138.32859686 8.31951136 135.66417722 9 133 C4.05 137.95 -0.9 142.9 -6 148 C-7.13665504 144.59003489 -6.91583208 144.13694152 -5.56640625 140.98828125 C-5.24736328 140.23095703 -4.92832031 139.47363281 -4.59960938 138.69335938 C-4.25736328 137.90767578 -3.91511719 137.12199219 -3.5625 136.3125 C-3.22412109 135.51521484 -2.88574219 134.71792969 -2.53710938 133.89648438 C-1.6999299 131.92734393 -0.8510647 129.96317916 0 128 C-7.24850222 133.85797323 -14.36161048 139.85227342 -21.42578125 145.9296875 C-24.95856337 148.9682863 -28.50660836 151.98849235 -32.0625 155 C-32.58634277 155.44456543 -33.11018555 155.88913086 -33.64990234 156.34716797 C-36.7264877 158.95027947 -39.84179785 161.49661775 -43 164 C-41.29956396 159.85582355 -38.35843319 156.75626963 -35.4375 153.4375 C-34.34539299 152.18052196 -33.25425591 150.92270059 -32.1640625 149.6640625 C-31.62555664 149.04305664 -31.08705078 148.42205078 -30.53222656 147.78222656 C-27.68041995 144.46511562 -24.92637546 141.06976243 -22.171875 137.671875 C-20.63149969 135.77688091 -19.07804029 133.89248865 -17.515625 132.015625 C-16.70609375 131.04109375 -15.8965625 130.0665625 -15.0625 129.0625 C-13.96615234 127.74958984 -13.96615234 127.74958984 -12.84765625 126.41015625 C-11.24325776 124.31731509 -10.06386839 122.40066637 -9 120 C-10.10408203 120.50660156 -10.10408203 120.50660156 -11.23046875 121.0234375 C-12.20628906 121.46945312 -13.18210937 121.91546875 -14.1875 122.375 C-15.15042969 122.81585938 -16.11335938 123.25671875 -17.10546875 123.7109375 C-18.06066406 124.13632812 -19.01585937 124.56171875 -20 125 C-20.88300781 125.40476562 -21.76601562 125.80953125 -22.67578125 126.2265625 C-25 127 -25 127 -28 126 C-27.5875 125.61070312 -27.175 125.22140625 -26.75 124.8203125 C-21.68140481 119.91011091 -17.31801018 114.57415859 -13 109 C-14.21816406 109.40734375 -15.43632812 109.8146875 -16.69140625 110.234375 C-22.7675818 112.25778312 -28.84823785 114.26629622 -34.9375 116.25 C-36.6400293 116.81460938 -36.6400293 116.81460938 -38.37695312 117.390625 C-39.45783203 117.74125 -40.53871094 118.091875 -41.65234375 118.453125 C-42.63195068 118.77442383 -43.61155762 119.09572266 -44.62084961 119.42675781 C-47 120 -47 120 -49 119 C-45.26624527 116.77359288 -41.53084461 114.54998054 -37.79394531 112.32885742 C-36.52494306 111.57407555 -35.25638059 110.81855372 -33.98828125 110.06225586 C-32.15742416 108.97050656 -30.32496177 107.88149577 -28.4921875 106.79296875 C-27.39245605 106.1383667 -26.29272461 105.48376465 -25.15966797 104.80932617 C-22.16708703 103.09567934 -19.08442879 101.54221439 -16 100 C-24.25 100 -32.5 100 -41 100 C-41 99.34 -41 98.68 -41 98 C-40.14277344 97.67386719 -39.28554687 97.34773438 -38.40234375 97.01171875 C-32.55306289 94.77619878 -26.72814527 92.53104094 -21 90 C-22.87113024 88.12886976 -26.03055662 88.65841278 -28.53930664 88.51928711 C-29.56365059 88.46054665 -29.56365059 88.46054665 -30.60868835 88.40061951 C-32.87561799 88.27173978 -35.14285678 88.14953002 -37.41015625 88.02734375 C-38.97816728 87.9395008 -40.54615518 87.85124402 -42.11412048 87.7625885 C-46.24852632 87.52994314 -50.38322381 87.30294309 -54.51800537 87.0770874 C-58.734198 86.845793 -62.95009297 86.60920221 -67.16601562 86.37304688 C-75.44372714 85.9101582 -83.72175397 85.45322848 -92 85 C-92 84.67 -92 84.34 -92 84 C-88.13579034 83.30563229 -84.36453584 82.82939385 -80.44458008 82.62695312 C-78.84680473 82.54181458 -78.84680473 82.54181458 -77.2167511 82.45495605 C-76.07916855 82.39763306 -74.941586 82.34031006 -73.76953125 82.28125 C-71.99022469 82.18704773 -71.99022469 82.18704773 -70.17497253 82.09094238 C-66.38764162 81.89076038 -62.60009965 81.69502611 -58.8125 81.5 C-55.04277995 81.30452767 -51.27312284 81.10802949 -47.50358582 80.90905762 C-45.16182982 80.78557542 -42.81996593 80.66411637 -40.47798157 80.54504395 C-33.63375848 80.18566237 -26.82035658 79.6757102 -20 79 C-27.70920069 75.40858916 -27.70920069 75.40858916 -35.625 72.3125 C-39 71 -39 71 -40 69 C-32.41 69 -24.82 69 -17 69 C-17 68.34 -17 67.68 -17 67 C-17.70125 66.731875 -18.4025 66.46375 -19.125 66.1875 C-23.68967043 64.30209265 -27.90526221 62.09438129 -32.0625 59.4375 C-34.21861291 58.06394603 -36.11965374 56.9521385 -38.5 56 C-42.28712404 54.48515038 -45.58890658 52.21763394 -49 50 C-48.34 49.67 -47.68 49.34 -47 49 C-45.32986582 49.65793165 -43.6642135 50.32723284 -42 51 C-40.64325257 51.32598523 -39.28039175 51.62700553 -37.9140625 51.91015625 C-33.03260354 52.96532633 -28.24158855 54.26483007 -23.4375 55.625 C-22.61958984 55.85445312 -21.80167969 56.08390625 -20.95898438 56.3203125 C-18.9720488 56.8780488 -16.98593489 57.43871096 -15 58 C-14.67 57.67 -14.34 57.34 -14 57 C-14.825 56.21625 -15.65 55.4325 -16.5 54.625 C-19 52 -19 52 -19 50 C-19.556875 49.773125 -20.11375 49.54625 -20.6875 49.3125 C-23.63246684 47.64103234 -25.68156544 45.44723648 -28 43 C-27.505 42.01 -27.505 42.01 -27 41 C-26.29101562 41.45117188 -25.58203125 41.90234375 -24.8515625 42.3671875 C-22.06222753 43.96436835 -19.40384247 45.06532233 -16.375 46.125 C-15.43398437 46.45757812 -14.49296875 46.79015625 -13.5234375 47.1328125 C-11.68544037 47.76444619 -9.84376655 48.38541115 -8 49 C-8.62648438 48.33613281 -9.25296875 47.67226562 -9.8984375 46.98828125 C-10.71570313 46.10527344 -11.53296875 45.22226563 -12.375 44.3125 C-13.18710938 43.44238281 -13.99921875 42.57226562 -14.8359375 41.67578125 C-16.88977509 39.13628893 -17.9900668 37.07974134 -19 34 C-19.66 34 -20.32 34 -21 34 C-22.84847311 31.8270767 -24.5921349 29.64597332 -26.3125 27.375 C-27.26605123 26.13214003 -28.22047237 24.88994698 -29.17578125 23.6484375 C-29.64193848 23.03838867 -30.1080957 22.42833984 -30.58837891 21.79980469 C-31.9654262 20.0440813 -33.39851253 18.35365924 -34.85546875 16.6640625 C-37 14 -37 14 -37 12 C-37.66 12 -38.32 12 -39 12 C-39 11.34 -39 10.68 -39 10 C-39.66 10 -40.32 10 -41 10 C-41.66 8.68 -42.32 7.36 -43 6 C-39.55220914 7.50006391 -37.17639467 9.50409262 -34.4375 12.0625 C-30.08565605 16.05221971 -25.60543902 19.81224502 -21.015625 23.5234375 C-16.84340169 26.94984887 -12.75974477 30.47616054 -8.68261719 34.01489258 C-6.18896248 36.17002122 -3.74634714 38.16910191 -1 40 C-1 40.66 -1 41.32 -1 42 C-0.34 42 0.32 42 1 42 C0.72212646 41.37432129 0.44425293 40.74864258 0.15795898 40.10400391 C-1.09030711 37.28117564 -2.32652643 34.45323075 -3.5625 31.625 C-4.21895508 30.14773437 -4.21895508 30.14773437 -4.88867188 28.640625 C-5.29794922 27.69960937 -5.70722656 26.75859375 -6.12890625 25.7890625 C-6.51119385 24.91975098 -6.89348145 24.05043945 -7.28735352 23.15478516 C-8 21 -8 21 -7 19 C-2.59325637 23.28619441 1.55477835 27.69879905 5.51953125 32.3984375 C6.92784878 34.11110323 6.92784878 34.11110323 9 35 C8.76289307 34.08186523 8.52578613 33.16373047 8.28149414 32.21777344 C7.39986136 28.80357975 6.5183659 25.38935067 5.63696289 21.97509766 C5.25583288 20.49884651 4.87464851 19.02260939 4.4934082 17.54638672 C3.94468036 15.42158659 3.39614952 13.29673569 2.84765625 11.171875 C2.51773682 9.8940918 2.18781738 8.61630859 1.84790039 7.29980469 C1.22317228 4.86852764 0.60376729 2.43653646 0 0 Z " fill="#F9E401" transform="translate(159,159)"/>
<path d="M0 0 C4.41268355 3.53453757 7.23183936 8.44551809 9 13.75 C9.09014813 16.12644017 9.11756299 18.50539895 9.11352539 20.88354492 C9.11367142 21.60574722 9.11381744 22.32794952 9.1139679 23.07203674 C9.11327145 25.45821134 9.1054916 27.84430779 9.09765625 30.23046875 C9.09579112 31.8852789 9.09436766 33.54008961 9.09336853 35.19490051 C9.08955085 39.54981003 9.07972695 43.90468618 9.06866455 48.25958252 C9.05843433 52.70364938 9.05386745 57.14772163 9.04882812 61.59179688 C9.03810402 70.31121323 9.02103657 79.03060246 9 87.75 C11.97 87.75 14.94 87.75 18 87.75 C18 89.4 18 91.05 18 92.75 C9.42 92.75 0.84 92.75 -8 92.75 C-8.495 85.325 -8.495 85.325 -9 77.75 C-9.78375 79.090625 -10.5675 80.43125 -11.375 81.8125 C-15.79828751 88.47369781 -22.36659165 93.29805671 -30 95.75 C-38.93349586 96.65154545 -47.91152998 96.24130041 -55.4765625 91.05078125 C-61.57824609 85.99254518 -65.53730672 81.39307328 -66.3359375 73.37890625 C-66.59228019 64.06183525 -65.45487435 57.43621535 -58.96557617 50.48022461 C-51.45435507 43.86837217 -40.81239068 42.37176983 -31.3125 40.625 C-19.92200509 38.50039231 -19.92200509 38.50039231 -9 34.75 C-8.91234931 30.72930575 -8.85938982 26.7088599 -8.8125 22.6875 C-8.78736328 21.55376953 -8.76222656 20.42003906 -8.73632812 19.25195312 C-8.62540731 10.54773213 -8.62540731 10.54773213 -12 2.75 C-16.30487036 -0.25482404 -19.94701317 -0.65855067 -25.125 -0.625 C-26.32382812 -0.63273438 -27.52265625 -0.64046875 -28.7578125 -0.6484375 C-32.21210874 -0.22393362 -33.43558271 0.51647527 -36 2.75 C-36.66 2.75 -37.32 2.75 -38 2.75 C-38.27070312 3.43707031 -38.54140625 4.12414062 -38.8203125 4.83203125 C-40.123672 8.05590392 -41.49528497 11.24556859 -42.875 14.4375 C-45.34543445 20.17151635 -47.72281868 25.93649003 -50 31.75 C-51.32 31.75 -52.64 31.75 -54 31.75 C-54 21.52 -54 11.29 -54 0.75 C-36.73294811 -6.92424528 -17.08942338 -10.8416772 0 0 Z " fill="#070707" transform="translate(628,162.25)"/>
<path d="M0 0 C4.31105315 3.31969283 7.22981407 7.38429124 8.7890625 12.61328125 C9.33809079 18.34680211 9.25547486 24.04674312 9.1796875 29.80078125 C9.17221733 31.47085896 9.16652807 33.14094551 9.16253662 34.81103516 C9.14734122 39.18419037 9.10811302 43.55680525 9.0637207 47.92974854 C9.0226356 52.40100803 9.00449747 56.87235573 8.984375 61.34375 C8.94161193 70.10050702 8.87343578 78.85682672 8.7890625 87.61328125 C11.7590625 87.61328125 14.7290625 87.61328125 17.7890625 87.61328125 C17.7890625 89.26328125 17.7890625 90.91328125 17.7890625 92.61328125 C9.2090625 92.61328125 0.6290625 92.61328125 -8.2109375 92.61328125 C-8.5409375 87.99328125 -8.8709375 83.37328125 -9.2109375 78.61328125 C-10.0771875 79.83015625 -10.9434375 81.04703125 -11.8359375 82.30078125 C-16.70599009 88.73742418 -22.34406409 93.47193434 -30.2109375 95.61328125 C-40.71158472 96.82914567 -49.54753223 95.34244331 -58.0859375 88.98828125 C-64.23384699 83.11651899 -65.63179945 75.81214273 -65.8359375 67.55078125 C-65.77896166 61.64451415 -64.96538195 57.09535809 -61.1640625 52.44140625 C-52.69083712 44.5104673 -42.85842834 42.59652144 -31.765625 40.65234375 C-30.79141602 40.48041504 -29.81720703 40.30848633 -28.81347656 40.13134766 C-26.86160905 39.79173935 -24.90783179 39.4628923 -22.95214844 39.14599609 C-17.83999675 38.27651498 -13.69254583 37.25128482 -9.2109375 34.61328125 C-9.09442025 30.23850651 -9.0235775 25.86413298 -8.9609375 21.48828125 C-8.92742187 20.25078125 -8.89390625 19.01328125 -8.859375 17.73828125 C-8.57322623 10.52108073 -8.57322623 10.52108073 -10.9140625 3.87109375 C-14.97702024 -0.12276607 -18.56966949 -0.67767911 -24.1484375 -0.69921875 C-28.92707045 -0.58795156 -32.33190149 -0.41425905 -36.2109375 2.61328125 C-42.84335901 10.48540772 -46.57638512 21.8117475 -49.2109375 31.61328125 C-50.8609375 31.61328125 -52.5109375 31.61328125 -54.2109375 31.61328125 C-54.2109375 21.38328125 -54.2109375 11.15328125 -54.2109375 0.61328125 C-36.41363665 -7.29663024 -17.45140941 -10.94567198 0 0 Z " fill="#070707" transform="translate(438.2109375,162.38671875)"/>
<path d="M0 0 C5.56727683 4.6321483 8.48552872 9.91834336 10 17 C10.40708045 22.69202104 10.35028197 28.36301665 10.29296875 34.06640625 C10.28736446 35.71263744 10.2830983 37.35887368 10.28010559 39.00511169 C10.26872229 43.31074147 10.23931229 47.61606138 10.20599365 51.92156982 C10.17515125 56.3259258 10.16157015 60.73033248 10.14648438 65.13476562 C10.11443543 73.75665166 10.06331929 82.37828714 10 91 C13.3 91 16.6 91 20 91 C20 92.65 20 94.3 20 96 C7.13 96 -5.74 96 -19 96 C-19 94.35 -19 92.7 -19 91 C-15.37 91 -11.74 91 -8 91 C-8.06130569 81.08116027 -8.13847998 71.16258161 -8.23571491 61.24402523 C-8.28037451 56.63804321 -8.3196403 52.03214873 -8.34643555 47.42602539 C-8.37251261 42.97788623 -8.412946 38.53008478 -8.46318626 34.08215523 C-8.47982526 32.38821182 -8.49135798 30.69421003 -8.49761391 29.00019646 C-8.50728752 26.62078624 -8.53538437 24.24223422 -8.56762695 21.86303711 C-8.56619186 21.16819717 -8.56475677 20.47335724 -8.5632782 19.75746155 C-8.6584571 14.7661883 -9.75674036 11.37189294 -12 7 C-16.23418903 3.78201633 -21.95631758 4.3141735 -27 5 C-32.60853167 7.30093607 -35.6501349 11.59446943 -38 17 C-40.50716553 24.61561452 -40.34982688 32.28461606 -40.4140625 40.21875 C-40.43279991 41.68706316 -40.45237519 43.15536584 -40.4727478 44.62365723 C-40.52380366 48.46384469 -40.56357029 52.30406696 -40.60089111 56.14440918 C-40.64109846 60.07292096 -40.69211396 64.00129128 -40.7421875 67.9296875 C-40.83863188 75.61969417 -40.92313599 83.30977002 -41 91 C-37.37 91 -33.74 91 -30 91 C-30 92.65 -30 94.3 -30 96 C-42.87 96 -55.74 96 -69 96 C-69 94.35 -69 92.7 -69 91 C-65.7 91 -62.4 91 -59 91 C-59 62.29 -59 33.58 -59 4 C-62.3 4 -65.6 4 -69 4 C-69 2.68 -69 1.36 -69 0 C-60.09 0 -51.18 0 -42 0 C-41.67 3.3 -41.34 6.6 -41 10 C-40.195625 8.948125 -39.39125 7.89625 -38.5625 6.8125 C-29.56705147 -3.72136253 -12.20262291 -7.10230787 0 0 Z " fill="#050505" transform="translate(532,159)"/>
<path d="M0 0 C9.45662414 5.90200656 14.81929419 13.38283295 18.01171875 24.0859375 C19.19795096 29.40353017 19.203125 33.75070287 19.203125 39.375 C0.723125 39.375 -17.756875 39.375 -36.796875 39.375 C-37.21880208 66.00775822 -37.21880208 66.00775822 -25.54296875 89.02734375 C-19.80887896 93.45298352 -13.79905765 93.03992004 -6.796875 92.375 C-0.09261352 90.56436004 4.78905129 87.23462683 8.5078125 81.2890625 C12.144994 74.63883124 13.77574881 67.7787887 15.203125 60.375 C16.523125 60.375 17.843125 60.375 19.203125 60.375 C19.52358829 67.10472909 18.7483824 72.14799817 16.203125 78.375 C15.790625 79.385625 15.378125 80.39625 14.953125 81.4375 C9.96497219 89.81047079 3.88259789 95.51771124 -5.609375 98.125 C-16.66662178 100.58367527 -26.66327791 99.6809543 -36.60546875 93.6796875 C-48.29049355 84.89368712 -54.41671584 72.57562986 -56.796875 58.375 C-58.47185385 39.9612402 -55.95094837 23.68232802 -43.91796875 9.09765625 C-33.18938993 -2.54122623 -14.60751986 -7.1547036 0 0 Z " fill="#090909" transform="translate(859.796875,158.625)"/>
<path d="M0 0 C0.71671875 0.40089844 1.4334375 0.80179688 2.171875 1.21484375 C8.24054796 5.15035535 11.08583475 10.51802496 14 17 C14.34160156 17.75539062 14.68320312 18.51078125 15.03515625 19.2890625 C17.64291907 25.96008368 17 30.18847074 17 38 C-1.48 38 -19.96 38 -39 38 C-38.77545381 64.85179808 -38.77545381 64.85179808 -27 88 C-21.44795467 92.22885256 -15.69353372 91.67792484 -9 91 C-1.23789238 89.29298048 3.5668498 85.51351119 8 79 C11.52519282 72.80052298 12.10833041 65.97600323 13 59 C14.65 59 16.3 59 18 59 C18.63355345 68.66169018 16.11687217 77.35390978 10 85 C1.66097503 94.30534975 -6.39694555 97.71073584 -18.8125 98.4375 C-29.06263548 98.14785724 -37.66778183 93.44241318 -44.84765625 86.37890625 C-57.72856222 72.14211544 -58.74826915 55.24457258 -58.17919922 36.8984375 C-57.56829174 27.01738358 -54.11566605 18.73263535 -48 11 C-47.236875 9.948125 -46.47375 8.89625 -45.6875 7.8125 C-42.16867244 4.13000604 -38.39971576 1.53657082 -34 -1 C-33.11054687 -1.51626953 -33.11054687 -1.51626953 -32.203125 -2.04296875 C-22.54730216 -6.59316845 -9.01783312 -5.17390066 0 0 Z " fill="#070707" transform="translate(772,160)"/>
<path d="M0 0 C217.8 0 435.6 0 660 0 C660 1.65 660 3.3 660 5 C442.2 5 224.4 5 0 5 C0 3.35 0 1.7 0 0 Z " fill="#1FD658" transform="translate(221,273)"/>
<path d="M0 0 C5.94 0 11.88 0 18 0 C18 7.59 18 15.18 18 23 C25.26 23 32.52 23 40 23 C40 24.32 40 25.64 40 27 C32.74 27 25.48 27 18 27 C18.08557067 37.19682328 18.17935677 47.39348072 18.28752708 57.5900898 C18.33743044 62.32500413 18.38376101 67.0598968 18.421875 71.79492188 C18.4588031 76.36618111 18.50518347 80.93725644 18.55806351 85.508358 C18.57656749 87.25058637 18.59169015 88.9928541 18.60334396 90.73514175 C18.62027496 93.1792501 18.64932608 95.62294092 18.68115234 98.06689453 C18.68331253 98.78403122 18.68547272 99.50116791 18.68769836 100.24003601 C18.78366295 107.14180173 18.78366295 107.14180173 22 113 C23.93208837 113.17830165 25.87271372 113.26793417 27.8125 113.3125 C28.87082031 113.34988281 29.92914062 113.38726562 31.01953125 113.42578125 C34.04421371 113.22255717 34.04421371 113.22255717 36.26171875 111.41796875 C40.62633974 105.34673191 40.38854553 98.2694352 40.625 91.0625 C40.66367187 90.09248047 40.70234375 89.12246094 40.7421875 88.12304688 C40.83575076 85.74887924 40.92149208 83.37470508 41 81 C42.32 81 43.64 81 45 81 C45.08789644 84.83318619 45.14069087 88.66610928 45.1875 92.5 C45.21263672 93.57765625 45.23777344 94.6553125 45.26367188 95.765625 C45.33508725 103.57370586 44.84335709 109.6328666 39.625 115.8125 C33.01648384 121.3195968 27.65510785 122.4330941 19.1796875 122.33984375 C13.51886369 121.73481713 8.49673029 119.67312972 4.5625 115.4609375 C-1.41911076 106.18064434 -0.26831069 93.8299272 -0.1953125 83.2734375 C-0.19157503 81.6734739 -0.18873153 80.07350798 -0.18673706 78.47354126 C-0.17915834 74.29459132 -0.15956046 70.11578389 -0.1373291 65.93688965 C-0.11674545 61.65976895 -0.10770876 57.38262487 -0.09765625 53.10546875 C-0.07630821 44.7369143 -0.04224325 36.36847496 0 28 C-3.96 28 -7.92 28 -12 28 C-12 26.02 -12 24.04 -12 22 C-8.04 22 -4.08 22 0 22 C0 14.74 0 7.48 0 0 Z " fill="#080808" transform="translate(662,136)"/>
<path d="M0 0 C5.24307084 1.83605664 9.02292389 4.19087706 12 9 C15.28034131 17.00545389 15.5399372 28.30056068 13 36.625 C10.11691568 41.49020479 6.10136476 45.44931762 1 48 C-6.25650558 48.59479554 -6.25650558 48.59479554 -12 44 C-12.33 49.28 -12.66 54.56 -13 60 C-11.35 60 -9.7 60 -8 60 C-8 60.66 -8 61.32 -8 62 C-13.94 62 -19.88 62 -26 62 C-26 61.34 -26 60.68 -26 60 C-24.68 60 -23.36 60 -22 60 C-22 41.52 -22 23.04 -22 4 C-23.32 4 -24.64 4 -26 4 C-26 3.01 -26 2.02 -26 1 C-21.71 1 -17.42 1 -13 1 C-12.67 1.99 -12.34 2.98 -12 4 C-11.319375 3.34 -10.63875 2.68 -9.9375 2 C-6.19567052 -0.54762858 -4.46337052 -0.60520278 0 0 Z " fill="#040404" transform="translate(754,313)"/>
<path d="M0 0 C5.61 0 11.22 0 17 0 C19.54801307 6.06251385 21.63007564 11.9882066 23.2890625 18.34765625 C25.12237802 25.18733338 27.63586017 31.8020479 30.1328125 38.421875 C30.97976181 40.9398324 31.50330836 43.39413696 32 46 C35.9926199 36.66107759 39.07127714 27.01133047 42.25 17.375 C42.80961474 15.68610475 43.36950834 13.99730187 43.9296875 12.30859375 C45.2901941 8.20694811 46.6449598 4.1034708 48 0 C53.61 0 59.22 0 65 0 C65 0.99 65 1.98 65 3 C63.35 3 61.7 3 60 3 C60 21.48 60 39.96 60 59 C61.65 59 63.3 59 65 59 C65 59.66 65 60.32 65 61 C57.41 61 49.82 61 42 61 C42 60.67 42 60.34 42 60 C44.64 60 47.28 60 50 60 C49.67 42.51 49.34 25.02 49 7 C46.7725 13.496875 44.545 19.99375 42.25 26.6875 C41.20827637 29.72070435 41.20827637 29.72070435 40.14550781 32.81518555 C36.94184267 42.16659701 33.80670595 51.5201849 31 61 C29.68 61 28.36 61 27 61 C21.18044245 43.71475789 15.58363597 26.36281321 10 9 C9.67 25.5 9.34 42 9 59 C11.31 59 13.62 59 16 59 C16 59.66 16 60.32 16 61 C10.72 61 5.44 61 0 61 C0 60.34 0 59.68 0 59 C1.98 59 3.96 59 6 59 C6 40.52 6 22.04 6 3 C4.02 3 2.04 3 0 3 C0 2.01 0 1.02 0 0 Z " fill="#121212" transform="translate(221,298)"/>
<path d="M0 0 C5.09589658 2.45679511 7.89269646 5.46277114 10.48046875 10.546875 C12.69149549 17.53719536 12.89992497 28.25161402 9.8125 35.0625 C6.62288444 40.11367056 1.8336028 44.01103816 -3.625 46.375 C-9.60071807 47.06450593 -13.74272704 45.67438868 -18.625 42.375 C-24.86956082 36.40797522 -26.75522225 29.75201122 -27 21.3125 C-26.79383874 13.94692044 -25.06098983 7.66407119 -19.625 2.375 C-13.07106341 -1.98952109 -7.44793412 -2.92993111 0 0 Z " fill="#F7F7F7" transform="translate(672.625,314.625)"/>
<path d="M0 0 C4.47375937 3.10531533 7.63977619 6.77575181 9.75 11.8125 C11.41975122 21.89377994 10.62285726 29.06678548 6.125 38.0625 C1.93465905 42.91447374 -3.2822063 45.99614328 -9.75 46.5625 C-15.50708172 46.18944917 -19.4632235 42.95594683 -23.25 38.8125 C-27.5388465 31.98342762 -29.25491407 23.82350514 -28.25 15.8125 C-26.47979496 9.27791454 -23.84626819 3.81383176 -18.25 -0.1875 C-12.00418455 -3.17462913 -5.95548115 -3.52015428 0 0 Z " fill="#0F0F0F" transform="translate(428.25,315.1875)"/>
<path d="M0 0 C1.05121059 30.02823485 1.05121059 30.02823485 -8.4921875 41.41796875 C-13.26805538 46.42891821 -17.55429173 49.04801111 -24.5 49.3125 C-29.4418684 49.18936374 -32.2430355 47.82203726 -35.6875 44.25 C-39.85979124 37.09750073 -39.75440179 29.07489326 -39 21 C-37.46502967 15.59856388 -34.78840653 12.00667387 -30 9 C-25.03006148 6.67782848 -20.21093045 5.16304924 -14.875 3.9375 C-10.08893797 2.82373416 -4.79089004 0 0 0 Z " fill="#F9F9F9" transform="translate(620,202)"/>
<path d="M0 0 C1.11168391 31.47775753 1.11168391 31.47775753 -8.171875 42.37890625 C-12.71139795 46.40433792 -18.13364154 49.19926798 -24.25 49.5625 C-29.4190113 48.78714831 -32.38876733 46.83347166 -35.8125 42.9375 C-38.39401965 38.72554689 -38.21732772 34.52832154 -38.25 29.75 C-38.270625 29.01136719 -38.29125 28.27273437 -38.3125 27.51171875 C-38.35850539 20.99045522 -36.96272807 16.39888986 -32.75 11.25 C-27.28478791 6.77846284 -21.01216386 5.37136197 -14.25 3.9375 C-9.42667909 2.91099837 -4.61100728 0 0 0 Z " fill="#FBFBFB" transform="translate(430,202)"/>
<path d="M0 0 C6.93 0 13.86 0 21 0 C21 0.99 21 1.98 21 3 C19.02 3 17.04 3 15 3 C15 11.58 15 20.16 15 29 C22.59 29 30.18 29 38 29 C38 20.42 38 11.84 38 3 C36.02 3 34.04 3 32 3 C32 2.01 32 1.02 32 0 C38.93 0 45.86 0 53 0 C53 0.99 53 1.98 53 3 C51.35 3 49.7 3 48 3 C48 21.48 48 39.96 48 59 C49.65 59 51.3 59 53 59 C53 59.66 53 60.32 53 61 C46.07 61 39.14 61 32 61 C32 60.34 32 59.68 32 59 C33.98 59 35.96 59 38 59 C38 49.76 38 40.52 38 31 C30.41 31 22.82 31 15 31 C15 40.24 15 49.48 15 59 C16.98 59 18.96 59 21 59 C21 59.66 21 60.32 21 61 C14.07 61 7.14 61 0 61 C0 60.34 0 59.68 0 59 C1.65 59 3.3 59 5 59 C5 40.52 5 22.04 5 3 C3.35 3 1.7 3 0 3 C0 2.01 0 1.02 0 0 Z " fill="#0E0E0E" transform="translate(588,298)"/>
<path d="M0 0 C4.75014447 2.62919519 4.75014447 2.62919519 6.0234375 5.17578125 C6.7865625 4.37140625 7.5496875 3.56703125 8.3359375 2.73828125 C12.02641218 -0.78054345 14.91121837 -1.17442231 19.95703125 -1.109375 C23.37684006 -0.63745431 25.4500322 0.97000527 28.0234375 3.17578125 C30.67983674 6.92109022 30.27801192 11.03914161 30.21875 15.44140625 C30.2159201 16.23480408 30.21309021 17.0282019 30.21017456 17.84564209 C30.19900529 20.37251042 30.17390694 22.89902057 30.1484375 25.42578125 C30.13840348 27.14192195 30.12927837 28.85806823 30.12109375 30.57421875 C30.09907664 34.77487699 30.06456937 38.97526845 30.0234375 43.17578125 C31.6734375 43.17578125 33.3234375 43.17578125 35.0234375 43.17578125 C35.0234375 43.83578125 35.0234375 44.49578125 35.0234375 45.17578125 C29.0834375 45.17578125 23.1434375 45.17578125 17.0234375 45.17578125 C17.0234375 44.51578125 17.0234375 43.85578125 17.0234375 43.17578125 C18.3434375 43.17578125 19.6634375 43.17578125 21.0234375 43.17578125 C20.90550038 37.78214888 20.78127569 32.38871278 20.65112305 26.99536133 C20.6077093 25.15913878 20.56603911 23.32287417 20.52612305 21.48657227 C20.46857581 18.85289814 20.40483752 16.21943704 20.33984375 13.5859375 C20.32313126 12.75989517 20.30641876 11.93385284 20.28919983 11.08277893 C20.54536317 7.32101372 20.54536317 7.32101372 19.0234375 4.17578125 C15.64986416 3.67507804 15.64986416 3.67507804 12.0234375 4.17578125 C8.96885816 7.00143721 8.09055502 8.72225775 7.47753906 12.86450195 C7.43661599 14.27642102 7.41647991 15.68905257 7.4140625 17.1015625 C7.39752625 17.84915329 7.38098999 18.59674408 7.36395264 19.36698914 C7.31559827 21.74083777 7.29413114 24.11404647 7.2734375 26.48828125 C7.24526707 28.1035476 7.21533813 29.71878431 7.18359375 31.33398438 C7.10984355 35.28119727 7.06019293 39.22805756 7.0234375 43.17578125 C8.6734375 43.17578125 10.3234375 43.17578125 12.0234375 43.17578125 C12.0234375 43.83578125 12.0234375 44.49578125 12.0234375 45.17578125 C6.0834375 45.17578125 0.1434375 45.17578125 -5.9765625 45.17578125 C-5.9765625 44.51578125 -5.9765625 43.85578125 -5.9765625 43.17578125 C-4.6565625 43.17578125 -3.3365625 43.17578125 -1.9765625 43.17578125 C-2.09464653 37.94287428 -2.21888286 32.71016374 -2.34887695 27.47753906 C-2.3922458 25.69665522 -2.43391944 23.91572927 -2.47387695 22.13476562 C-2.5315324 19.57799577 -2.5952402 17.02143827 -2.66015625 14.46484375 C-2.67686874 13.66583649 -2.69358124 12.86682922 -2.71080017 12.04360962 C-2.73049241 7.97771757 -2.73049241 7.97771757 -3.9765625 4.17578125 C-6.9465625 4.17578125 -9.9165625 4.17578125 -12.9765625 4.17578125 C-14.59492372 9.19270104 -15.26251823 13.54294389 -15.390625 18.859375 C-15.40999115 19.5597438 -15.4293573 20.26011261 -15.4493103 20.98170471 C-15.50851141 23.19211106 -15.55524975 25.4025712 -15.6015625 27.61328125 C-15.63979726 29.12306806 -15.67885208 30.63283435 -15.71875 32.14257812 C-15.8141622 35.82012324 -15.89840949 39.49782419 -15.9765625 43.17578125 C-14.6565625 43.17578125 -13.3365625 43.17578125 -11.9765625 43.17578125 C-11.9765625 43.83578125 -11.9765625 44.49578125 -11.9765625 45.17578125 C-17.5865625 45.17578125 -23.1965625 45.17578125 -28.9765625 45.17578125 C-26.9965625 44.68078125 -26.9965625 44.68078125 -24.9765625 44.17578125 C-24.9765625 30.64578125 -24.9765625 17.11578125 -24.9765625 3.17578125 C-25.9665625 3.17578125 -26.9565625 3.17578125 -27.9765625 3.17578125 C-27.9765625 2.18578125 -27.9765625 1.19578125 -27.9765625 0.17578125 C-24.0165625 0.17578125 -20.0565625 0.17578125 -15.9765625 0.17578125 C-15.6465625 1.16578125 -15.3165625 2.15578125 -14.9765625 3.17578125 C-14.5434375 2.70140625 -14.1103125 2.22703125 -13.6640625 1.73828125 C-9.97978235 -1.67308926 -4.53695362 -1.89189173 0 0 Z " fill="#121212" transform="translate(360.9765625,313.82421875)"/>
<path d="M0 0 C3.39768299 2.0447874 5.29690838 3.64067507 7.5234375 6.98046875 C7.69536823 9.81030074 7.75552187 12.53928748 7.71875 15.3671875 C7.7159201 16.18419632 7.71309021 17.00120514 7.71017456 17.8429718 C7.69898291 20.45145334 7.6738804 23.05959105 7.6484375 25.66796875 C7.63840638 27.436844 7.62928076 29.20572463 7.62109375 30.97460938 C7.59904692 35.31002824 7.5645242 39.6451902 7.5234375 43.98046875 C8.8434375 44.31046875 10.1634375 44.64046875 11.5234375 44.98046875 C7.5634375 44.98046875 3.6034375 44.98046875 -0.4765625 44.98046875 C-0.8065625 43.66046875 -1.1365625 42.34046875 -1.4765625 40.98046875 C-2.4253125 41.78484375 -3.3740625 42.58921875 -4.3515625 43.41796875 C-8.02059695 46.52867187 -9.92385465 47.14189435 -14.7890625 46.79296875 C-19.48285849 46.31375921 -22.24232835 45.63202343 -25.4765625 41.98046875 C-28.23472376 38.30292041 -27.68669209 34.39319023 -27.4765625 29.98046875 C-26.9815625 28.49546875 -26.9815625 28.49546875 -26.4765625 26.98046875 C-25.8165625 26.98046875 -25.1565625 26.98046875 -24.4765625 26.98046875 C-24.4765625 26.32046875 -24.4765625 25.66046875 -24.4765625 24.98046875 C-16.92165738 22.05071224 -9.37177247 19.79926058 -1.4765625 17.98046875 C-1.3955419 15.8769338 -1.33736343 13.77250923 -1.2890625 11.66796875 C-1.25425781 10.49621094 -1.21945312 9.32445312 -1.18359375 8.1171875 C-1.21509016 5.03299841 -1.21509016 5.03299841 -2.7734375 3.08984375 C-5.68746276 1.19171721 -8.11720109 1.56791559 -11.4765625 1.98046875 C-15.77917434 4.68496762 -16.8777548 9.22945735 -18.44921875 13.8359375 C-18.78824219 14.54363281 -19.12726562 15.25132812 -19.4765625 15.98046875 C-20.4665625 16.31046875 -21.4565625 16.64046875 -22.4765625 16.98046875 C-22.4765625 12.03046875 -22.4765625 7.08046875 -22.4765625 1.98046875 C-15.39668585 -1.28716663 -7.49415748 -3.08513423 0 0 Z " fill="#101010" transform="translate(850.4765625,314.01953125)"/>
<path d="M0 0 C3.39768299 2.0447874 5.29690838 3.64067507 7.5234375 6.98046875 C7.69521525 9.7383329 7.75559988 12.39262399 7.71875 15.1484375 C7.7159201 15.94325027 7.71309021 16.73806305 7.71017456 17.55696106 C7.69898455 20.09411713 7.67388241 22.63091947 7.6484375 25.16796875 C7.63840616 26.88866677 7.62928058 28.60937034 7.62109375 30.33007812 C7.59904911 34.54701118 7.56452756 38.76368 7.5234375 42.98046875 C8.8434375 42.98046875 10.1634375 42.98046875 11.5234375 42.98046875 C11.5234375 43.64046875 11.5234375 44.30046875 11.5234375 44.98046875 C7.5634375 44.98046875 3.6034375 44.98046875 -0.4765625 44.98046875 C-0.9715625 42.50546875 -0.9715625 42.50546875 -1.4765625 39.98046875 C-2.1984375 40.76421875 -2.9203125 41.54796875 -3.6640625 42.35546875 C-7.96308962 46.36789406 -11.52834466 47.51345898 -17.48046875 47.3671875 C-21.75273534 46.5394881 -24.28295407 43.55386168 -26.8515625 40.16796875 C-28.11009044 35.76312095 -27.92480647 31.32520066 -26.4765625 26.98046875 C-25.8165625 26.98046875 -25.1565625 26.98046875 -24.4765625 26.98046875 C-24.4765625 26.32046875 -24.4765625 25.66046875 -24.4765625 24.98046875 C-16.92165738 22.05071224 -9.37177247 19.79926058 -1.4765625 17.98046875 C-1.3955419 15.8769338 -1.33736343 13.77250923 -1.2890625 11.66796875 C-1.25425781 10.49621094 -1.21945312 9.32445312 -1.18359375 8.1171875 C-1.21509016 5.03299841 -1.21509016 5.03299841 -2.7734375 3.08984375 C-5.68746276 1.19171721 -8.11720109 1.56791559 -11.4765625 1.98046875 C-14.90305659 4.76735061 -16.50278708 7.7083261 -18.2265625 11.73046875 C-18.65453125 12.7153125 -19.0825 13.70015625 -19.5234375 14.71484375 C-19.83796875 15.4625 -20.1525 16.21015625 -20.4765625 16.98046875 C-21.1365625 16.98046875 -21.7965625 16.98046875 -22.4765625 16.98046875 C-22.4765625 12.03046875 -22.4765625 7.08046875 -22.4765625 1.98046875 C-15.39668585 -1.28716663 -7.49415748 -3.08513423 0 0 Z " fill="#0B0B0B" transform="translate(527.4765625,314.01953125)"/>
<path d="M0 0 C4.54172462 2.42929457 7.19994284 4.98698586 8.984375 9.796875 C9.22800781 10.74691406 9.47164062 11.69695312 9.72265625 12.67578125 C9.97402344 13.60261719 10.22539063 14.52945313 10.484375 15.484375 C11.29552299 21.01283757 11.03515625 26.65062884 11.03515625 32.23828125 C-0.84484375 32.23828125 -12.72484375 32.23828125 -24.96484375 32.23828125 C-24.96484375 22.23666667 -23.86467425 12.69786706 -17.46484375 4.55078125 C-12.22394181 -0.29705304 -7.03089659 -2.7256955 0 0 Z " fill="#F9F9F9" transform="translate(758.96484375,160.76171875)"/>
<path d="M0 0 C5.62345556 2.86477925 9.02186323 6.40793755 11.25 12.3125 C12.3401919 19.12619936 12 26.09963643 12 33 C0.45 33 -11.1 33 -23 33 C-23 21.30349726 -21.98521725 12.12270926 -13.68359375 3.48828125 C-9.21850379 -0.45881684 -5.73459248 -0.79538012 0 0 Z " fill="#FBFBFB" transform="translate(847,160)"/>
<path d="M0 0 C5.3035228 2.70179463 9.09832298 6.29496895 11 12 C11 14.64 11 17.28 11 20 C2.42 20 -6.16 20 -15 20 C-14.51333825 32.33436241 -14.51333825 32.33436241 -9.25 43.0625 C-5.98193847 44.4241923 -3.50618968 44.3690726 0 44 C4.17358841 42.19776864 6.09183106 40.10256322 8 36 C8.71401232 32.80604974 8.71401232 32.80604974 9 30 C9.66 30 10.32 30 11 30 C11.45858928 35.73236598 10.65645061 38.55296547 7 43 C2.37247063 47.17606309 -1.3783898 48.4863954 -7.51953125 48.40625 C-12.78854225 47.54329387 -17.12777233 44.35188931 -20.41796875 40.21875 C-24.88215824 32.86975936 -24.67839427 24.32917412 -24 16 C-22.12079654 9.42278789 -17.90865789 4.91706998 -12.25 1.1875 C-8.02702145 -0.35551139 -4.44422395 -0.71809723 0 0 Z " fill="#0A0A0A" transform="translate(315,313)"/>
<path d="M0 0 C5.09589658 2.45679511 7.89269646 5.46277114 10.48046875 10.546875 C12.69149549 17.53719536 12.89992497 28.25161402 9.8125 35.0625 C6.62288444 40.11367056 1.8336028 44.01103816 -3.625 46.375 C-9.60071807 47.06450593 -13.74272704 45.67438868 -18.625 42.375 C-24.86956082 36.40797522 -26.75522225 29.75201122 -27 21.3125 C-26.79383874 13.94692044 -25.06098983 7.66407119 -19.625 2.375 C-13.07106341 -1.98952109 -7.44793412 -2.92993111 0 0 Z M-14.0625 2.875 C-17.65823608 8.62817772 -17.96296014 15.20571598 -17.875 21.8125 C-17.86750732 22.55532227 -17.86001465 23.29814453 -17.85229492 24.06347656 C-17.7190096 30.86326205 -17.55304641 36.75071461 -13.375 42.4375 C-10.75636226 44.55480999 -10.75636226 44.55480999 -7.625 45 C-3.4611627 44.1325339 -2.13936118 42.79732495 0.375 39.375 C2.39992924 33.32239699 2.71316972 27.14265183 2.6875 20.8125 C2.70361328 20.01392578 2.71972656 19.21535156 2.73632812 18.39257812 C2.74094069 12.73296009 1.71992795 8.53840582 -0.625 3.375 C-3.01786884 0.98213116 -3.71947094 1.05449384 -7 1 C-10.09304796 1.08936575 -11.38119342 1.22496518 -14.0625 2.875 Z " fill="#0C0C0C" transform="translate(672.625,314.625)"/>
<path d="M0 0 C3.69552278 0.02937617 4.35384664 0.06637064 7.1875 2.6875 C10.27716698 8.22315334 9.90657756 13.31551147 9.9375 19.5 C9.958125 20.50804687 9.97875 21.51609375 10 22.5546875 C10.03542756 29.39220598 9.77763745 36.55195926 5.29785156 42.09423828 C3.6875 43.375 3.6875 43.375 0.25 43.8125 C-3.3125 43.375 -3.3125 43.375 -5.625 41.75 C-10.22976942 35.26921341 -9.67906258 27.98554881 -9.6875 20.375 C-9.72423828 18.63089844 -9.72423828 18.63089844 -9.76171875 16.8515625 C-9.78383018 10.40976568 -9.72248541 6.24119079 -5.3125 1.375 C-3.74331508 -0.19418492 -2.17164841 0.09241057 0 0 Z " fill="#F9F9F9" transform="translate(419.3125,315.625)"/>
<path d="M0 0 C0 4.95 0 9.9 0 15 C-0.99 15 -1.98 15 -3 15 C-3.26554688 14.15695312 -3.53109375 13.31390625 -3.8046875 12.4453125 C-4.15789063 11.34960938 -4.51109375 10.25390625 -4.875 9.125 C-5.22304688 8.03445313 -5.57109375 6.94390625 -5.9296875 5.8203125 C-6.81175231 2.91477277 -6.81175231 2.91477277 -9 1 C-11.30313107 0.71852807 -11.30313107 0.71852807 -13.875 0.8125 C-14.73867188 0.81894531 -15.60234375 0.82539063 -16.4921875 0.83203125 C-18.79192226 0.98606333 -20.79283489 1.35838224 -23 2 C-23.103125 3.2375 -23.20625 4.475 -23.3125 5.75 C-23.37050781 6.44609375 -23.42851563 7.1421875 -23.48828125 7.859375 C-22.71516194 11.24873006 -20.87595083 12.1530591 -18 14 C-14.7045294 15.40273932 -11.29967096 16.46975205 -7.8828125 17.53515625 C-2.63269825 19.3281198 -0.09662444 21.35209154 3 26 C4.24498503 30.20665751 3.29618171 33.42957597 1.3125 37.25 C-2.9383312 42.30504251 -6.2001146 44.66886713 -12.734375 45.23828125 C-19.7114334 45.40999642 -24.03863438 44.66853269 -30 41 C-30 35.72 -30 30.44 -30 25 C-29.01 25 -28.02 25 -27 25 C-26.73445312 25.90363281 -26.46890625 26.80726563 -26.1953125 27.73828125 C-25.84210937 28.91777344 -25.48890625 30.09726562 -25.125 31.3125 C-24.77695312 32.48425781 -24.42890625 33.65601563 -24.0703125 34.86328125 C-23.11234547 38.10911725 -23.11234547 38.10911725 -21 41 C-18.24136649 41.4038693 -18.24136649 41.4038693 -15.125 41.25 C-14.07570313 41.23453125 -13.02640625 41.2190625 -11.9453125 41.203125 C-8.79180412 41.07206028 -8.79180412 41.07206028 -5 40 C-4.67 37.03 -4.34 34.06 -4 31 C-8.85442066 28.13509601 -13.39435852 25.77310247 -18.75 24 C-23.40565559 22.38943007 -25.99592763 20.90529408 -29 17 C-30.24671635 13.25985095 -30.63901999 9.87819029 -30 6 C-23.26899578 -4.81040072 -10.58962541 -5.2948127 0 0 Z " fill="#0B0B0B" transform="translate(720,316)"/>
<path d="M0 0 C5.61 0 11.22 0 17 0 C17 0.99 17 1.98 17 3 C15.35 3 13.7 3 12 3 C12 21.48 12 39.96 12 59 C13.65 59 15.3 59 17 59 C17 59.66 17 60.32 17 61 C9.41 61 1.82 61 -6 61 C-6 60.67 -6 60.34 -6 60 C-3.36 60 -0.72 60 2 60 C2 41.52 2 23.04 2 4 C1.34 4 0.68 4 0 4 C0 2.68 0 1.36 0 0 Z " fill="#0B0B0B" transform="translate(269,298)"/>
<path d="M0 0 C3.625 0.375 3.625 0.375 5.9375 1.875 C9.73991727 7.50821077 9.96057974 14.21685427 9.875 20.8125 C9.86968262 21.55387207 9.86436523 22.29524414 9.85888672 23.05908203 C9.74466364 29.65076573 9.38120464 35.74069304 5.625 41.375 C2.96615397 42.38789373 0.45376494 42.63879356 -2.375 42.375 C-6.53246827 38.98338115 -7.4250447 34.46121902 -8.375 29.375 C-8.65349037 26.57597477 -8.70873875 23.81155976 -8.6875 21 C-8.68476074 20.26193115 -8.68202148 19.5238623 -8.67919922 18.76342773 C-8.3391518 0.92657242 -8.3391518 0.92657242 0 0 Z " fill="#F7F7F7" transform="translate(749.375,315.625)"/>
<path d="M0 0 C2.97 0 5.94 0 9 0 C9 3.3 9 6.6 9 10 C12.3 10 15.6 10 19 10 C19 10.99 19 11.98 19 13 C15.7 13 12.4 13 9 13 C9.33 26.2 9.66 39.4 10 53 C16.4 52.8 16.4 52.8 18 51 C18.23481693 48.81707226 18.41363323 46.62796826 18.5625 44.4375 C18.64628906 43.23996094 18.73007812 42.04242188 18.81640625 40.80859375 C18.90728516 39.41833984 18.90728516 39.41833984 19 38 C19.99 38 20.98 38 22 38 C22.38058964 45.13253177 22.26451052 50.23325709 17.375 55.875 C13.61807872 57.65459429 10.06703755 57.77570948 6 57 C3.03077043 54.83493677 1.39349904 53.38632739 0.38110352 49.81958008 C-0.10409493 46.22985756 -0.12363854 42.68819066 -0.09765625 39.07421875 C-0.0962413 38.32662796 -0.09482635 37.57903717 -0.09336853 36.80879211 C-0.08779764 34.43498635 -0.0752506 32.06127697 -0.0625 29.6875 C-0.05748123 28.07226699 -0.05291899 26.4570325 -0.04882812 24.84179688 C-0.03783775 20.89449445 -0.02059332 16.94726353 0 13 C-1.65 13 -3.3 13 -5 13 C-5 12.01 -5 11.02 -5 10 C-3.35 10 -1.7 10 0 10 C0 6.7 0 3.4 0 0 Z " fill="#101010" transform="translate(799,304)"/>
<path d="M0 0 C4.29 0 8.58 0 13 0 C13 19.47 13 38.94 13 59 C14.65 59 16.3 59 18 59 C18 59.66 18 60.32 18 61 C12.39 61 6.78 61 1 61 C2.485 60.505 2.485 60.505 4 60 C4 41.19 4 22.38 4 3 C2.68 3 1.36 3 0 3 C0 2.01 0 1.02 0 0 Z " fill="#0F0F0F" transform="translate(543,298)"/>
<path d="M0 0 C3.4375 0.375 3.4375 0.375 7.4375 1.375 C7.4375 7.315 7.4375 13.255 7.4375 19.375 C6.4475 19.375 5.4575 19.375 4.4375 19.375 C2.7875 14.755 1.1375 10.135 -0.5625 5.375 C-2.2125 5.375 -3.8625 5.375 -5.5625 5.375 C-9.31158177 13.094289 -9.11744285 20.96954156 -9.25 29.375 C-9.28322553 30.83206099 -9.31771991 32.28909363 -9.35351562 33.74609375 C-9.4378193 37.28885474 -9.50490852 40.83169235 -9.5625 44.375 C-7.5825 44.375 -5.6025 44.375 -3.5625 44.375 C-3.5625 45.035 -3.5625 45.695 -3.5625 46.375 C-9.8325 46.375 -16.1025 46.375 -22.5625 46.375 C-20.5825 45.88 -20.5825 45.88 -18.5625 45.375 C-18.5625 31.845 -18.5625 18.315 -18.5625 4.375 C-19.8825 4.375 -21.2025 4.375 -22.5625 4.375 C-22.5625 3.385 -22.5625 2.395 -22.5625 1.375 C-18.2725 1.375 -13.9825 1.375 -9.5625 1.375 C-9.2325 2.695 -8.9025 4.015 -8.5625 5.375 C-7.881875 4.55 -7.20125 3.725 -6.5 2.875 C-3.5625 0.375 -3.5625 0.375 0 0 Z " fill="#161616" transform="translate(466.5625,312.625)"/>
<path d="M0 0 C4.62 0 9.24 0 14 0 C14 19.8 14 39.6 14 60 C14.99 60.33 15.98 60.66 17 61 C11.72 61 6.44 61 1 61 C1.99 60.34 2.98 59.68 4 59 C4.4775567 56.49939891 4.4775567 56.49939891 4.43237305 53.54052734 C4.45216721 52.39949554 4.47196136 51.25846375 4.49235535 50.08285522 C4.50194023 48.22813095 4.50194023 48.22813095 4.51171875 46.3359375 C4.53864555 44.4424205 4.53864555 44.4424205 4.56611633 42.51065063 C4.61120235 39.15357857 4.64344945 35.79687552 4.66955566 32.43963623 C4.69932615 29.01430927 4.74586835 25.58921519 4.79101562 22.1640625 C4.8761832 15.44281547 4.94443775 8.72155339 5 2 C3.35 2 1.7 2 0 2 C0 1.34 0 0.68 0 0 Z " fill="#0E0E0E" transform="translate(866,298)"/>
<path d="M0 0 C5.24307084 1.83605664 9.02292389 4.19087706 12 9 C15.28034131 17.00545389 15.5399372 28.30056068 13 36.625 C10.11691568 41.49020479 6.10136476 45.44931762 1 48 C-0.875 48.16796875 -0.875 48.16796875 -3 48.1875 C-3.70125 48.20167969 -4.4025 48.21585937 -5.125 48.23046875 C-7 48 -7 48 -9 46 C-5.7 45.34 -2.4 44.68 1 44 C4.93085494 31.85646597 6.42494289 17.89314403 1 6 C-0.93731528 3.63589512 -0.93731528 3.63589512 -4.4375 3.6875 C-7.93013852 3.6456771 -7.93013852 3.6456771 -9.75 5.5 C-10.1625 5.995 -10.575 6.49 -11 7 C-11.99 7 -12.98 7 -14 7 C-14 5.35 -14 3.7 -14 2 C-16.31 2 -18.62 2 -21 2 C-21 20.81 -21 39.62 -21 59 C-21.33 59 -21.66 59 -22 59 C-22 40.85 -22 22.7 -22 4 C-23.32 4 -24.64 4 -26 4 C-26 3.01 -26 2.02 -26 1 C-21.71 1 -17.42 1 -13 1 C-12.67 1.99 -12.34 2.98 -12 4 C-11.319375 3.34 -10.63875 2.68 -9.9375 2 C-6.19567052 -0.54762858 -4.46337052 -0.60520278 0 0 Z " fill="#0B0B0B" transform="translate(754,313)"/>
<path d="M0 0 C3.39768299 2.0447874 5.29690838 3.64067507 7.5234375 6.98046875 C7.69536823 9.81030074 7.75552187 12.53928748 7.71875 15.3671875 C7.7159201 16.18419632 7.71309021 17.00120514 7.71017456 17.8429718 C7.69898291 20.45145334 7.6738804 23.05959105 7.6484375 25.66796875 C7.63840638 27.436844 7.62928076 29.20572463 7.62109375 30.97460938 C7.59904692 35.31002824 7.5645242 39.6451902 7.5234375 43.98046875 C8.8434375 44.31046875 10.1634375 44.64046875 11.5234375 44.98046875 C7.8934375 44.98046875 4.2634375 44.98046875 0.5234375 44.98046875 C0.5234375 42.67046875 0.5234375 40.36046875 0.5234375 37.98046875 C-0.1365625 37.98046875 -0.7965625 37.98046875 -1.4765625 37.98046875 C-0.89741583 31.96720124 -0.25318305 25.97154153 0.5234375 19.98046875 C-0.1365625 19.98046875 -0.7965625 19.98046875 -1.4765625 19.98046875 C-1.44175781 18.93246094 -1.40695312 17.88445312 -1.37109375 16.8046875 C-1.34295313 15.42579728 -1.31565326 14.04688973 -1.2890625 12.66796875 C-1.26392578 11.97767578 -1.23878906 11.28738281 -1.21289062 10.57617188 C-1.14186022 6.57849127 -1.14186022 6.57849127 -2.7734375 3.02734375 C-5.70907778 1.22286761 -8.14090365 1.57082644 -11.4765625 1.98046875 C-15.77917434 4.68496762 -16.8777548 9.22945735 -18.44921875 13.8359375 C-18.78824219 14.54363281 -19.12726562 15.25132812 -19.4765625 15.98046875 C-20.4665625 16.31046875 -21.4565625 16.64046875 -22.4765625 16.98046875 C-22.4765625 12.03046875 -22.4765625 7.08046875 -22.4765625 1.98046875 C-15.39668585 -1.28716663 -7.49415748 -3.08513423 0 0 Z " fill="#020202" transform="translate(850.4765625,314.01953125)"/>
<path d="M0 0 C3.96 0 7.92 0 12 0 C12.01458252 1.29212402 12.02916504 2.58424805 12.04418945 3.91552734 C12.10205022 8.69787633 12.17928317 13.47974839 12.26245117 18.26171875 C12.29575823 20.33358027 12.32377197 22.40553379 12.34643555 24.47753906 C12.37987563 27.45157173 12.43218505 30.42475679 12.48828125 33.3984375 C12.49467117 34.32868744 12.5010611 35.25893738 12.50764465 36.21737671 C12.53733589 37.50848862 12.53733589 37.50848862 12.56762695 38.82568359 C12.57873001 39.58513275 12.58983307 40.34458191 12.60127258 41.12704468 C12.85957248 43.410719 12.85957248 43.410719 16 45 C10.72 45 5.44 45 0 45 C1.98 44.505 1.98 44.505 4 44 C4 30.47 4 16.94 4 3 C2.68 3 1.36 3 0 3 C0 2.01 0 1.02 0 0 Z " fill="#040404" transform="translate(774,314)"/>
<path d="M0 0 C3.96 0 7.92 0 12 0 C12.01458252 1.29212402 12.02916504 2.58424805 12.04418945 3.91552734 C12.10205022 8.69787633 12.17928317 13.47974839 12.26245117 18.26171875 C12.29575823 20.33358027 12.32377197 22.40553379 12.34643555 24.47753906 C12.37987563 27.45157173 12.43218505 30.42475679 12.48828125 33.3984375 C12.49467117 34.32868744 12.5010611 35.25893738 12.50764465 36.21737671 C12.53733589 37.50848862 12.53733589 37.50848862 12.56762695 38.82568359 C12.57873001 39.58513275 12.58983307 40.34458191 12.60127258 41.12704468 C12.85957248 43.410719 12.85957248 43.410719 16 45 C10.72 45 5.44 45 0 45 C1.98 44.505 1.98 44.505 4 44 C4 30.14 4 16.28 4 2 C2.68 2 1.36 2 0 2 C0 1.34 0 0.68 0 0 Z " fill="#040404" transform="translate(478,314)"/>
<path d="M0 0 C0.44384648 7.39744131 0.6882455 13.88489718 -4 20 C-6.94083564 21.96055709 -7.68127952 22.31214545 -11 22.375 C-11.680625 22.40335937 -12.36125 22.43171875 -13.0625 22.4609375 C-15 22 -15 22 -16.72265625 20.2890625 C-18.91925543 16.3526493 -18.6638765 12.37720771 -18 8 C-14.16003237 2.51433196 -6.57842811 0 0 0 Z " fill="#F5F5F5" transform="translate(527,335)"/>
<path d="M0 0 C0.44384648 7.39744131 0.6882455 13.88489718 -4 20 C-6.94083564 21.96055709 -7.68127952 22.31214545 -11 22.375 C-11.680625 22.40335937 -12.36125 22.43171875 -13.0625 22.4609375 C-15 22 -15 22 -16.7578125 20.32421875 C-18.31783291 17.40531265 -18.22207674 15.70803079 -17.875 12.4375 C-17.78992188 11.48746094 -17.70484375 10.53742188 -17.6171875 9.55859375 C-16.93669684 6.73757234 -16.24518517 5.77132699 -14 4 C-9.78590151 1.4414402 -4.91578226 0 0 0 Z " fill="#F5F5F5" transform="translate(850,335)"/>
<path d="M0 0 C2.66315194 2.66315194 2.94426493 4.65344068 3.09765625 8.359375 C3.06510417 10.57291667 3.03255208 12.78645833 3 15 C-2.61 15 -8.22 15 -14 15 C-12.41816729 5.11354558 -11.19652845 -1.26412418 0 0 Z " fill="#F3F3F3" transform="translate(314,316)"/>
<path d="M0 0 C4.68721819 -0.37497746 8.04875802 -0.48459497 12.3125 1.6875 C15.91425097 4.78668107 18.48595612 7.45786837 20 12 C20 14.64 20 17.28 20 20 C11.42 20 2.84 20 -6 20 C-6 19.67 -6 19.34 -6 19 C-0.39 19 5.22 19 11 19 C10.690625 16.710625 10.38125 14.42125 10.0625 12.0625 C9.88847656 10.77472656 9.71445312 9.48695313 9.53515625 8.16015625 C9.33837577 5.14533687 9.33837577 5.14533687 8 4 C5.67182036 3.63239269 3.3381615 3.29758419 1 3 C0.67 2.01 0.34 1.02 0 0 Z " fill="#161616" transform="translate(306,313)"/>
<path d="M0 0 C0.33 0 0.66 0 1 0 C1 39.27 1 78.54 1 119 C0.67 119 0.34 119 0 119 C-0.00423194 118.44100856 -0.00846388 117.88201712 -0.01282406 117.30608654 C-0.11608531 103.71065359 -0.22477832 90.11527343 -0.33933926 76.51993084 C-0.39457498 69.94535199 -0.4479961 63.37076869 -0.49731445 56.79614258 C-0.54494831 50.4548784 -0.59729088 44.11366919 -0.65294075 37.77247047 C-0.67336872 35.34950944 -0.69208106 32.92653332 -0.70907402 30.50354576 C-0.73310812 27.11778676 -0.76316424 23.73213202 -0.79467773 20.34643555 C-0.8004332 19.33799088 -0.80618866 18.3295462 -0.81211853 17.2905426 C-0.82190735 16.36927582 -0.83169617 15.44800903 -0.84178162 14.49882507 C-0.84823417 13.69778697 -0.85468672 12.89674887 -0.8613348 12.07143688 C-0.92578386 9.80238661 -0.92578386 9.80238661 -2 7 C-1.40206327 4.64811553 -0.74118205 2.31074405 0 0 Z " fill="#E4E4E4" transform="translate(329,131)"/>
<path d="M0 0 C0.66 0.33 1.32 0.66 2 1 C2 5.95 2 10.9 2 16 C1.01 16 0.02 16 -1 16 C-1.26554688 15.15695312 -1.53109375 14.31390625 -1.8046875 13.4453125 C-2.15789063 12.34960938 -2.51109375 11.25390625 -2.875 10.125 C-3.22304688 9.03445313 -3.57109375 7.94390625 -3.9296875 6.8203125 C-4.81175231 3.91477277 -4.81175231 3.91477277 -7 2 C-9.89883083 1.75660449 -9.89883083 1.75660449 -13.125 1.875 C-14.76855469 1.90207031 -14.76855469 1.90207031 -16.4453125 1.9296875 C-17.28835938 1.95289063 -18.13140625 1.97609375 -19 2 C-19 1.01 -19 0.02 -19 -1 C-12.56487063 -3.14504312 -6.29190907 -2.18290723 0 0 Z " fill="#161616" transform="translate(718,315)"/>
<path d="M0 0 C0.99 0 1.98 0 3 0 C3.26554688 0.90363281 3.53109375 1.80726563 3.8046875 2.73828125 C4.15789063 3.91777344 4.51109375 5.09726562 4.875 6.3125 C5.39707031 8.07013672 5.39707031 8.07013672 5.9296875 9.86328125 C6.88765453 13.10911725 6.88765453 13.10911725 9 16 C11.42521494 16.58189266 11.42521494 16.58189266 14.125 16.6875 C15.49011719 16.78611328 15.49011719 16.78611328 16.8828125 16.88671875 C17.58148437 16.92410156 18.28015625 16.96148437 19 17 C19.33 17.99 19.66 18.98 20 20 C12.11397658 20.4731614 6.79219135 20.17981006 0 16 C0 10.72 0 5.44 0 0 Z " fill="#202020" transform="translate(690,341)"/>
<path d="M0 0 C-0.99 1.485 -0.99 1.485 -2 3 C-3.11375 2.979375 -4.2275 2.95875 -5.375 2.9375 C-8.91897596 2.68585538 -8.91897596 2.68585538 -11.1875 4.375 C-13.46355838 7.67136041 -14.68339839 11.07622789 -15.97265625 14.85546875 C-16.31167969 15.56316406 -16.65070312 16.27085937 -17 17 C-17.99 17.33 -18.98 17.66 -20 18 C-20 13.05 -20 8.1 -20 3 C-13.19877155 -0.13902852 -7.43378943 -0.33452052 0 0 Z " fill="#171717" transform="translate(848,313)"/>
<path d="M0 0 C-0.99 1.485 -0.99 1.485 -2 3 C-3.11375 2.979375 -4.2275 2.95875 -5.375 2.9375 C-8.96680597 2.62997606 -8.96680597 2.62997606 -11.0546875 4.64453125 C-13.1934832 7.23427785 -14.42899705 9.66765978 -15.75 12.75 C-16.17796875 13.73484375 -16.6059375 14.7196875 -17.046875 15.734375 C-17.36140625 16.48203125 -17.6759375 17.2296875 -18 18 C-18.66 18 -19.32 18 -20 18 C-20 13.05 -20 8.1 -20 3 C-13.19877155 -0.13902852 -7.43378943 -0.33452052 0 0 Z " fill="#161616" transform="translate(525,313)"/>
<path d="M0 0 C0.33 0 0.66 0 1 0 C1 18.48 1 36.96 1 56 C5.95 56.33 10.9 56.66 16 57 C16 57.33 16 57.66 16 58 C8.08 58 0.16 58 -8 58 C-8 57.01 -8 56.02 -8 55 C-5.36 55 -2.72 55 0 55 C-0.33 40.15 -0.66 25.3 -1 10 C-1.99 10.495 -1.99 10.495 -3 11 C-2.01 7.37 -1.02 3.74 0 0 Z " fill="#BFBFBF" transform="translate(270,302)"/>
<path d="M0 0 C0.66 0.33 1.32 0.66 2 1 C0.35102994 9.8110629 -2.67094709 18.12594095 -5.625 26.5625 C-6.14629022 28.06299239 -6.66712738 29.56364226 -7.1875 31.06445312 C-8.45311522 34.71147271 -9.72484962 38.35630393 -11 42 C-11.66 41.67 -12.32 41.34 -13 41 C-10.69049368 31.96068031 -7.79417637 23.14549164 -4.8125 14.3125 C-4.34411798 12.91741271 -3.87601717 11.52223097 -3.40820312 10.12695312 C-2.27536759 6.75020966 -1.13875892 3.37475118 0 0 Z " fill="#222222" transform="translate(268,301)"/>
<path d="M0 0 C4.29 0 8.58 0 13 0 C13.33 1.65 13.66 3.3 14 5 C13.01 5.495 13.01 5.495 12 6 C12 4.35 12 2.7 12 1 C9.69 1 7.38 1 5 1 C5 19.81 5 38.62 5 58 C4.67 58 4.34 58 4 58 C4 39.85 4 21.7 4 3 C2.68 3 1.36 3 0 3 C0 2.01 0 1.02 0 0 Z " fill="#5F5F5F" transform="translate(728,314)"/>
<path d="M0 0 C3 0.25 3 0.25 5 2.25 C5.38286803 5.98296326 5.14915785 7.02626323 3 10.25 C0.69 9.92 -1.62 9.59 -4 9.25 C-4.625 5.875 -4.625 5.875 -5 2.25 C-3 0.25 -3 0.25 0 0 Z " fill="#0B0B0B" transform="translate(486,299.75)"/>
<path d="M0 0 C3 0.25 3 0.25 5 2.25 C5.3633156 5.08386167 5.3568671 6.65522151 3.875 9.125 C1.07848948 10.80290631 -0.93690532 9.99875648 -4 9.25 C-4.625 5.875 -4.625 5.875 -5 2.25 C-3 0.25 -3 0.25 0 0 Z " fill="#0A0A0A" transform="translate(782,299.75)"/>
<path d="M0 0 C0.99 0 1.98 0 3 0 C3.58079748 10.88457503 3.58079748 10.88457503 0 16 C-2.1875 17.375 -2.1875 17.375 -4 18 C-4 17.34 -4 16.68 -4 16 C-5.32 15.67 -6.64 15.34 -8 15 C-5.69 14.34 -3.38 13.68 -1 13 C-0.67 8.71 -0.34 4.42 0 0 Z " fill="#353535" transform="translate(818,342)"/>
<path d="M0 0 C0.66 0 1.32 0 2 0 C2.45858928 5.73236598 1.65645061 8.55296547 -2 13 C-6.42105263 17 -6.42105263 17 -9 17 C-9 16.01 -9 15.02 -9 14 C-7.8553125 13.319375 -7.8553125 13.319375 -6.6875 12.625 C-3.54486894 10.72480447 -2.53813855 9.30699789 -1 6 C-0.28598768 2.80604974 -0.28598768 2.80604974 0 0 Z " fill="#1A1A1A" transform="translate(324,343)"/>
<path d="M0 0 C1.21236328 0.01353516 1.21236328 0.01353516 2.44921875 0.02734375 C3.37154297 0.04474609 3.37154297 0.04474609 4.3125 0.0625 C3.9825 1.0525 3.6525 2.0425 3.3125 3.0625 C-0.3175 3.3925 -3.9475 3.7225 -7.6875 4.0625 C-7.6875 3.0725 -7.6875 2.0825 -7.6875 1.0625 C-4.80538698 0.10179566 -2.98899956 -0.04331883 0 0 Z " fill="#383838" transform="translate(706.6875,312.9375)"/>
<path d="M0 0 C0.66 0.33 1.32 0.66 2 1 C2 1.99 2 2.98 2 4 C-1.96 4.99 -5.92 5.98 -10 7 C-8.67408323 4.34816647 -7.13437549 3.74863527 -4.5625 2.3125 C-3.75941406 1.85488281 -2.95632812 1.39726562 -2.12890625 0.92578125 C-1.42636719 0.62027344 -0.72382812 0.31476563 0 0 Z " fill="#BFDF10" transform="translate(120,272)"/>
<path d="M0 0 C0 2.64 0 5.28 0 8 C-0.33 8 -0.66 8 -1 8 C-1 5.69 -1 3.38 -1 1 C-1.598125 1.33 -2.19625 1.66 -2.8125 2 C-5 3 -5 3 -8 3 C-8 2.01 -8 1.02 -8 0 C-4.71023192 -1.09658936 -3.28696233 -0.79953138 0 0 Z " fill="#262626" transform="translate(851,334)"/>
<path d="M0 0 C4.29 0.99 8.58 1.98 13 3 C12.34 4.32 11.68 5.64 11 7 C7.22272911 5.18690997 3.62730178 3.0926741 0 1 C0 0.67 0 0.34 0 0 Z " fill="#BBDF11" transform="translate(110,208)"/>
<path d="M0 0 C0.66 0.33 1.32 0.66 2 1 C1.745504 2.48206495 1.47088238 3.96068615 1.1875 5.4375 C1.03667969 6.26121094 0.88585937 7.08492188 0.73046875 7.93359375 C0.48941406 8.61550781 0.24835938 9.29742187 0 10 C-0.99 10.33 -1.98 10.66 -3 11 C-2.01 7.37 -1.02 3.74 0 0 Z " fill="#2A2A2A" transform="translate(268,301)"/>
<path d="M0 0 C2.99220268 1.36370299 5.29026529 2.94908083 7.75 5.125 C8.67039062 5.93324219 8.67039062 5.93324219 9.609375 6.7578125 C10.06828125 7.16773438 10.5271875 7.57765625 11 8 C9.68 8.33 8.36 8.66 7 9 C6.67 8.01 6.34 7.02 6 6 C5.34 6 4.68 6 4 6 C4 5.34 4 4.68 4 4 C3.34 4 2.68 4 2 4 C1.34 2.68 0.68 1.36 0 0 Z " fill="#BADF11" transform="translate(116,165)"/>
<path d="M0 0 C0.33 0 0.66 0 1 0 C0.8125 3.3125 0.8125 3.3125 0 7 C-2.5625 8.9375 -2.5625 8.9375 -5 10 C-4.42437172 6.66135596 -3.40936384 5.30897368 -1 3 C-0.67 2.01 -0.34 1.02 0 0 Z " fill="#282828" transform="translate(525,349)"/>
<path d="M0 0 C0 0.33 0 0.66 0 1 C-1.5778125 1.37125 -1.5778125 1.37125 -3.1875 1.75 C-6.8133541 2.76700786 -9.19910772 4.45373429 -12 7 C-9.69656113 0.26687101 -6.85869086 -0.25881852 0 0 Z " fill="#C0C0C0" transform="translate(523,315)"/>
<path d="M0 0 C0.66 0.33 1.32 0.66 2 1 C-0.64 3.64 -3.28 6.28 -6 9 C-6 6 -6 6 -3.5625 3.375 C-2.716875 2.59125 -1.87125 1.8075 -1 1 C-0.67 0.67 -0.34 0.34 0 0 Z " fill="#D6D6D6" transform="translate(401,210)"/>
<path d="M0 0 C3.125 0.375 3.125 0.375 6 1 C6 1.33 6 1.66 6 2 C4.576875 2.433125 4.576875 2.433125 3.125 2.875 C-0.05211578 3.76825109 -0.05211578 3.76825109 -2 6 C-2 2 -2 2 0 0 Z " fill="#1F1F1F" transform="translate(745,314)"/>
<path d="M0 0 C-0.33 0.99 -0.66 1.98 -1 3 C-2.65 3.33 -4.3 3.66 -6 4 C-6 3.01 -6 2.02 -6 1 C-3 0 -3 0 0 0 Z " fill="#272727" transform="translate(526,333)"/>
</svg>
