<?xml version="1.0" encoding="UTF-8"?>
<svg version="1.1" xmlns="http://www.w3.org/2000/svg" width="500" height="500">
<path d="M0 0 C165 0 330 0 500 0 C500 165 500 330 500 500 C335 500 170 500 0 500 C0 335 0 170 0 0 Z " fill="#0A69BF" transform="translate(0,0)"/>
<path d="M0 0 C0.7209082 0.00249756 1.44181641 0.00499512 2.18457031 0.00756836 C3.53953613 0.02122437 3.53953613 0.02122437 4.921875 0.03515625 C9.253125 0.06609375 9.253125 0.06609375 13.671875 0.09765625 C13.671875 10.98765625 13.671875 21.87765625 13.671875 33.09765625 C-1.890625 34.34765625 -1.890625 34.34765625 -6.69750977 34.71191406 C-16.31882071 35.53794113 -25.07688244 37.31332132 -34.328125 40.09765625 C-36.638125 40.75765625 -38.948125 41.41765625 -41.328125 42.09765625 C-41.328125 57.60765625 -41.328125 73.11765625 -41.328125 89.09765625 C-52.548125 89.09765625 -63.768125 89.09765625 -75.328125 89.09765625 C-75.328125 63.64093103 -68.59127002 40.26041196 -50.75439453 21.51220703 C-39.01551188 9.86977531 -24.08986335 4.46740721 -8.328125 1.09765625 C-7.36688721 0.83069946 -7.36688721 0.83069946 -6.38623047 0.55834961 C-4.18904609 0.06652435 -2.24937569 -0.01606697 0 0 Z " fill="#E6E7E8" transform="translate(308.328125,214.90234375)"/>
<path d="M0 0 C10.89 0 21.78 0 33 0 C33 22.6923806 28.7885734 41.64243187 15 60 C14.48050781 60.71542969 13.96101563 61.43085938 13.42578125 62.16796875 C-0.00913618 79.12236077 -22.34728049 86.39123543 -43 89 C-47.29 89 -51.58 89 -56 89 C-56 77.78 -56 66.56 -56 55 C-51.441875 54.773125 -46.88375 54.54625 -42.1875 54.3125 C-29.9114497 53.58674023 -18.7099408 51.77038341 -7 48 C-4.69 47.34 -2.38 46.68 0 46 C0 30.82 0 15.64 0 0 Z " fill="#E4E6E7" transform="translate(233,170)"/>
<path d="M0 0 C0 15.18 0 30.36 0 46 C-11.22 46 -22.44 46 -34 46 C-34 41.38 -34 36.76 -34 32 C-33.01 31.01 -32.02 30.02 -31 29 C-30.20202885 27.46144604 -29.45575438 25.89547726 -28.75 24.3125 C-24.3397111 15.36220782 -11.20798948 0 0 0 Z " fill="#D1D5D8" transform="translate(267,258)"/>
<path d="M0 0 C10.89 0 21.78 0 33 0 C33 5.28 33 10.56 33 16 C32.34 16 31.68 16 31 16 C29.93813004 17.75570545 28.95224167 19.55750028 28 21.375 C22.09729439 31.72912616 13.6867544 39.62995037 3 45 C2.01 45 1.02 45 0 45 C0 30.15 0 15.3 0 0 Z " fill="#D9D9D9" transform="translate(233,170)"/>
<path d="M0 0 C3.4285785 2.02008139 6.20847086 4.41694171 8 8 C8.55258891 13.03671207 8.53929549 16.92140903 6.25 21.5 C3.46859064 24.59045484 1.53548229 25.77965133 -2.5859375 26.37109375 C-11.04733486 26.57255559 -11.04733486 26.57255559 -14.5625 23.8125 C-17.89710615 19.96487752 -18.82619386 17.59322292 -19.375 12.5625 C-18.82897762 7.37528735 -16.73484658 4.53074699 -12.875 1.125 C-8.53155289 -0.57460974 -4.58759645 -0.90610381 0 0 Z " fill="#136BC0" transform="translate(283,326)"/>
<path d="M0 0 C14.88888889 0 14.88888889 0 19 3 C21.36086122 6.54129184 21.57269578 7.82750218 21 12 C19.520959 14.27267276 17.88485657 16.0209006 16 18 C17.65 20.64 19.3 23.28 21 26 C17.41209425 25.70100785 16.21833224 25.23013399 13.6875 22.5625 C12 20 12 20 12 18 C9.36 18 6.72 18 4 18 C4 20.64 4 23.28 4 26 C2.68 26 1.36 26 0 26 C0 17.42 0 8.84 0 0 Z " fill="#DFF0F5" transform="translate(237,326)"/>
<path d="M0 0 C2.3190918 0.16577148 2.3190918 0.16577148 5 1 C6.57739258 3.31665039 6.57739258 3.31665039 7.89453125 6.34765625 C8.37470703 7.42724609 8.85488281 8.50683594 9.34960938 9.61914062 C9.83236328 10.75544922 10.31511719 11.89175781 10.8125 13.0625 C11.56563477 14.77276367 11.56563477 14.77276367 12.33398438 16.51757812 C13.57312474 19.33809763 14.79410305 22.16514543 16 25 C14.68 25.33 13.36 25.66 12 26 C11.65324219 25.19175781 11.30648438 24.38351562 10.94921875 23.55078125 C9.1765335 20.65620394 9.1765335 20.65620394 5.64453125 20.29296875 C4.37996094 20.25816406 3.11539062 20.22335937 1.8125 20.1875 C0.54019531 20.13980469 -0.73210937 20.09210938 -2.04296875 20.04296875 C-3.01878906 20.02878906 -3.99460937 20.01460938 -5 20 C-5.66 21.98 -6.32 23.96 -7 26 C-8.32 26 -9.64 26 -11 26 C-8.34810503 16.88411104 -4.1194169 8.5225941 0 0 Z " fill="#DFF0F5" transform="translate(338,326)"/>
<path d="M0 0 C4 0 4 0 5.67578125 1.65234375 C6.21589844 2.40644531 6.75601563 3.16054688 7.3125 3.9375 C7.90804687 4.74960937 8.50359375 5.56171875 9.1171875 6.3984375 C9.73851562 7.25695312 10.35984375 8.11546875 11 9 C12.3061574 10.69241406 13.61835491 12.38018946 14.9375 14.0625 C15.948125 15.361875 16.95875 16.66125 18 18 C18.33 12.06 18.66 6.12 19 0 C19.99 0 20.98 0 22 0 C22 8.58 22 17.16 22 26 C17.7668874 24.94172185 17.29291486 24.61200187 14.765625 21.40234375 C14.19199219 20.68369141 13.61835938 19.96503906 13.02734375 19.22460938 C12.44082031 18.46986328 11.85429687 17.71511719 11.25 16.9375 C10.64800781 16.17888672 10.04601562 15.42027344 9.42578125 14.63867188 C7.94178223 12.76600644 6.46972853 10.88388613 5 9 C4.67 14.61 4.34 20.22 4 26 C2.68 26 1.36 26 0 26 C0 17.42 0 8.84 0 0 Z " fill="#E8F7F8" transform="translate(150,326)"/>
<path d="M0 0 C3.4285785 2.02008139 6.20847086 4.41694171 8 8 C8.55258891 13.03671207 8.53929549 16.92140903 6.25 21.5 C3.46859064 24.59045484 1.53548229 25.77965133 -2.5859375 26.37109375 C-11.04733486 26.57255559 -11.04733486 26.57255559 -14.5625 23.8125 C-17.89710615 19.96487752 -18.82619386 17.59322292 -19.375 12.5625 C-18.82897762 7.37528735 -16.73484658 4.53074699 -12.875 1.125 C-8.53155289 -0.57460974 -4.58759645 -0.90610381 0 0 Z M-14 7 C-15.60086627 10.20173254 -15.49917089 13.52577059 -15 17 C-13.20636089 19.8100346 -11.98119065 21.50940468 -9 23 C-5.19373099 23.17199251 -1.48369158 23.04130648 1.703125 20.8046875 C3.9207697 18.37037636 4.95760289 16.20350611 5.625 13 C4.75004681 8.80022471 2.99012644 7.06131993 0 4 C-5.49042646 1.25478677 -9.90148521 2.90148521 -14 7 Z " fill="#E5F4F7" transform="translate(283,326)"/>
<path d="M0 0 C5.94 0 11.88 0 18 0 C18 1.32 18 2.64 18 4 C13.38 4 8.76 4 4 4 C4 6.31 4 8.62 4 11 C8.29 11 12.58 11 17 11 C17 12.32 17 13.64 17 15 C12.71 15 8.42 15 4 15 C4 17.64 4 20.28 4 23 C8.95 23 13.9 23 19 23 C19 23.99 19 24.98 19 26 C12.73 26 6.46 26 0 26 C0 17.42 0 8.84 0 0 Z " fill="#D9EDF4" transform="translate(210,326)"/>
<path d="M0 0 C5.94 0 11.88 0 18 0 C18 1.32 18 2.64 18 4 C13.38 4 8.76 4 4 4 C4 6.31 4 8.62 4 11 C7.96 11 11.92 11 16 11 C16 11.99 16 12.98 16 14 C11.71 14 7.42 14 3 14 C3 16.97 3 19.94 3 23 C7.95 23 12.9 23 18 23 C18 23.99 18 24.98 18 26 C12.06 26 6.12 26 0 26 C0 17.42 0 8.84 0 0 Z " fill="#E0F1F6" transform="translate(183,326)"/>
<path d="M0 0 C3.5625 1.5 3.5625 1.5 6 3 C5.67 3.99 5.34 4.98 5 6 C4.13375 5.67 3.2675 5.34 2.375 5 C-1.08327991 3.97532447 -3.42778998 3.54397319 -7 4 C-9.69990662 5.79993774 -11.5418865 7.083773 -13 10 C-13.43023798 13.87214182 -13.31669086 15.52496371 -11.125 18.8125 C-8.88485413 21.11853252 -8.02007434 21.95396776 -4.8359375 22.09765625 C-2.55729167 22.06510417 -0.27864583 22.03255208 2 22 C2 19.03 2 16.06 2 13 C3.32 13 4.64 13 6 13 C6.2852983 16.37919987 6.40733393 19.62727503 6 23 C3.70594031 25.59993431 2.02255209 25.86899083 -1.34765625 26.30078125 C-5.77812265 26.53466711 -8.47897083 26.26051459 -12.5 24.25 C-15.47559586 21.57196373 -16.71928418 19.6114168 -17.40625 15.66796875 C-17.59134786 10.77058778 -17.36596151 7.76341554 -14.125 3.9375 C-9.83058063 -0.4710223 -5.97098253 -0.60009875 0 0 Z " fill="#E4F3F6" transform="translate(315,326)"/>
<path d="M0 0 C1.588125 -0.061875 3.17625 -0.12375 4.8125 -0.1875 C6.15248047 -0.23970703 6.15248047 -0.23970703 7.51953125 -0.29296875 C10 0 10 0 11.828125 1.3203125 C13 3 13 3 12.9375 6.0625 C12 9 12 9 10.4375 10.375 C6.89649716 11.28294945 3.65233264 11.12174442 0 11 C0 7.37 0 3.74 0 0 Z " fill="#0D6AC0" transform="translate(241,330)"/>
<path d="M0 0 C5.625 -0.25 5.625 -0.25 9 2 C9.3125 5 9.3125 5 9 8 C7 10 7 10 3.375 10.125 C2.26125 10.08375 1.1475 10.0425 0 10 C0 6.7 0 3.4 0 0 Z " fill="#C4E1EF" transform="translate(192,367)"/>
<path d="M0 0 C0.66 0 1.32 0 2 0 C2.67354499 1.43429001 3.33859701 2.87257057 4 4.3125 C4.556875 5.51326172 4.556875 5.51326172 5.125 6.73828125 C6 9 6 9 6 12 C2.7 12 -0.6 12 -4 12 C-2.66666667 8 -1.33333333 4 0 0 Z " fill="#2572C2" transform="translate(339,331)"/>
<path d="M0 0 C1.66611905 -0.042721 3.33382885 -0.04063832 5 0 C6 1 6 1 6.0625 3.5625 C6.041875 4.366875 6.02125 5.17125 6 6 C4.02 6.33 2.04 6.66 0 7 C0 4.69 0 2.38 0 0 Z " fill="#1A7AC6" transform="translate(193,369)"/>
<path d="M0 0 C1.65 0 3.3 0 5 0 C5.33 0.66 5.66 1.32 6 2 C4.35 2 2.7 2 1 2 C1 2.66 1 3.32 1 4 C3.475 4.99 3.475 4.99 6 6 C5.67 7.32 5.34 8.64 5 10 C3.02 10 1.04 10 -1 10 C-1 9.34 -1 8.68 -1 8 C0.65 8 2.3 8 4 8 C1.22739701 6.06201737 1.22739701 6.06201737 -1 5 C-0.67 3.35 -0.34 1.7 0 0 Z " fill="#BCD8EC" transform="translate(333,367)"/>
<path d="M0 0 C0.78375 0.04125 1.5675 0.0825 2.375 0.125 C2.705 0.785 3.035 1.445 3.375 2.125 C1.395 2.455 -0.585 2.785 -2.625 3.125 C-2.295 4.775 -1.965 6.425 -1.625 8.125 C0.025 8.125 1.675 8.125 3.375 8.125 C3.045 8.785 2.715 9.445 2.375 10.125 C-0.5 10.3125 -0.5 10.3125 -3.625 10.125 C-5.625 7.125 -5.625 7.125 -5.375 4.5625 C-4.336523 1.18744974 -3.59386412 0.17113639 0 0 Z " fill="#BCDBED" transform="translate(219.625,366.875)"/>
<path d="M0 0 C0.66 0 1.32 0 2 0 C2 2.64 2 5.28 2 8 C3.65 8 5.3 8 7 8 C7 8.66 7 9.32 7 10 C4.69 10 2.38 10 0 10 C0 6.7 0 3.4 0 0 Z " fill="#99C5E4" transform="translate(243,367)"/>
</svg>
