<svg width="790" height="560" viewBox="0 0 790 560" fill="none" xmlns="http://www.w3.org/2000/svg">
<g clip-path="url(#clip0_1421_887)">
<path opacity="0.3" d="M262.642 559.685C301.115 559.685 332.303 554.672 332.303 548.489C332.303 542.305 301.115 537.292 262.642 537.292C224.17 537.292 192.982 542.305 192.982 548.489C192.982 554.672 224.17 559.685 262.642 559.685Z" fill="#3B548E"/>
<path opacity="0.3" d="M641.307 560C689.314 560 728.232 554.987 728.232 548.803C728.232 542.62 689.314 537.607 641.307 537.607C593.299 537.607 554.381 542.62 554.381 548.803C554.381 554.987 593.299 560 641.307 560Z" fill="#3B548E"/>
<path opacity="0.1" d="M9.89423 241.96H82.4501V340.927H15.206C15.0273 341.942 14.8557 342.966 14.6698 343.989H82.4501V423.803C82.3285 423.767 82.2213 423.724 82.1069 423.681C80.191 422.923 78.2893 422.121 76.3877 421.263L75.1723 420.712C73.2659 419.81 71.3595 418.857 69.4531 417.85C68.7882 417.5 68.1234 417.135 67.4656 416.763C56.882 410.83 47.2674 403.312 38.9552 394.47C38.7121 394.234 38.4833 393.983 38.2403 393.754C37.0821 392.495 35.9454 391.222 34.8445 389.92L33.6291 388.489C32.328 386.893 31.0698 385.255 29.8473 383.595C29.6685 383.352 29.497 383.109 29.3111 382.88C24.3392 375.981 20.2111 368.511 17.0147 360.63C16.9146 360.394 16.8288 360.136 16.7359 359.914C15.7541 357.386 14.8843 354.835 14.1265 352.259C13.7976 351.179 13.4831 350.113 13.2114 348.989C13.1113 348.66 13.0255 348.338 12.9469 348.017C8.88621 332.155 8.40723 315.679 8.40723 299.317C8.40723 297.407 8.40723 295.489 8.40723 293.593C8.40723 286.976 8.48587 280.315 8.60025 273.661C8.60025 271.937 8.67174 270.22 8.70749 268.489C8.80757 264.096 8.95056 259.703 9.13643 255.31C9.17933 254.087 9.23652 252.871 9.30086 251.654C9.30086 250.953 9.33661 250.252 9.4081 249.551C9.57967 247.004 9.72266 244.479 9.89423 241.96Z" fill="#3B548E"/>
<path opacity="0.1" d="M82.4502 131.769H42.6514C49.1209 121.635 56.1896 111.898 63.8197 102.608C69.732 95.339 75.9732 88.2562 82.4502 81.4309V131.769Z" fill="#3B548E"/>
<path opacity="0.1" d="M82.4501 134.831V238.898H10.123C10.123 238.598 10.1731 238.29 10.1945 237.99C10.2589 237.167 10.3232 236.344 10.3947 235.528C10.4733 234.57 10.5591 233.604 10.6521 232.667C10.745 231.73 10.8451 230.585 10.9523 229.547C11.0596 228.51 11.1597 227.458 11.2812 226.421C11.4027 225.384 11.51 224.346 11.6386 223.316C11.7673 222.286 11.8817 221.241 12.0175 220.211C12.1248 219.352 12.2392 218.501 12.3536 217.643C12.518 216.434 12.6896 215.217 12.8754 214.015C12.8754 213.836 12.9255 213.65 12.9541 213.479C14.2589 204.68 16.0368 195.958 18.2801 187.351C20.6283 178.322 23.6268 169.475 27.2522 160.88C31.1053 151.888 35.6167 143.193 40.7496 134.867L82.4501 134.831Z" fill="#3B548E"/>
<path opacity="0.1" d="M99.7725 241.953V340.927H254.743V241.953H99.7725ZM99.7725 343.981V428.975C100.659 429.161 101.538 429.34 102.41 429.49C103.597 429.719 104.777 429.927 105.985 430.106C106.214 430.141 106.45 430.177 106.7 430.199C107.172 430.277 107.658 430.342 108.13 430.406C109.324 430.571 110.51 430.707 111.704 430.814C112.269 430.871 112.841 430.921 113.413 430.964L114.793 431.071C115.543 431.129 116.287 431.172 117.023 431.193C117.481 431.193 117.938 431.236 118.41 431.25C118.768 431.25 119.125 431.25 119.497 431.25C119.868 431.25 120.398 431.25 120.848 431.25C121.463 431.25 122.078 431.25 122.685 431.25H123.507C124.122 431.25 124.737 431.25 125.345 431.193H125.388C125.809 431.193 126.238 431.193 126.667 431.136C126.786 431.143 126.906 431.143 127.025 431.136C127.382 431.136 127.74 431.136 128.083 431.086H128.333L130.728 430.9C131.514 430.828 132.308 430.735 133.109 430.649L134.739 430.456C141.37 429.526 147.927 428.13 154.363 426.278C168.818 422.243 182.959 416.598 197.407 412.463C216.088 407.133 236.727 404.514 254.778 411.032V343.981H99.7725ZM254.743 131.769V0.00718352C237.776 -0.176772 220.856 1.80914 204.392 5.91668C165.151 15.7825 129.942 37.1812 99.7725 64.5109V131.762H107.551V134.817H99.7725V238.898H254.743V134.824H139.486V131.769H254.743ZM453.794 87.2617C444.086 86.9183 434.434 83.8419 425.705 79.0914C409.012 70.0054 395.679 55.9757 380.781 44.1352C349.825 19.4742 311.435 4.59313 272.051 0.901478V131.769H493.278L493.829 131.189L453.794 87.2617ZM473.947 83.6845L495.316 107.151V77.5318C488.16 78.4189 481.89 80.5295 473.976 83.6559L473.947 83.6845ZM495.316 450.08V343.981H449.783C449.662 343.531 449.54 343.073 449.397 342.615C449.533 343.073 449.648 343.531 449.776 343.981H272.079V420.712C273.766 421.964 275.432 423.28 277.084 424.618C278.864 426.049 280.622 427.559 282.388 429.04L284.168 430.513C285.019 431.229 285.877 431.944 286.742 432.617C288.458 434.009 290.19 435.383 291.939 436.738C292.804 437.453 293.691 438.097 294.57 438.769C308.53 449.451 323.256 459.09 338.63 467.609C342.076 469.517 345.552 471.379 349.06 473.196C351.398 474.391 353.75 475.579 356.109 476.73C359.655 478.462 363.23 480.131 366.833 481.739C400.052 496.661 435.179 506.901 471.209 512.166C479.211 513.349 487.244 514.279 495.309 514.956V450.073H496.024L495.316 450.08ZM272.079 134.824V238.898H495.344V134.824H272.079ZM272.079 241.953V340.927H495.344V241.953H272.079ZM512.674 77.403V110.442L539.947 80.4937C530.911 79.0342 521.82 77.992 512.674 77.3672V77.403ZM512.674 241.989V340.927H729.826V241.953L512.674 241.989ZM729.033 457.936L729.798 343.981H512.674V516.094C526.661 516.682 540.67 516.515 554.639 515.593H554.882C561.554 515.173 568.196 514.563 574.806 513.761H574.956C610.223 509.654 644.707 500.446 677.331 486.425L729.033 457.936ZM771.699 258.251C770.884 256.326 770.033 254.416 769.168 252.527C767.552 248.95 765.843 245.473 764.085 241.996H747.141V340.927H789.979C789.957 312.91 782.872 284.293 771.72 258.215L771.699 258.251ZM747.141 344.017V442.032C759.209 430.456 769.404 417.213 776.746 402.075C785.575 383.845 789.614 364.107 789.943 344.003L747.141 344.017ZM747.141 213.15V238.905H762.498C757.852 230.039 752.733 221.43 747.163 213.114L747.141 213.15ZM599.871 96.8199C598.741 96.3907 597.612 95.9542 596.475 95.5321C584.487 91.1017 572.236 87.4173 559.793 84.5001L518.057 130.338L517.256 131.189L517.792 131.776H666.336C645.648 117.525 623.344 105.779 599.892 96.7842L599.871 96.8199ZM670.689 134.86H515.719L512.674 137.65V238.898H539.368H539.411H729.855V189.855C712.627 169.004 692.743 150.503 670.711 134.824L670.689 134.86Z" fill="#3B548E"/>
<path opacity="0.1" d="M82.4501 187.323V238.898H10.123C10.123 238.598 10.1731 238.29 10.1945 237.99C10.2589 237.167 10.3232 236.344 10.3947 235.529C10.4733 234.57 10.5591 233.604 10.6521 232.667C10.745 231.73 10.8451 230.585 10.9523 229.548C11.0596 228.51 11.1597 227.458 11.2812 226.421C11.4027 225.384 11.51 224.346 11.6386 223.316C11.7673 222.286 11.8817 221.241 12.0175 220.211C12.1248 219.353 12.2392 218.501 12.3536 217.643C12.518 216.434 12.6896 215.217 12.8754 214.015C12.8754 213.837 12.9255 213.651 12.9541 213.479C14.2589 204.68 16.0368 195.958 18.2801 187.351L82.4501 187.323Z" fill="#3B548E"/>
<path opacity="0.1" d="M9.89423 241.96H82.4501V340.927H15.206C15.0273 341.942 14.8557 342.966 14.6698 343.989H82.4501V423.803C82.3285 423.767 82.2213 423.724 82.1069 423.681C80.191 422.923 78.2893 422.121 76.3877 421.263L75.1723 420.712C73.2659 419.81 71.3595 418.857 69.4531 417.85C68.7882 417.5 68.1233 417.135 67.4656 416.763C56.882 410.83 47.2674 403.312 38.9552 394.47C38.7121 394.234 38.4833 393.983 38.2403 393.754C37.0821 392.495 35.9454 391.222 34.8445 389.92L33.6291 388.489C32.328 386.893 31.0698 385.255 29.8473 383.595C29.6685 383.352 29.497 383.109 29.3111 382.88C24.3392 375.981 20.211 368.511 17.0147 360.63C16.9146 360.394 16.8288 360.136 16.7359 359.914C15.7541 357.386 14.8843 354.835 14.1265 352.259C13.7976 351.179 13.4831 350.113 13.2114 348.989C13.1113 348.66 13.0255 348.338 12.9469 348.017C8.88621 332.155 8.40723 315.679 8.40723 299.317C8.40723 297.407 8.40723 295.489 8.40723 293.593C8.40723 286.976 8.48587 280.315 8.60025 273.661C8.60025 271.937 8.67174 270.22 8.70749 268.489C8.80757 264.096 8.95056 259.703 9.13643 255.31C9.17933 254.087 9.23652 252.871 9.30086 251.654C9.30086 250.953 9.33661 250.252 9.4081 249.551C9.57967 247.004 9.72266 244.479 9.89423 241.96Z" fill="#3B548E"/>
<path opacity="0.1" d="M154.327 149.726V238.898H99.7725V149.726H107.551V119.535H139.478V149.726H154.327Z" fill="#3B548E"/>
<path opacity="0.1" d="M154.327 241.953H99.7793V340.919H154.327V241.953Z" fill="#3B548E"/>
<path opacity="0.1" d="M99.7725 343.989H154.327V426.264C147.892 428.114 141.334 429.508 134.703 430.435L133.073 430.635C132.272 430.728 131.479 430.807 130.692 430.885C129.906 430.964 129.091 431.021 128.297 431.071H128.047C127.704 431.071 127.332 431.114 126.996 431.121H126.631C126.203 431.121 125.774 431.164 125.345 431.179C124.737 431.214 124.129 431.222 123.507 431.229C123.243 431.229 122.993 431.229 122.728 431.229C122.113 431.229 121.506 431.229 120.891 431.229H119.54C119.175 431.229 118.825 431.229 118.446 431.229L117.066 431.179C116.351 431.179 115.579 431.1 114.836 431.05L113.463 430.95L111.754 430.792C110.553 430.685 109.359 430.549 108.18 430.385L106.75 430.184L106.035 430.084C104.841 429.898 103.662 429.698 102.461 429.469C101.581 429.319 100.709 429.133 99.8225 428.954L99.7725 343.989Z" fill="#3B548E"/>
<path opacity="0.1" d="M495.344 139.195H450.362V238.891H495.344V139.195Z" fill="#3B548E"/>
<path opacity="0.1" d="M495.352 241.953V340.926H272.079V298.236H391.004V323.42H450.362V241.953H495.352Z" fill="#3B548E"/>
<path opacity="0.1" d="M496.059 450.102H495.344V515.028C487.29 514.346 479.259 513.418 471.252 512.245C435.204 506.963 400.062 496.701 366.833 481.753C357.239 477.432 347.84 472.714 338.637 467.601C323.264 459.078 308.535 449.44 294.57 438.762C291.062 436.072 287.6 433.32 284.182 430.506C281.816 428.553 279.464 426.55 277.083 424.604C275.432 423.266 273.766 421.95 272.079 420.69V343.989H449.769C449.647 343.531 449.526 343.073 449.397 342.622C449.533 343.073 449.662 343.531 449.783 343.989H495.344V450.059C495.587 450.066 495.823 450.088 496.059 450.102Z" fill="#3B548E"/>
<path opacity="0.1" d="M612.66 131.769H583.349V122.654H596.489V95.5034C597.628 95.9184 598.763 96.3453 599.892 96.7841V122.654H612.66V131.769Z" fill="#6C63FF"/>
<path opacity="0.1" d="M683.279 238.898H539.382C539.382 238.898 539.382 238.898 539.432 238.934L539.368 238.898H512.673V139.202H520.237V212.892H554.803V169.251H583.356V134.831H612.667V169.279H641.221V212.921H683.279V238.898Z" fill="#3B548E"/>
<path opacity="0.1" d="M512.673 241.953V340.927H683.279V241.953H512.673ZM729.59 457.428L729.826 379.088H683.279V344.032H512.673V516.094C526.66 516.682 540.669 516.515 554.638 515.593V515.593H554.881C561.554 515.173 568.195 514.563 574.806 513.761H574.956C610.223 509.654 644.707 500.446 677.331 486.425" fill="#3B548E"/>
<path opacity="0.1" d="M750.172 343.989H789.971C789.621 364.085 785.589 383.824 776.767 402.053C769.425 417.199 759.223 430.442 747.17 442.01V379.052H750.172V343.989Z" fill="#3B548E"/>
<path opacity="0.1" d="M789.993 340.926H750.173V258.215H771.72C782.873 284.293 789.957 312.91 789.993 340.926Z" fill="#3B548E"/>
<path opacity="0.1" d="M495.351 166.911H471.252V198.169H495.351V166.911Z" fill="#3B548E"/>
<path opacity="0.1" d="M495.351 231.701H471.252V238.898H495.351V231.701Z" fill="#3B548E"/>
<path opacity="0.1" d="M495.351 241.953H471.252V262.951H495.351V241.953Z" fill="#3B548E"/>
<path opacity="0.1" d="M495.351 296.491H471.252V327.748H495.351V296.491Z" fill="#3B548E"/>
<path opacity="0.1" d="M495.351 361.281H471.252V392.538H495.351V361.281Z" fill="#3B548E"/>
<path opacity="0.1" d="M495.344 450.059C495.587 450.059 495.823 450.059 496.059 450.102H495.344V457.364H471.252V426.07H495.344V450.059Z" fill="#3B548E"/>
<path opacity="0.1" d="M495.344 490.846V514.992C487.29 514.31 479.259 513.382 471.252 512.209V490.846H495.344Z" fill="#3B548E"/>
<path opacity="0.1" d="M375.362 338.63H272.079V340.926H375.362V338.63Z" fill="#3B548E"/>
<path opacity="0.1" d="M375.362 343.981H272.079V352.781H375.362V343.981Z" fill="#3B548E"/>
<path opacity="0.1" d="M375.362 381.628H272.079V395.779H375.362V381.628Z" fill="#3B548E"/>
<path opacity="0.1" d="M375.354 424.625V438.777H294.57C291.062 436.096 287.597 433.344 284.175 430.52C281.809 428.567 279.464 426.564 277.076 424.625H375.354Z" fill="#3B548E"/>
<path opacity="0.1" d="M375.354 467.616V481.753H366.825C357.241 477.427 347.845 472.707 338.637 467.594L375.354 467.616Z" fill="#3B548E"/>
<path opacity="0.1" d="M574.977 251.547H554.646V271.894H574.977V251.547Z" fill="#3B548E"/>
<path opacity="0.1" d="M134.753 156.745H114.421V177.092H134.753V156.745Z" fill="#3B548E"/>
<path opacity="0.1" d="M134.753 204.006H114.421V224.353H134.753V204.006Z" fill="#3B548E"/>
<path opacity="0.1" d="M134.753 251.268H114.421V271.615H134.753V251.268Z" fill="#3B548E"/>
<path opacity="0.1" d="M134.753 298.523H114.421V318.87H134.753V298.523Z" fill="#3B548E"/>
<path opacity="0.1" d="M134.753 345.784H114.421V366.131H134.753V345.784Z" fill="#6C63FF"/>
<path opacity="0.1" d="M134.753 393.046H114.421V413.393H134.753V393.046Z" fill="#3B548E"/>
<path opacity="0.1" d="M652.595 251.547H632.263V271.894H652.595V251.547Z" fill="#6C63FF"/>
<path opacity="0.1" d="M574.977 301.735H554.646V322.082H574.977V301.735Z" fill="#3B548E"/>
<path opacity="0.1" d="M652.595 301.735H632.263V322.082H652.595V301.735Z" fill="#6C63FF"/>
<path opacity="0.1" d="M574.977 351.916H554.646V372.263H574.977V351.916Z" fill="#3B548E"/>
<path opacity="0.1" d="M652.595 351.916H632.263V372.263H652.595V351.916Z" fill="#6C63FF"/>
<path opacity="0.1" d="M574.977 402.103H554.646V422.45H574.977V402.103Z" fill="#3B548E"/>
<path opacity="0.1" d="M652.595 402.103H632.263V422.45H652.595V402.103Z" fill="#6C63FF"/>
<path opacity="0.1" d="M574.977 452.291H554.646V472.638H574.977V452.291Z" fill="#3B548E"/>
<path opacity="0.1" d="M652.595 452.291H632.263V472.638H652.595V452.291Z" fill="#3B548E"/>
<path opacity="0.1" d="M554.646 515.593V502.472H574.97V513.726L554.646 515.593Z" fill="#3B548E"/>
<path opacity="0.1" d="M12.8682 213.464V225.105H82.45V213.464H12.8682ZM19.8028 224.375H14.1264V214.18H19.8457L19.8028 224.375ZM26.7302 224.375H21.0109V214.18H26.7302V224.375ZM33.6433 224.375H27.9241V214.18H33.6433V224.375ZM40.5708 224.375H34.8587V214.18H40.5779L40.5708 224.375ZM47.4911 224.375H41.7718V214.18H47.4911V224.375ZM54.4185 224.375H48.6993V214.18H54.4185V224.375ZM61.346 224.375H55.6267V214.18H61.346V224.375ZM68.2662 224.375H62.547V214.18H68.2662V224.375ZM75.1865 224.375H69.4673V214.18H75.1865V224.375ZM82.1068 224.375H76.3876V214.18H82.1068V224.375Z" fill="#6C63FF"/>
<path opacity="0.1" d="M12.8682 247.333V258.973H82.45V247.333H12.8682ZM19.8028 258.236H14.1264V248.07H19.8457L19.8028 258.236ZM26.7302 258.236H21.0109V248.07H26.7302V258.236ZM33.6433 258.236H27.9241V248.07H33.6433V258.236ZM40.5708 258.236H34.8587V248.07H40.5779L40.5708 258.236ZM47.4911 258.236H41.7718V248.07H47.4911V258.236ZM54.4185 258.236H48.6993V248.07H54.4185V258.236ZM61.346 258.236H55.6267V248.07H61.346V258.236ZM68.2662 258.236H62.547V248.07H68.2662V258.236ZM75.1865 258.236H69.4673V248.07H75.1865V258.236ZM82.1068 258.236H76.3876V248.07H82.1068V258.236Z" fill="#6C63FF"/>
<path opacity="0.1" d="M12.8682 281.216V292.878H82.45V281.216H12.8682ZM19.8028 292.119H14.1264V281.946H19.8457L19.8028 292.119ZM26.7302 292.119H21.0109V281.946H26.7302V292.119ZM33.6433 292.119H27.9241V281.946H33.6433V292.119ZM40.5708 292.119H34.8587V281.946H40.5779L40.5708 292.119ZM47.4911 292.119H41.7718V281.946H47.4911V292.119ZM54.4185 292.119H48.6993V281.946H54.4185V292.119ZM61.346 292.119H55.6267V281.946H61.346V292.119ZM68.2662 292.119H62.547V281.946H68.2662V292.119ZM75.1865 292.119H69.4673V281.946H75.1865V292.119ZM82.1068 292.119H76.3876V281.946H82.1068V292.119Z" fill="#6C63FF"/>
<path opacity="0.1" d="M12.8682 315.099V326.725H82.45V315.099H12.8682ZM19.8028 326.002H14.1264V315.822H19.8457L19.8028 326.002ZM26.7302 326.002H21.0109V315.822H26.7302V326.002ZM33.6433 326.002H27.9241V315.822H33.6433V326.002ZM40.5708 326.002H34.8587V315.822H40.5779L40.5708 326.002ZM47.4911 326.002H41.7718V315.822H47.4911V326.002ZM54.4185 326.002H48.6993V315.822H54.4185V326.002ZM61.346 326.002H55.6267V315.822H61.346V326.002ZM68.2662 326.002H62.547V315.822H68.2662V326.002ZM75.1865 326.002H69.4673V315.822H75.1865V326.002ZM82.1068 326.002H76.3876V315.822H82.1068V326.002Z" fill="#6C63FF"/>
<path opacity="0.1" d="M13.1685 348.975C13.4473 350.07 13.7618 351.164 14.0907 352.245V349.705H19.8099V359.878H16.7501C16.8431 360.114 16.936 360.372 17.0289 360.594H82.45V348.975H13.1685ZM26.7517 359.878H21.0324V349.705H26.7517V359.878ZM33.6648 359.878H27.9456V349.705H33.6648V359.878ZM40.5923 359.878H34.8587V349.705H40.578L40.5923 359.878ZM47.5125 359.878H41.7933V349.705H47.5125V359.878ZM54.44 359.878H48.7207V349.705H54.44V359.878ZM61.3674 359.878H55.6482V349.705H61.3674V359.878ZM68.2877 359.878H62.5685V349.705H68.2877V359.878ZM75.208 359.878H69.4888V349.705H75.208V359.878ZM82.1283 359.878H76.4091V349.705H82.1283V359.878Z" fill="#6C63FF"/>
<path opacity="0.1" d="M29.3257 382.858C29.5044 383.087 29.676 383.345 29.8619 383.574H33.6437V388.46C34.0512 388.946 34.4516 389.433 34.8662 389.891V383.545H40.5855V393.754H38.2692C38.4979 393.99 38.7195 394.241 38.9841 394.47H82.4718V382.858H29.3257ZM47.4914 393.754H41.7722V383.588H47.4914V393.754ZM54.4189 393.754H48.6996V383.588H54.4189V393.754ZM61.3463 393.754H55.6271V383.588H61.3463V393.754ZM68.2666 393.754H62.5474V383.588H68.2666V393.754ZM75.1869 393.754H69.4677V383.588H75.1869V393.754ZM82.1072 393.754H76.388V383.588H82.1072V393.754Z" fill="#6C63FF"/>
<path opacity="0.1" d="M67.4941 416.734C68.1447 417.106 68.8096 417.449 69.4816 417.821V417.464H75.2008V420.683L76.4162 421.248V417.464H82.1354V423.652C82.2451 423.707 82.3601 423.75 82.4786 423.781V416.734H67.4941Z" fill="#6C63FF"/>
<path opacity="0.1" d="M539.382 238.898H539.425H539.382ZM495.344 450.052H496.059H495.344ZM449.397 342.615C449.533 343.073 449.647 343.531 449.776 343.981C449.662 343.531 449.54 343.073 449.397 342.615ZM539.382 238.877H539.425H539.382ZM107.579 131.747V134.802H139.514V131.747H107.579ZM495.344 450.052H496.059H495.344ZM449.397 342.615C449.533 343.073 449.647 343.531 449.776 343.981C449.662 343.531 449.54 343.073 449.397 342.615ZM539.382 238.877H539.425H539.382ZM495.344 450.03H496.059H495.344ZM449.397 342.615C449.533 343.073 449.647 343.531 449.776 343.981C449.662 343.531 449.54 343.073 449.397 342.615Z" fill="#6C63FF"/>
<path d="M330.001 271.629C330.001 271.629 327.184 271.236 327.184 267.129C327.184 263.023 325.168 255.353 325.168 255.353C325.168 255.318 323.424 241.996 321.014 239.878C318.605 237.761 315.51 225.326 315.51 225.326C315.51 225.326 314.98 218.58 313.901 217.128C312.821 215.675 311.363 212.12 309.211 207.047C307.059 201.975 298.087 198.462 298.087 198.462C298.087 198.462 281.866 189.047 277.269 185.978C276.851 185.725 276.461 185.43 276.104 185.098C275.303 184.046 271.814 184.024 271.814 184.024C271.45 181.721 271.1 179.074 270.985 176.677C270.985 176.419 270.985 176.162 270.949 175.904C276.075 172.872 279.936 168.091 281.823 162.44C281.909 162.168 281.98 161.882 282.059 161.61C282.366 161.509 282.649 161.344 282.889 161.127C283.129 160.911 283.321 160.646 283.453 160.351C283.868 159.428 283.875 158.347 284.39 157.489C284.99 156.473 286.134 155.929 287.035 155.164C289.308 153.232 289.894 149.977 289.787 147.015C289.716 144.618 289.33 142.2 289.48 139.818L289.523 139.217C289.566 138.859 289.616 138.501 289.68 138.158C290.03 136.384 290.795 134.709 291.224 132.949C291.653 131.189 291.696 129.208 290.695 127.691C289.23 125.466 286.177 125.022 283.496 124.793C280.458 124.536 277.741 124.872 275.796 122.347C274.886 121.027 273.863 119.789 272.737 118.648C272.336 118.276 268.447 115.901 268.447 115.743C264.651 113.984 260.349 113.654 256.33 114.813C254.314 115.4 252.412 116.358 250.367 116.838C245.956 117.882 240.88 116.752 237.134 119.277C235.047 120.708 233.796 122.983 232.623 125.201C231.67 127.028 230.703 128.852 229.721 130.674C228.141 133.672 226.532 136.72 225.867 140.039C225.728 140.762 225.642 141.494 225.61 142.229V142.264C225.61 142.529 225.61 142.794 225.61 143.059V143.395C225.61 143.645 225.61 143.888 225.653 144.11C225.696 144.332 225.689 144.404 225.71 144.554C225.732 144.704 225.767 145.04 225.81 145.269C225.853 145.498 225.939 145.899 226.025 146.214C226.06 146.35 226.11 146.478 226.153 146.607C226.225 146.85 226.311 147.086 226.404 147.323C226.454 147.444 226.504 147.573 226.561 147.695C226.668 147.945 226.797 148.188 226.925 148.41C226.983 148.51 227.026 148.603 227.083 148.696C227.282 149.029 227.502 149.349 227.74 149.655C229.27 151.565 231.522 152.781 233.188 154.57C233.188 154.641 233.188 154.713 233.188 154.777C233.188 154.978 233.188 155.171 233.188 155.371C233.276 159.36 234.337 163.267 236.279 166.752C238.22 170.237 240.982 173.195 244.326 175.368C244.326 175.639 244.362 175.918 244.376 176.19C244.516 178.314 244.489 180.445 244.298 182.565C244.007 182.222 243.642 181.948 243.231 181.765C242.821 181.582 242.374 181.493 241.924 181.506C241.617 181.491 241.309 181.518 241.009 181.585L240.945 181.535V181.599C239.372 181.985 237.435 183.624 235.583 188.281C235.583 188.281 229.95 194.634 225.66 194.37C221.371 194.105 210.511 200.98 210.511 200.98C210.511 200.98 199.916 207.863 197.643 214.874C196.372 218.85 194.849 222.74 193.082 226.521L179.985 253.529L177.568 274.956C177.568 274.956 178.905 284.486 178.641 285.938C178.376 287.39 184.138 300.49 184.138 300.49C184.138 300.49 203.176 333.965 210.954 335.682L211.512 335.289C211.845 335.463 212.198 335.595 212.563 335.682L214.164 334.552C214.261 335.812 214.22 337.078 214.043 338.33C212.971 341.635 214.443 363.205 216.316 367.433C218.189 371.662 217.524 427.101 217.524 427.101L217.26 431.994C217.26 431.994 217.26 432.152 217.324 432.424L217.26 433.583L217.453 433.683C217.653 435.235 217.588 436.81 217.26 438.34C216.588 440.487 216.316 446.553 216.316 446.553C216.316 446.553 210.962 480.808 213.5 487.691C216.037 494.573 218.196 502.114 218.196 502.114C218.196 502.114 220.877 510.699 218.325 512.166C215.773 513.633 208.517 516.094 210.011 519.671C211.369 522.976 216.524 531.833 217.289 533.128L217.224 533.808L216.173 545.205C216.343 546.71 216.751 548.178 217.381 549.555C218.532 552.037 220.77 554.613 225.024 554.334C225.739 554.284 226.568 554.198 227.369 554.091C235.154 553.046 244.741 549.569 244.741 549.569C244.243 549.253 243.787 548.875 243.383 548.446V548.446C243 548.075 242.697 547.63 242.491 547.138C242.286 546.646 242.183 546.117 242.189 545.584C242.303 543.509 238.421 533.622 237.456 531.189C237.306 530.839 237.227 530.639 237.227 530.639C237.227 530.639 246.078 521.381 244.605 513.175C244.605 513.175 234.811 507.451 238.035 504.311C241.259 501.17 247.021 492.148 247.021 492.148C247.021 492.148 247.286 458.415 247.021 453.379C246.746 449.883 246.911 446.366 247.515 442.912C247.622 442.39 247.751 441.882 247.887 441.381C252.346 442.047 256.847 442.389 261.355 442.404C263 442.404 264.673 442.404 266.36 442.304C266.36 442.781 266.381 443.296 266.424 443.849C266.796 452.205 267.489 466.857 268.054 472.302C268.855 480.107 273.28 501.141 273.28 501.141C273.28 501.141 264.837 506.564 274.753 519.929C274.753 519.929 274.753 524.772 274.095 525.473C273.393 527.765 272.827 530.097 272.401 532.456C271.986 534.974 271.814 537.521 272.486 538.845C274.095 542.007 283.746 541.749 283.746 541.749L283.982 541.706C285.804 541.518 287.645 541.693 289.399 542.223C291.153 542.752 292.784 543.625 294.198 544.79C297.866 547.737 311.785 546.443 319.32 545.505C322.273 545.133 324.246 544.79 324.246 544.79C324.341 544.455 324.375 544.106 324.346 543.76C324.267 541.907 322.816 537.843 312.979 534.216C312.979 534.216 303.728 527.991 303.857 522.568H303.664H302.591C303.37 522.526 303.871 522.568 303.871 522.568C303.871 522.568 300.246 509.333 301.726 508.26C303.206 507.187 298.774 492.52 298.774 492.52C298.774 492.52 296.236 467.909 296.1 466.185C296.105 464.705 296.33 463.235 296.765 461.821L296.1 448.328C296.1 448.328 295.971 443.842 296.1 442.382C296.078 441.116 295.975 439.851 295.792 438.598C295.728 438.097 295.664 437.575 295.592 437.06C299.06 436.18 301.311 435.364 301.311 435.364L300.911 388.396C303.857 382.672 304.4 370.116 304.386 361.209C304.386 355.486 304.128 351.25 304.128 351.25L308.153 344.675C308.153 344.675 309.082 336.806 307.61 335.081C306.959 334.302 307.252 333.493 307.789 332.828C308.067 332.607 308.361 332.406 308.668 332.227C308.668 332.227 308.625 332.162 308.575 332.069C308.856 331.834 309.155 331.622 309.469 331.433C309.469 331.433 308.039 329.215 309.318 328.278C310.519 329.093 311.592 329.708 312.407 330.209C312.35 330.732 312.292 331.032 312.292 331.032L312.636 330.317C313.422 330.76 313.901 331.032 313.901 331.032C313.901 331.032 320.206 318.462 320.071 316.609C319.935 314.756 324.36 306.951 324.36 306.951C324.36 306.951 324.896 302.851 327.313 301.134C329.729 299.417 329.186 286.976 329.186 286.976C329.186 286.976 329.858 280.494 331.466 277.847C333.075 275.199 330.001 271.629 330.001 271.629ZM209.353 266.113L209.475 269.111C208.76 267.959 208.245 267.129 208.245 267.129L209.353 266.113Z" fill="url(#paint0_linear_1421_887)"/>
<path d="M314.244 325.602L312.7 332.184C312.7 332.184 300.332 325.867 298.102 317.839C295.871 309.812 301.833 306.764 301.833 306.764L313.358 311.651L314.244 325.602Z" fill="white"/>
<path opacity="0.1" d="M314.244 325.602L312.7 332.184C312.7 332.184 300.332 325.867 298.102 317.839C295.871 309.812 301.833 306.764 301.833 306.764L313.358 311.651L314.244 325.602Z" fill="black"/>
<path d="M244.834 549.612C244.834 549.612 233.395 553.819 225.531 554.348C221.356 554.627 219.162 552.066 218.032 549.598C217.415 548.225 217.017 546.765 216.853 545.269L217.875 533.93L218.418 527.891L235.126 523.549L237.492 530.789L237.714 531.34C238.664 533.758 242.475 543.595 242.36 545.648C242.356 546.174 242.457 546.695 242.659 547.181C242.86 547.667 243.157 548.107 243.533 548.474C243.916 548.907 244.354 549.29 244.834 549.612V549.612Z" fill="white"/>
<path d="M322.966 543.846C322.995 544.19 322.961 544.536 322.866 544.869C322.866 544.869 298.402 548.954 293.398 544.869C291.987 543.675 290.342 542.79 288.569 542.27C286.796 541.75 284.934 541.607 283.103 541.849C283.103 541.849 273.638 542.107 272.058 538.988C271.4 537.678 271.572 535.139 271.979 532.635C272.395 530.288 272.949 527.969 273.638 525.688L274.017 525.387L276.268 523.577L302.634 522.797H302.834C302.706 528.192 311.785 534.38 311.785 534.38C321.429 537.957 322.852 542 322.966 543.846Z" fill="white"/>
<path opacity="0.1" d="M322.966 543.846C322.991 544.19 322.955 544.537 322.859 544.869C322.859 544.869 298.402 548.954 293.398 544.869C291.988 543.676 290.344 542.792 288.573 542.272C286.801 541.752 284.941 541.608 283.11 541.849C283.11 541.849 273.638 542.107 272.065 538.988C271.407 537.671 271.572 535.139 271.979 532.635C275.625 532.999 281.38 533.908 283.639 536.076C287.057 539.374 292.847 542.665 296.4 542.923C299.181 543.101 315.817 543.631 322.966 543.846Z" fill="black"/>
<path opacity="0.1" d="M244.834 549.612C244.834 549.612 233.395 553.819 225.531 554.348C221.356 554.627 219.161 552.066 218.039 549.59C220.949 550.571 224.988 551.601 227.111 550.656C229.628 549.54 238.55 548.818 243.554 548.51C243.935 548.927 244.365 549.297 244.834 549.612V549.612Z" fill="black"/>
<path d="M261.806 210.603C252.369 206.933 240.23 194.806 243.261 189.14C243.934 187.71 244.334 186.167 244.441 184.59C244.636 182.449 244.664 180.296 244.526 178.151C244.314 174.637 243.891 171.14 243.261 167.677C243.261 167.677 272.722 168.342 271.007 172.685C270.506 173.958 270.427 176.169 270.563 178.644C270.699 181.12 271.057 183.917 271.428 186.285C271.943 189.533 272.458 192.009 272.458 192.009C272.458 192.009 270.656 194.534 269.598 194.67C268.54 194.806 275.346 215.833 261.806 210.603Z" fill="#885200"/>
<path opacity="0.1" d="M237.692 531.34L237.471 531.583C228.663 520.923 218.011 534.209 218.011 534.209L217.854 533.93L218.397 527.891L235.104 523.549L237.471 530.789L237.692 531.34Z" fill="black"/>
<path opacity="0.1" d="M302.842 523.549C302.842 523.549 296.407 523.413 292.976 526.446C289.544 529.48 272.958 527.104 273.673 526.446C273.885 526.12 274.013 525.746 274.045 525.359L276.297 523.549L302.663 522.769C302.763 523.248 302.842 523.549 302.842 523.549Z" fill="black"/>
<path d="M248.651 439.835C248.172 441.021 247.808 442.25 247.565 443.506C246.969 446.944 246.803 450.443 247.072 453.922C247.336 458.93 247.072 492.492 247.072 492.492C247.072 492.492 241.417 501.442 238.264 504.597C235.111 507.752 244.698 513.418 244.698 513.418C246.128 521.574 237.463 530.789 237.463 530.789C228.656 520.129 218.003 533.422 218.003 533.422C218.003 533.422 212.213 523.405 210.769 519.828C209.324 516.251 216.423 513.776 218.918 512.323C221.414 510.871 218.797 502.307 218.797 502.307C218.797 502.307 216.688 494.802 214.186 487.956C211.684 481.109 216.945 447.026 216.945 447.026C216.945 447.026 217.217 440.973 217.868 438.862C218.196 437.339 218.261 435.771 218.061 434.226C218.018 433.704 217.968 433.268 217.932 432.974C217.896 432.681 217.868 432.545 217.868 432.545L217.968 432.373L221.542 425.706C221.542 425.706 250.367 435.636 248.651 439.835Z" fill="#385CAD"/>
<path d="M302.842 522.762C302.842 522.762 296.407 522.626 292.976 525.623C289.544 528.621 272.958 526.282 273.673 525.623C274.388 524.965 274.331 520.093 274.331 520.093C264.601 506.8 272.901 501.406 272.901 501.406C272.901 501.406 268.555 480.479 267.768 472.717C267.218 467.294 266.539 452.72 266.174 444.4C266.017 440.823 265.924 438.362 265.924 438.362L273.874 436.759L274.896 436.552L294.07 432.703C294.07 432.703 294.599 436.28 294.956 439.206C295.134 440.455 295.235 441.714 295.256 442.976C295.128 444.407 295.256 448.886 295.256 448.886L295.907 462.314C295.482 463.723 295.263 465.186 295.256 466.657C295.385 468.367 297.88 492.849 297.88 492.849C297.88 492.849 302.22 507.458 300.74 508.51C299.26 509.562 302.842 522.762 302.842 522.762Z" fill="#385CAD"/>
<path opacity="0.1" d="M271.007 172.685C270.506 173.958 270.428 176.169 270.563 178.644C266.617 181.022 262.081 182.238 257.475 182.152C252.869 182.066 248.381 180.682 244.527 178.158C244.314 174.642 243.892 171.142 243.261 167.677C243.261 167.677 272.722 168.328 271.007 172.685Z" fill="black"/>
<path d="M282.395 156.874C282.401 159.452 281.995 162.014 281.194 164.464C279.403 169.954 275.73 174.634 270.825 177.676C265.919 180.718 260.097 181.927 254.387 181.089C248.678 180.251 243.448 177.419 239.622 173.096C235.796 168.772 233.621 163.234 233.481 157.46C233.481 157.26 233.481 157.074 233.481 156.874C233.426 153.624 234.017 150.396 235.222 147.377C236.426 144.358 238.219 141.61 240.496 139.292C242.773 136.974 245.488 135.133 248.483 133.877C251.478 132.62 254.694 131.973 257.942 131.973C261.19 131.973 264.405 132.62 267.4 133.877C270.395 135.133 273.111 136.974 275.388 139.292C277.664 141.61 279.457 144.358 280.662 147.377C281.866 150.396 282.458 153.624 282.402 156.874H282.395Z" fill="#975B00"/>
<path opacity="0.1" d="M261.806 210.603C252.369 206.933 240.23 194.806 243.261 189.14C243.934 187.71 244.334 186.167 244.441 184.589L257.359 195.214L265.352 201.774L271.428 186.292C271.943 189.54 272.458 192.016 272.458 192.016C272.458 192.016 270.656 194.541 269.598 194.677C268.54 194.813 275.346 215.833 261.806 210.603Z" fill="black"/>
<path d="M295.213 257.557L284.425 438.92L270.356 439.843L233.924 334.681L239.901 209.83L241.159 183.452L257.359 196.766L265.359 203.327L271.614 187.394L283.246 197.539L295.213 257.557Z" fill="#385CAD"/>
<path opacity="0.1" d="M248.652 439.835C248.172 441.021 247.809 442.25 247.565 443.506C237.328 441.924 227.385 438.815 218.068 434.284L217.875 434.184L217.939 433.032L217.975 432.431L221.55 425.763C221.55 425.763 250.367 435.636 248.652 439.835Z" fill="black"/>
<path opacity="0.1" d="M274.038 443.534C271.421 443.98 268.781 444.281 266.131 444.436C265.974 440.859 265.881 438.397 265.881 438.397L273.831 436.795L274.038 443.534Z" fill="black"/>
<path opacity="0.1" d="M294.913 439.242C289.83 440.565 281.981 442.053 274.953 441.123L274.853 436.587L294.027 432.738C294.027 432.738 294.556 436.28 294.913 439.242Z" fill="black"/>
<path opacity="0.1" d="M274.824 441.953C245.513 446.961 218.668 432.602 218.668 432.602L218.926 427.737C218.926 427.737 219.59 372.585 217.746 368.356C215.902 364.128 214.465 342.686 215.508 339.395C216.552 336.104 211.698 286.754 211.698 286.754L210.912 266.722L182.129 255.053L194.998 228.21C196.736 224.446 198.231 220.575 199.473 216.62C201.711 209.651 212.098 202.805 212.098 202.805C212.098 202.805 222.75 195.965 226.961 196.223C231.172 196.48 236.691 190.17 236.691 190.17C240.766 179.775 244.455 184.482 244.455 184.482C244.455 184.976 244.455 184.482 244.255 186.02C242.825 197.432 267.375 233.49 267.725 234.126L270.063 291.118L272.429 363.241L274.824 441.953Z" fill="black"/>
<path d="M274.038 441.953C244.727 446.961 217.875 432.602 217.875 432.602L218.139 427.737C218.139 427.737 218.804 372.585 216.953 368.356C215.101 364.128 213.671 342.686 214.722 339.395C215.773 336.104 210.912 286.754 210.912 286.754L210.118 266.722L181.322 255.01L194.19 228.167C195.924 224.402 197.419 220.531 198.665 216.577C200.896 209.608 211.291 202.762 211.291 202.762C211.291 202.762 221.943 195.922 226.146 196.18C230.35 196.437 235.876 190.127 235.876 190.127C239.958 179.732 244.455 184.439 244.455 184.439C244.455 184.933 244.026 185.155 244.255 185.977C247.401 197.045 266.589 233.447 266.939 234.083L269.305 291.075L271.672 363.198L274.038 441.953Z" fill="white"/>
<path opacity="0.1" d="M266.138 235.707C262.986 234.391 246.285 215.31 246.285 215.31V210.968C245.678 209.537 242.067 210.41 239.136 211.411L240.394 185.033L241.824 186.221C244.956 197.281 265.774 235.071 266.138 235.707Z" fill="black"/>
<path d="M266.932 234.126C263.772 232.81 247.071 213.729 247.071 213.729V209.386C246.464 207.956 242.853 208.828 239.922 209.83L241.188 183.452L242.618 184.64C245.756 195.7 266.581 233.497 266.932 234.126Z" fill="white"/>
<path opacity="0.1" d="M218.668 329.286C219.061 329.286 239.05 327.183 239.05 327.183C239.05 327.183 251.153 351 250.36 356.795C249.566 362.59 248.129 367.72 243.261 366.811C238.392 365.902 217.06 367.526 217.06 367.526L218.668 329.286Z" fill="black"/>
<path d="M217.875 327.705C218.268 327.705 238.257 325.602 238.257 325.602C238.257 325.602 250.353 349.426 249.566 355.214C248.78 361.002 247.329 366.138 242.467 365.23C237.606 364.321 216.266 365.945 216.266 365.945L217.875 327.705Z" fill="white"/>
<path d="M232.938 316.523C232.938 316.523 251.282 326.389 251.675 329.401C252.069 332.413 242.339 328.084 240.237 327.562C238.854 327.229 237.445 327.008 236.026 326.904L222.007 327.283L232.938 316.523Z" fill="#975B00"/>
<path opacity="0.1" d="M261.02 236.938C262.086 236.938 262.95 236.073 262.95 235.006C262.95 233.939 262.086 233.075 261.02 233.075C259.954 233.075 259.089 233.939 259.089 235.006C259.089 236.073 259.954 236.938 261.02 236.938Z" fill="black"/>
<path d="M261.02 236.151C262.086 236.151 262.95 235.286 262.95 234.219C262.95 233.152 262.086 232.288 261.02 232.288C259.954 232.288 259.089 233.152 259.089 234.219C259.089 235.286 259.954 236.151 261.02 236.151Z" fill="#3F3D56"/>
<path opacity="0.1" d="M264.572 320.558C265.638 320.558 266.503 319.693 266.503 318.626C266.503 317.56 265.638 316.695 264.572 316.695C263.506 316.695 262.642 317.56 262.642 318.626C262.642 319.693 263.506 320.558 264.572 320.558Z" fill="black"/>
<path d="M264.572 319.764C265.638 319.764 266.503 318.899 266.503 317.832C266.503 316.765 265.638 315.901 264.572 315.901C263.506 315.901 262.642 316.765 262.642 317.832C262.642 318.899 263.506 319.764 264.572 319.764Z" fill="#3F3D56"/>
<path opacity="0.1" d="M262.942 278.748C264.008 278.748 264.873 277.883 264.873 276.816C264.873 275.749 264.008 274.885 262.942 274.885C261.876 274.885 261.012 275.749 261.012 276.816C261.012 277.883 261.876 278.748 262.942 278.748Z" fill="black"/>
<path d="M262.942 277.961C264.008 277.961 264.873 277.096 264.873 276.029C264.873 274.963 264.008 274.098 262.942 274.098C261.876 274.098 261.012 274.963 261.012 276.029C261.012 277.096 261.876 277.961 262.942 277.961Z" fill="#3F3D56"/>
<path d="M307.438 326.503C307.438 326.503 308.754 328.478 307.438 329.401C306.123 330.324 307.567 332.556 307.567 332.556C307.567 332.556 304.286 334.48 305.73 336.212C307.174 337.943 306.259 345.763 306.259 345.763L302.312 352.302C302.312 352.302 302.548 356.516 302.563 362.211C302.563 371.096 302.041 383.588 299.153 389.283L299.553 436.008C299.553 436.008 285.734 441.059 274.167 439.521L272.451 364.543C272.451 364.543 274.953 322.025 275.875 313.869C276.415 309.635 276.635 305.366 276.533 301.098C276.533 301.098 276.14 288.335 274.817 282.411C274.817 282.411 273.387 256.748 273.244 249.644C273.18 246.246 273.359 236.33 273.559 226.9C273.781 216.591 274.031 206.868 274.031 206.868L271.421 186.206C271.421 186.206 274.031 185.942 274.817 186.993C275.169 187.323 275.552 187.617 275.961 187.873V187.873C280.465 190.921 296.379 200.293 296.379 200.293C296.379 200.293 305.186 203.799 307.295 208.821C309.404 213.844 310.87 217.407 311.892 218.837C312.915 220.268 313.472 226.993 313.472 226.993C313.472 226.993 316.503 239.37 318.87 241.467C321.236 243.563 322.966 256.899 322.966 256.899L302.055 273.354C302.055 273.354 300.218 300.726 299.825 301.785C299.431 302.844 307.438 326.503 307.438 326.503Z" fill="white"/>
<path d="M308.232 326.503C308.232 326.503 309.54 328.478 308.232 329.401C306.923 330.324 308.353 332.556 308.353 332.556C308.353 332.556 305.093 334.502 306.523 336.233C307.953 337.965 307.052 345.784 307.052 345.784L303.106 352.323C303.106 352.323 303.342 356.537 303.363 362.232C303.363 371.118 302.841 383.609 299.953 389.304L300.346 436.029C300.346 436.029 286.506 441.08 274.953 439.542L273.244 364.564C273.244 364.564 275.746 322.046 276.669 313.89C277.209 309.656 277.426 305.387 277.319 301.12C277.319 301.12 276.926 288.356 275.611 282.432C275.611 282.432 274.181 256.77 274.031 249.666C273.966 246.267 274.152 236.351 274.345 226.922C274.567 216.612 274.817 206.89 274.817 206.89L271.371 185.949C271.371 185.949 274.817 185.949 275.611 187.015C275.959 187.348 276.343 187.643 276.754 187.895C281.258 190.943 297.179 200.315 297.179 200.315C297.179 200.315 305.98 203.82 308.089 208.843C310.198 213.865 311.663 217.428 312.693 218.859C313.722 220.29 314.265 227.015 314.265 227.015C314.265 227.015 317.297 239.392 319.663 241.488C322.029 243.584 323.738 256.891 323.738 256.891L302.827 273.346C302.827 273.346 300.99 300.719 300.589 301.778C300.189 302.837 308.232 326.503 308.232 326.503Z" fill="white"/>
<path d="M281.92 233.67L281.959 237.306L283.557 237.288L283.546 236.26L282.885 236.267L282.868 234.688L284.259 234.673L284.248 233.645L281.92 233.67Z" fill="#6ABF4B"/>
<path d="M289.764 233.585L288.195 233.602L288.206 234.63L288.837 234.623L288.854 236.202L287.493 236.217L287.504 237.245L289.803 237.22L289.764 233.585Z" fill="#385CAD"/>
<path d="M287.465 233.61L285.185 233.634L285.196 234.663L286.538 234.648L286.555 236.227L286.566 237.257L286.583 238.781L285.241 238.796L285.233 238.07L284.295 238.081L284.314 239.829L287.531 239.794L287.504 237.245L287.493 236.217L287.465 233.61Z" fill="#6ABF4B"/>
<path d="M285.214 236.242L285.197 234.663L285.186 233.634L285.17 232.152L286.511 232.138L286.518 232.814L287.456 232.803L287.438 231.099L284.221 231.134L284.248 233.645L284.259 234.673L284.287 237.282L286.566 237.257L286.555 236.227L285.214 236.242Z" fill="#385CAD"/>
<path d="M291.937 234.073L291.572 234.077C291.521 233.978 291.427 233.926 291.304 233.928C291.091 233.93 290.952 234.097 290.955 234.354C290.958 234.63 291.103 234.789 291.34 234.786C291.503 234.784 291.616 234.688 291.665 234.52L291.247 234.525L291.244 234.259L291.961 234.251L291.965 234.587C291.898 234.844 291.676 235.102 291.318 235.106C290.914 235.11 290.624 234.802 290.619 234.358C290.615 233.914 290.895 233.599 291.3 233.594C291.625 233.589 291.862 233.77 291.937 234.073Z" fill="#385CAD"/>
<path d="M292.971 233.882L292.472 233.888L292.475 234.188L292.917 234.183L292.92 234.462L292.478 234.467L292.481 234.792L292.981 234.787L292.984 235.077L292.154 235.086L292.138 233.601L292.968 233.592L292.971 233.882Z" fill="#385CAD"/>
<path d="M294.406 234.319C294.411 234.758 294.137 235.064 293.705 235.069L293.198 235.074L293.182 233.59L293.689 233.585C294.121 233.58 294.401 233.877 294.406 234.319ZM293.68 234.756C293.929 234.753 294.073 234.595 294.07 234.323C294.068 234.05 293.92 233.891 293.671 233.894L293.515 233.895L293.524 234.757L293.68 234.756Z" fill="#385CAD"/>
<path d="M295.416 233.856L294.917 233.861L294.92 234.161L295.362 234.157L295.365 234.436L294.923 234.44L294.927 234.766L295.426 234.76L295.429 235.05L294.6 235.059L294.583 233.575L295.413 233.566L295.416 233.856Z" fill="#385CAD"/>
<path d="M296.283 235.055C295.9 235.059 295.583 234.748 295.579 234.301C295.574 233.855 295.882 233.539 296.267 233.535C296.652 233.531 296.962 233.841 296.967 234.286C296.973 234.733 296.667 235.051 296.283 235.055ZM296.279 234.725C296.495 234.723 296.634 234.55 296.631 234.29C296.628 234.025 296.486 233.861 296.27 233.863C296.05 233.865 295.913 234.034 295.916 234.298C295.919 234.558 296.06 234.727 296.279 234.725Z" fill="#385CAD"/>
<path d="M298.355 233.534L298.371 235.018L298.041 235.022L297.48 234.112L297.49 235.028L297.161 235.031L297.145 233.547L297.474 233.543L298.035 234.458L298.025 233.537L298.355 233.534Z" fill="#385CAD"/>
<path d="M290.692 235.79L290.969 235.787L291.365 236.771L291.74 235.779L292.014 235.776L292.028 237.105L291.784 237.107L291.775 236.243L291.459 237.111L291.275 237.113L290.94 236.252L290.949 237.116L290.706 237.119L290.691 235.79L290.692 235.79Z" fill="#6ABF4B"/>
<path d="M292.959 235.981L292.499 235.986L292.502 236.319L292.911 236.315L292.913 236.526L292.505 236.531L292.509 236.883L292.969 236.878L292.971 237.096L292.267 237.103L292.253 235.772L292.957 235.765L292.959 235.981Z" fill="#6ABF4B"/>
<path d="M294.247 236.418C294.251 236.819 294.002 237.083 293.615 237.087L293.192 237.092L293.177 235.763L293.601 235.759C293.987 235.754 294.242 236.014 294.247 236.418ZM293.603 236.862C293.858 236.859 294.001 236.697 293.998 236.422C293.995 236.146 293.849 235.982 293.593 235.984L293.421 235.986L293.431 236.864L293.603 236.862Z" fill="#6ABF4B"/>
<path d="M294.42 235.75L294.664 235.747L294.678 237.076L294.435 237.079L294.42 235.75Z" fill="#6ABF4B"/>
<path d="M295.459 235.722C295.728 235.719 295.949 235.874 296.033 236.146L295.754 236.149C295.695 236.022 295.59 235.96 295.459 235.962C295.247 235.964 295.098 236.136 295.101 236.405C295.104 236.673 295.258 236.844 295.469 236.842C295.599 236.84 295.703 236.776 295.759 236.646L296.038 236.643C295.96 236.918 295.743 237.076 295.473 237.079C295.125 237.083 294.855 236.806 294.851 236.408C294.848 236.01 295.11 235.726 295.459 235.722Z" fill="#6ABF4B"/>
<path d="M296.992 236.798L296.509 236.803L296.432 237.057L296.176 237.06L296.598 235.724L296.881 235.721L297.331 237.047L297.075 237.05L296.992 236.798ZM296.742 236.031L296.573 236.589L296.923 236.585L296.742 236.031Z" fill="#6ABF4B"/>
<path d="M297.722 235.714L297.734 236.831L298.134 236.827L298.136 237.038L297.494 237.045L297.479 235.716L297.722 235.714Z" fill="#6ABF4B"/>
<path d="M299.245 235.681C299.515 235.678 299.735 235.833 299.82 236.104L299.54 236.107C299.481 235.981 299.377 235.919 299.247 235.921C299.035 235.923 298.886 236.094 298.889 236.364C298.892 236.632 299.044 236.803 299.256 236.8C299.386 236.799 299.491 236.735 299.546 236.605L299.825 236.602C299.747 236.877 299.53 237.035 299.26 237.038C298.911 237.042 298.642 236.764 298.638 236.367C298.633 235.969 298.896 235.684 299.245 235.681Z" fill="#6ABF4B"/>
<path d="M300.728 235.896L300.268 235.901L300.272 236.235L300.68 236.23L300.682 236.442L300.274 236.446L300.278 236.799L300.738 236.794L300.74 237.011L300.036 237.019L300.022 235.688L300.726 235.68L300.728 235.896Z" fill="#6ABF4B"/>
<path d="M301.983 235.666L301.997 236.997L301.753 237L301.193 236.094L301.203 237.006L300.96 237.009L300.945 235.678L301.189 235.675L301.749 236.583L301.739 235.669L301.983 235.666Z" fill="#6ABF4B"/>
<path d="M302.157 235.666L303.046 235.656L303.049 235.871L302.726 235.874L302.738 236.988L302.494 236.991L302.482 235.877L302.16 235.881L302.157 235.666V235.666Z" fill="#6ABF4B"/>
<path d="M303.929 235.861L303.469 235.866L303.472 236.2L303.88 236.196L303.883 236.407L303.475 236.411L303.478 236.764L303.939 236.759L303.941 236.976L303.237 236.984L303.223 235.653L303.926 235.645L303.929 235.861Z" fill="#6ABF4B"/>
<path d="M304.601 235.639C304.892 235.636 305.04 235.818 305.043 236.042C305.044 236.203 304.965 236.368 304.771 236.427L305.067 236.963L304.785 236.966L304.512 236.451L304.397 236.452L304.403 236.97L304.159 236.973L304.145 235.644L304.601 235.639ZM304.595 235.86L304.391 235.862L304.395 236.253L304.599 236.251C304.734 236.249 304.794 236.17 304.793 236.05C304.792 235.933 304.73 235.858 304.595 235.86Z" fill="#6ABF4B"/>
<path opacity="0.1" d="M283.189 212.964L285.076 218.473L275.139 228.489C275.361 218.186 275.611 208.456 275.611 208.456L272.165 187.516C272.165 187.516 275.611 187.516 276.404 188.582C276.752 188.914 277.136 189.207 277.548 189.454L285.998 213.851L283.189 212.964Z" fill="black"/>
<path d="M282.395 211.383L284.289 216.891L274.352 226.908C274.574 216.598 274.824 206.875 274.824 206.875L271.371 185.935C271.371 185.935 274.824 185.935 275.611 187.001C275.961 187.332 276.344 187.627 276.754 187.881L285.212 212.27L282.395 211.383Z" fill="white"/>
<path opacity="0.1" d="M282.395 156.874C282.401 159.452 281.995 162.014 281.194 164.464C281.059 164.485 280.921 164.479 280.788 164.446C280.656 164.413 280.531 164.353 280.422 164.271C280.236 157.832 277.069 151.787 273.173 146.643C272.079 145.09 270.753 143.714 269.241 142.565C267.712 141.416 265.811 140.878 263.908 141.055C261.763 141.349 259.868 142.808 257.702 142.994C254.843 143.23 252.283 141.248 249.445 141.148C248.291 141.159 247.153 141.416 246.106 141.902C245.06 142.389 244.129 143.092 243.375 143.967C241.884 145.732 240.777 147.789 240.123 150.005C238.999 153.367 238.386 156.878 238.307 160.422C238.271 162.425 238.078 164.937 236.219 165.666C236.359 164.193 236.192 162.707 235.728 161.302C235.264 159.896 234.513 158.603 233.524 157.503L233.481 157.46C233.481 157.26 233.481 157.074 233.481 156.874C233.426 153.624 234.017 150.396 235.222 147.377C236.426 144.358 238.219 141.61 240.496 139.292C242.773 136.974 245.488 135.133 248.483 133.877C251.478 132.62 254.694 131.973 257.942 131.973C261.19 131.973 264.405 132.62 267.4 133.877C270.395 135.133 273.111 136.974 275.388 139.292C277.664 141.61 279.457 144.358 280.662 147.377C281.866 150.396 282.458 153.624 282.402 156.874H282.395Z" fill="black"/>
<path d="M268.068 118.004C264.353 116.255 260.128 115.924 256.187 117.074C254.206 117.661 252.34 118.612 250.331 119.091C246.042 120.129 241.038 119.006 237.356 121.517C235.311 122.948 234.082 125.208 232.938 127.405L230.078 132.856C228.52 135.84 226.947 138.873 226.296 142.157C225.646 145.441 226.039 149.118 228.119 151.758C229.635 153.683 231.873 154.892 233.517 156.702C234.502 157.803 235.249 159.096 235.712 160.499C236.174 161.902 236.342 163.386 236.205 164.858C238.071 164.142 238.25 161.624 238.292 159.621C238.372 156.077 238.984 152.566 240.108 149.204C240.761 146.987 241.869 144.93 243.361 143.166C244.115 142.292 245.046 141.588 246.093 141.102C247.139 140.616 248.277 140.359 249.431 140.347C252.29 140.447 254.857 142.422 257.688 142.186C259.833 142.007 261.734 140.54 263.893 140.254C265.797 140.074 267.699 140.612 269.226 141.764C270.738 142.911 272.062 144.287 273.151 145.842C277.055 150.986 280.222 157.017 280.408 163.47C281.215 164.064 282.381 163.291 282.781 162.375C283.181 161.46 283.196 160.386 283.703 159.514C284.289 158.505 285.412 157.968 286.291 157.21C288.522 155.285 289.079 152.044 288.994 149.104C288.908 146.164 288.336 143.18 288.893 140.29C289.229 138.516 289.987 136.856 290.402 135.103C290.817 133.35 290.867 131.383 289.887 129.873C288.457 127.655 285.448 127.219 282.824 127.011C279.843 126.754 277.176 127.083 275.275 124.572C274.382 123.261 273.377 122.031 272.272 120.894C271.893 120.522 268.068 118.161 268.068 118.004Z" fill="#301D00"/>
<path opacity="0.1" d="M190.365 268.875L182.895 255.053L180.528 276.38C180.528 276.38 181.844 285.852 181.579 287.305C181.315 288.757 186.97 301.778 186.97 301.778C186.97 301.778 205.65 335.074 213.278 336.791L239.051 318.362L232.216 309.676C232.216 309.676 229.85 308.753 229.256 309.676C229.256 309.676 216.567 287.827 215.251 286.246C213.936 284.665 214.193 281.51 214.193 281.51C214.193 281.51 212.22 279.406 212.878 277.432C213.536 275.457 209.067 268.61 209.067 268.61L213.142 264.797L190.365 268.875Z" fill="black"/>
<path d="M183.288 253.479L181.315 255.053L178.948 276.38C178.948 276.38 180.264 285.852 179.999 287.305C179.735 288.757 185.397 301.778 185.397 301.778C185.397 301.778 204.07 335.074 211.698 336.791L237.478 318.362L230.636 309.676C230.636 309.676 228.27 308.753 227.676 309.676C227.676 309.676 214.987 287.827 213.671 286.246C212.356 284.665 212.62 281.51 212.62 281.51C212.62 281.51 210.647 279.406 211.305 277.432C211.963 275.457 207.487 268.61 207.487 268.61L211.562 264.797L183.288 253.479Z" fill="white"/>
<path opacity="0.1" d="M305.73 337.027C307.16 338.766 306.259 346.571 306.259 346.571L302.312 353.11C302.312 353.11 302.548 357.331 302.563 363.019L295.928 365.094C295.329 365.281 294.693 365.322 294.074 365.214C293.456 365.106 292.872 364.851 292.372 364.47C291.871 364.09 291.469 363.596 291.199 363.029C290.928 362.461 290.797 361.837 290.817 361.209L291.961 324.285L307.438 330.209C306.123 331.125 307.567 333.371 307.567 333.371C307.567 333.371 304.286 335.289 305.73 337.027Z" fill="black"/>
<path d="M306.523 336.233C307.953 337.972 307.052 345.784 307.052 345.784L303.106 352.323C303.106 352.323 303.342 356.537 303.364 362.232L296.608 364.343C296.02 364.525 295.398 364.565 294.793 364.458C294.187 364.352 293.616 364.102 293.126 363.729C292.637 363.357 292.243 362.873 291.978 362.318C291.713 361.762 291.585 361.152 291.603 360.537L292.754 323.499L308.239 329.422C306.917 330.338 308.361 332.577 308.361 332.577C308.361 332.577 305.094 334.502 306.523 336.233Z" fill="white"/>
<path d="M311.649 318.634C311.649 318.634 310.598 325.351 307.967 325.745C305.337 326.138 304.157 336.612 301.533 336.24C298.91 335.868 300.647 326.503 300.74 324.686C300.833 322.869 297.88 315.343 300.089 313.633C302.298 311.923 309.29 313.633 309.29 313.633L311.649 318.634Z" fill="#975B00"/>
<path opacity="0.1" d="M317.247 266.9L322.208 256.884C322.208 256.884 324.182 264.518 324.182 268.596C324.182 272.674 326.941 273.075 326.941 273.075C326.941 273.075 329.965 276.652 328.371 279.256C326.777 281.86 326.133 288.342 326.133 288.342C326.133 288.342 326.655 300.712 324.289 302.422C321.922 304.132 321.429 308.217 321.429 308.217C321.429 308.217 317.083 315.979 317.218 317.825C317.354 319.671 311.17 332.17 311.17 332.17C311.17 332.17 314.194 316.637 296.572 309.927C296.572 309.927 296.436 304.654 297.751 303.209C299.067 301.764 301.119 301.105 299.832 293.801C298.545 286.496 299.46 277.768 299.46 276.015C299.46 274.262 303.406 263.33 303.406 263.33L317.247 266.9Z" fill="black"/>
<path d="M319.392 255.453L323.724 256.884C323.724 256.884 325.704 264.518 325.704 268.596C325.704 272.674 328.464 273.075 328.464 273.075C328.464 273.075 331.488 276.652 329.894 279.256C328.299 281.86 327.663 288.342 327.663 288.342C327.663 288.342 328.185 300.712 325.819 302.422C323.452 304.132 322.923 308.217 322.923 308.217C322.923 308.217 318.584 315.979 318.72 317.825C318.855 319.671 312.664 332.17 312.664 332.17C312.664 332.17 315.696 316.637 298.066 309.927C298.066 309.927 297.937 304.654 299.253 303.209C300.568 301.764 302.62 301.105 301.333 293.801C300.046 286.496 300.961 277.768 300.961 276.015C300.961 274.262 304.908 263.33 304.908 263.33L319.392 255.453Z" fill="white"/>
<path opacity="0.1" d="M223.701 515.064C223.701 515.064 230.607 510.721 235.14 513.876C239.672 517.031 223.701 515.064 223.701 515.064Z" fill="black"/>
<path opacity="0.1" d="M277.362 501.635C277.362 501.635 283.475 500.848 288.608 506.378C293.741 511.908 277.362 501.635 277.362 501.635Z" fill="black"/>
<g opacity="0.1">
<path opacity="0.1" d="M286.305 155.643C285.426 156.401 284.297 156.945 283.71 157.954C283.21 158.82 283.196 159.886 282.795 160.816C282.395 161.746 281.23 162.504 280.422 161.917C280.236 155.478 277.062 149.433 273.165 144.282C272.076 142.727 270.752 141.352 269.241 140.204C267.711 139.053 265.806 138.514 263.9 138.694C261.756 138.988 259.868 140.447 257.702 140.626C254.842 140.869 252.276 138.887 249.438 138.787C248.284 138.799 247.147 139.057 246.101 139.544C245.056 140.032 244.126 140.737 243.375 141.613C241.883 143.375 240.775 145.429 240.122 147.644C238.999 151.006 238.387 154.517 238.307 158.061C238.264 160.057 238.078 162.547 236.233 163.291C236.276 163.82 236.276 164.351 236.233 164.879C238.092 164.164 238.278 161.645 238.321 159.642C238.401 156.099 239.013 152.587 240.137 149.226C240.789 147.008 241.897 144.951 243.39 143.187C244.142 142.313 245.072 141.61 246.117 141.124C247.163 140.638 248.299 140.38 249.452 140.368C252.312 140.469 254.885 142.443 257.716 142.207C259.861 142.028 261.763 140.562 263.915 140.275C265.82 140.095 267.725 140.634 269.255 141.785C270.766 142.933 272.09 144.308 273.18 145.863C277.076 151.007 280.25 157.038 280.436 163.491C281.244 164.085 282.409 163.312 282.81 162.397C283.21 161.481 283.224 160.408 283.725 159.535C284.311 158.526 285.44 157.99 286.32 157.231C288.55 155.307 289.108 152.066 289.022 149.125C289.022 149.032 289.022 148.939 289.022 148.853C288.886 151.4 288.207 153.997 286.305 155.643Z" fill="black"/>
<path opacity="0.1" d="M233.531 155.135C231.887 153.325 229.642 152.116 228.134 150.199C226.863 148.501 226.138 146.458 226.053 144.339C225.828 146.987 226.567 149.627 228.134 151.772C229.642 153.697 231.887 154.906 233.531 156.716C235.11 158.487 236.058 160.731 236.226 163.098C236.336 161.657 236.154 160.21 235.69 158.841C235.227 157.473 234.493 156.212 233.531 155.135V155.135Z" fill="black"/>
<path opacity="0.1" d="M290.416 133.536C289.995 135.289 289.244 136.956 288.901 138.723C288.698 139.904 288.623 141.103 288.679 142.3C288.703 141.618 288.777 140.939 288.901 140.268C289.244 138.494 289.995 136.834 290.416 135.081C290.662 134.115 290.742 133.113 290.652 132.12C290.608 132.597 290.529 133.07 290.416 133.536V133.536Z" fill="black"/>
</g>
<path opacity="0.3" d="M94.8895 544.153C133.362 544.153 164.55 539.14 164.55 532.957C164.55 526.773 133.362 521.76 94.8895 521.76C56.4171 521.76 25.229 526.773 25.229 532.957C25.229 539.14 56.4171 544.153 94.8895 544.153Z" fill="#3B548E"/>
<path d="M97.1343 318.469H92.6519V419.467H97.1343V318.469Z" fill="#535461"/>
<path d="M125.301 419.159L125.023 423.71L124.622 430.149L124.458 432.824L124.065 439.263L123.893 441.939L123.493 448.378L118.974 521.402C118.778 524.544 117.393 527.493 115.1 529.649C112.808 531.805 109.781 533.005 106.635 533.007H83.1434C79.9984 533.005 76.9721 531.804 74.6809 529.648C72.3897 527.492 71.0059 524.544 70.8112 521.402L66.3145 448.328L65.9141 441.889L65.7497 439.213L65.3494 432.774L65.1849 430.098L64.7846 423.66L64.4986 419.109C64.449 418.234 64.5786 417.357 64.8796 416.533C65.1807 415.709 65.6467 414.956 66.2492 414.319C66.8517 413.681 67.5779 413.174 68.3833 412.828C69.1887 412.482 70.0563 412.304 70.9328 412.306H118.982C119.855 412.313 120.717 412.5 121.516 412.854C122.314 413.208 123.031 413.722 123.624 414.364C124.216 415.006 124.67 415.763 124.959 416.588C125.247 417.413 125.364 418.288 125.301 419.159V419.159Z" fill="#3F3D56"/>
<path d="M125.023 423.71L124.623 430.127H65.1567L64.7563 423.71H125.023Z" fill="#B1BBD2"/>
<path d="M124.458 432.803L124.065 439.227H65.7211L65.3208 432.803H124.458Z" fill="#B1BBD2"/>
<path d="M123.893 441.91L123.5 448.328H66.2861L65.8857 441.91H123.893Z" fill="#B1BBD2"/>
<path d="M57.9147 356.323C84.0159 375.224 94.9111 404.786 94.9111 404.786C94.9111 404.786 63.4552 403.706 37.3469 384.804C11.2385 365.902 0.364746 336.348 0.364746 336.348C0.364746 336.348 31.8063 337.421 57.9147 356.323Z" fill="#5F8F3F"/>
<path d="M0.343262 336.348C0.343262 336.348 33.0002 354.484 43.4736 369.501C53.9469 384.518 94.9111 404.786 94.9111 404.786" stroke="#535461" stroke-width="2" stroke-miterlimit="10"/>
<path d="M74.7647 318.247C88.9699 328.528 94.9107 344.618 94.9107 344.618C94.9107 344.618 77.7887 344.031 63.5764 333.751C49.3641 323.47 43.4375 307.373 43.4375 307.373C43.4375 307.373 60.5524 307.959 74.7647 318.247Z" fill="#79B154"/>
<path d="M43.4375 307.373C43.4375 307.373 61.2101 317.246 66.9079 325.416C72.6057 333.586 94.9107 344.618 94.9107 344.618" stroke="#535461" stroke-width="2" stroke-miterlimit="10"/>
<path d="M115.536 343.802C99.2147 361.753 95.7617 385.212 95.7617 385.212C95.7617 385.212 118.775 379.56 135.082 361.603C151.389 343.645 154.856 320.193 154.856 320.193C154.856 320.193 131.857 325.852 115.536 343.802Z" fill="#79B154"/>
<path d="M154.87 320.2C154.87 320.2 133.609 338.601 128.204 351.279C122.799 363.956 95.7617 385.212 95.7617 385.212" stroke="#535461" stroke-width="2" stroke-miterlimit="10"/>
<path d="M714.67 337.485C714.67 337.485 702.867 278.719 707.385 271.408C707.385 271.408 707.55 264.611 707.278 255.947C707.278 255.618 707.278 255.289 707.278 254.953C708.073 255.483 708.902 255.961 709.759 256.383C713.922 258.524 718.701 259.141 723.271 258.129L719.696 254.144C718.838 253.193 717.945 252.162 717.759 250.903C717.573 249.644 718.088 248.521 718.531 247.398C721.927 238.812 722.105 228.016 715.564 221.463C710.038 215.954 708.694 208.843 702.696 203.813C698.313 200.129 695.904 194.727 693.631 189.505C691.708 185.09 689.77 180.64 688.669 175.961C687.811 172.305 687.468 168.521 686.289 164.951C685.109 161.381 682.9 157.911 679.447 156.315C678.217 155.75 676.852 155.428 675.729 154.677C674.257 153.683 673.37 152.066 672.305 150.649C666.893 143.495 648.77 147.709 640.191 150.613C637.859 151.345 635.699 152.542 633.843 154.133L633.922 154.005C633.986 153.897 634.065 153.79 634.136 153.683C633.197 154.443 632.386 155.348 631.734 156.366C630.483 158.347 629.961 160.658 628.917 162.804C627.659 165.344 620.66 172.434 623.67 175.289C623.881 175.481 624.123 175.635 624.385 175.747C625.515 176.217 626.759 176.342 627.959 176.104L627.831 176.412C626.803 178.931 626.276 181.626 626.279 184.346C626.279 196.101 635.966 205.63 647.927 205.63C650.175 205.633 652.411 205.288 654.554 204.607C654.604 204.879 654.647 205.151 654.697 205.423C654.697 205.53 654.733 205.638 654.747 205.745L654.368 206.274C654.349 206.242 654.328 206.211 654.304 206.181L643.08 221.878C641.364 223.087 631.484 230.241 630.926 235.607C630.34 241.481 629.754 248.356 629.754 248.356L629.675 249.83C629.185 250.24 628.611 250.539 627.994 250.706C627.377 250.873 626.731 250.903 626.101 250.796C622.598 250.224 622.598 263.674 622.598 263.674C622.598 263.674 620.267 265.82 618.666 263.96C617.064 262.1 612.832 268.403 612.832 268.403L586.309 269.547L585.701 269.583L584.271 265.155C584.118 264.688 583.786 264.3 583.348 264.076C582.91 263.853 582.402 263.811 581.934 263.96C581.823 263.996 581.715 264.042 581.612 264.096L581.512 264.153L581.326 264.282L581.233 264.368C581.182 264.414 581.134 264.464 581.09 264.518L581.004 264.618L580.961 264.661C580.796 264.889 580.687 265.153 580.642 265.432C580.598 265.71 580.619 265.995 580.704 266.264L581.934 270.063C576.815 271.093 571.582 273.997 575.85 281.996L554.217 277.997L561.216 283.878L597.347 291.34C596.868 292.198 597.183 293.443 598.677 295.196C605.111 302.758 616.835 304.811 621.554 305.341C622.8 308.13 624.356 310.77 626.194 313.211L625.786 320.744C625.786 320.744 613.84 378.165 611.652 381.077C612.757 379.824 613.767 378.493 614.676 377.092C611.209 388.889 606.362 405.037 605.09 407.455C603.045 411.318 601.15 426.95 603.481 427.952C604.196 428.26 606.241 428.109 609.157 427.888V429.183L609.029 478.254C609.029 478.254 609.615 508.353 608.006 511.222C606.398 514.091 605.969 520.107 605.969 520.107C605.969 520.107 599.535 531.976 594.437 536.748C594.403 536.785 594.364 536.819 594.323 536.849L594.166 535.732C594.166 535.732 588.039 543.473 574.484 543.037C574.484 543.037 566.327 548.346 578.424 548.632C590.52 548.918 605.969 548.202 605.969 548.202C605.969 548.202 616.757 531.747 625.793 533.894V546.364H628.56V533.693C629.843 532.848 630.941 531.751 631.788 530.468C632.635 529.186 633.212 527.744 633.486 526.231C633.722 524.672 633.549 523.078 632.982 521.606C632.416 520.135 631.475 518.836 630.254 517.839C629.706 517.343 629.266 516.739 628.962 516.064C628.658 515.389 628.497 514.659 628.488 513.919L628.388 514.005C628.388 513.754 628.324 513.497 628.295 513.232C627.502 506.793 626.508 493.507 630.018 483.677C634.83 470.199 636.288 451.425 632.785 440.25C631.655 436.678 630.726 433.045 630.004 429.369C629.918 428.904 629.84 428.46 629.768 428.045C632.163 428.369 634.534 428.847 636.867 429.476C644.981 431.715 662.732 432.13 677.888 432.009C677.924 432.424 677.967 432.86 678.017 433.296C678.287 436.33 678.852 439.33 679.704 442.254C681.606 447.977 682.478 473.211 682.478 473.211C682.478 473.211 684.93 493.958 683.593 502.4C682.879 507.094 682.164 511.808 681.756 516.544V516.637C681.756 516.637 677.738 528.084 674.8 534.302C674.729 534.459 674.65 534.616 674.578 534.767C673.795 534.838 673.024 535.009 672.284 535.275C672.284 535.275 668.344 543.144 664.42 544.446C660.495 545.749 661.796 550.034 670.682 548.46C679.569 546.886 692.987 545.598 692.987 545.598L693.566 537.571L696.297 534.151L695.582 542.157L698.492 541.585L698.106 531.848L702.574 526.253C702.574 526.253 707.972 521.445 699.95 511.987V512.195C699.865 512.059 699.786 511.916 699.693 511.78V511.737C698.363 509.676 697.305 505.834 699.243 499.016C702.746 486.696 704.783 475.514 704.783 475.514C704.783 475.514 712.604 445.559 703.203 431.386H703.618C702.654 429.392 701.974 427.273 701.595 425.09C701.547 424.833 701.504 424.568 701.466 424.296C708.422 423.896 715.249 422.636 720.819 419.918C720.797 419.889 717.444 348.803 714.67 337.485ZM626.358 287.906V288.049L624.928 288.12L626.358 287.906ZM621.454 288.585C621.219 288.637 620.999 288.743 620.81 288.893C620.196 289.763 619.81 290.774 619.688 291.833L617.457 291.332C617.457 291.332 615.892 290.996 613.64 290.617L612.575 289.544C615.506 289.301 618.551 288.943 621.454 288.585V288.585Z" fill="url(#paint1_linear_1421_887)"/>
<path d="M695.254 531.948L694.403 542.086L697.255 541.513L696.826 530.517L695.254 531.948Z" fill="#1D2366"/>
<path d="M630.175 483.813C626.737 493.615 627.709 506.843 628.481 513.268C628.767 515.643 629.032 517.088 629.032 517.088C629.032 517.088 623.891 528.807 623.463 529.251C623.034 529.694 608.335 538.673 608.335 538.673L598.062 544.675C598.062 544.675 587.639 540.104 592.636 538.53C593.657 538.12 594.576 537.492 595.331 536.691C600.335 531.933 606.619 520.107 606.619 520.107C606.619 520.107 607.048 514.105 608.621 511.25C610.194 508.396 609.622 478.397 609.622 478.397L609.743 429.497V423.123L629.296 423.266C629.419 425.43 629.701 427.582 630.14 429.705C630.842 433.369 631.751 436.99 632.863 440.551C636.309 451.704 634.88 470.385 630.175 483.813Z" fill="#F3CEA2"/>
<path opacity="0.1" d="M629.032 517.088C629.032 517.088 623.891 528.807 623.463 529.251C623.034 529.694 608.335 538.673 608.335 538.673L598.062 544.675C598.062 544.675 587.639 540.104 592.636 538.53C593.657 538.12 594.576 537.492 595.331 536.691L595.774 539.818L599.199 539.674L628.51 513.282C628.767 515.643 629.032 517.088 629.032 517.088Z" fill="black"/>
<path d="M628.674 513.947L599.199 540.519L595.774 540.662L595.059 535.654C595.059 535.654 589.068 543.366 575.757 542.937C575.757 542.937 567.764 548.224 579.61 548.51C591.456 548.796 606.584 548.081 606.584 548.081C606.584 548.081 617.15 531.626 625.993 533.772V546.199H628.71V533.658C629.973 532.807 631.051 531.709 631.879 530.43C632.707 529.152 633.268 527.718 633.528 526.217C633.764 524.671 633.597 523.09 633.045 521.626C632.493 520.163 631.574 518.866 630.376 517.861C629.841 517.359 629.414 516.753 629.121 516.08C628.829 515.407 628.677 514.681 628.674 513.947V513.947Z" fill="#1D2366"/>
<path d="M697.97 499.095C696.069 505.892 697.105 509.719 698.406 511.773V511.815C700.075 514.351 701.236 517.186 701.824 520.165L701.938 520.808L688.526 540.376L681.249 543.237C681.249 543.237 669.546 539.238 671.683 538.093C672.219 537.814 673.056 536.326 674.014 534.273C676.873 528.084 680.82 516.666 680.82 516.666V516.573C681.234 511.858 681.892 507.158 682.621 502.479C683.93 494.058 681.527 473.389 681.527 473.389C681.527 473.389 680.67 448.256 678.811 442.54C677.972 439.633 677.414 436.653 677.145 433.64C676.759 430.063 676.673 427.115 676.673 427.115C676.673 427.115 684.38 416.384 698.506 427.974C699.636 428.898 700.63 429.977 701.459 431.179C711.217 445.072 703.361 475.679 703.361 475.679C703.361 475.679 701.395 486.811 697.97 499.095Z" fill="#F3CEA2"/>
<path opacity="0.1" d="M701.959 520.808L688.548 540.376L681.27 543.237C681.27 543.237 669.567 539.238 671.705 538.093C672.241 537.814 673.077 536.326 674.035 534.273C678.99 534.23 681.556 538.952 681.556 538.952L687.833 537.95C687.833 537.95 696.112 521.667 697.97 520.673C699.829 519.678 698.256 513.239 698.256 513.239V511.601C698.306 511.658 698.349 511.722 698.406 511.78V511.823C700.075 514.358 701.236 517.193 701.824 520.172L701.959 520.808Z" fill="black"/>
<path d="M681.985 539.374C681.985 539.374 678.41 532.806 671.561 535.232C671.561 535.232 667.708 543.101 663.855 544.375C660.001 545.648 661.288 549.941 669.996 548.374C678.703 546.807 691.829 545.512 691.829 545.512L692.401 537.507L701.251 526.224C701.251 526.224 706.527 521.438 698.678 512.016V513.654C698.678 513.654 700.251 520.093 698.392 521.087C696.533 522.082 688.283 538.372 688.283 538.372L681.985 539.374Z" fill="#1D2366"/>
<path opacity="0.1" d="M629.318 423.252C629.441 425.416 629.723 427.568 630.161 429.691C622.112 428.51 614.641 429.097 609.744 429.483V423.109L629.318 423.252Z" fill="black"/>
<path opacity="0.1" d="M702.252 432.96C702.252 432.96 690.814 433.518 677.174 433.633C676.787 430.055 676.702 427.108 676.702 427.108C676.702 427.108 684.408 416.376 698.535 427.966C699.664 428.891 700.658 429.97 701.487 431.172C701.709 431.781 701.964 432.379 702.252 432.96V432.96Z" fill="black"/>
<path d="M702.253 431.672C702.253 431.672 652.152 434.098 636.881 429.812C621.611 425.527 606.476 429.24 604.196 428.245C601.915 427.251 603.767 411.676 605.769 407.82C607.77 403.963 618.751 364.965 618.751 364.965L629.318 309.834L640.449 306.764L641.235 306.543L660.631 301.191L674.843 297.263C674.843 297.263 703.103 407.677 700.68 415.818C699.8 418.936 699.658 422.216 700.265 425.398C700.635 427.571 701.304 429.683 702.253 431.672V431.672Z" fill="#111EAD"/>
<path d="M592.486 272.13C592.486 272.13 582.477 282.862 590.055 288.843C597.633 294.824 602.616 289.415 602.616 289.415L592.486 272.13Z" fill="#C7DAF5"/>
<path opacity="0.1" d="M592.486 272.13C592.486 272.13 582.477 282.862 590.055 288.843C597.633 294.824 602.616 289.415 602.616 289.415L592.486 272.13Z" fill="black"/>
<path d="M673.349 201.574C673.349 201.574 672.177 202.69 670.411 204.336C667.894 206.689 664.17 210.131 660.867 213.014C656.291 216.999 652.517 219.925 653.868 217.428C655.219 214.931 654.962 210.581 654.29 206.511C654.24 206.239 654.197 205.967 654.147 205.702C653.59 202.712 652.852 199.759 651.938 196.859C651.938 196.859 659.33 187.301 663.419 183.531C664.942 182.1 666.007 181.513 666.071 182.508C666.143 183.846 667.144 186.8 668.388 189.934C668.423 190.034 668.459 190.127 668.502 190.227C669.331 192.374 670.268 194.577 671.09 196.48C672.348 199.399 673.349 201.574 673.349 201.574Z" fill="#EEC596"/>
<path opacity="0.1" d="M668.502 190.227C667.807 193.966 666.122 197.45 663.622 200.314C661.122 203.179 657.899 205.319 654.29 206.51C653.721 203.245 652.935 200.02 651.938 196.859C651.938 196.859 665.857 178.866 666.071 182.508C666.121 183.888 667.208 186.95 668.502 190.227Z" fill="black"/>
<path opacity="0.1" d="M652.902 211.318L654.704 208.778C654.704 208.778 655.898 216.062 660.287 212.849C664.677 209.637 664.891 237.024 664.891 237.024L660.18 307.516L626.136 305.477L627.101 271.415L630.955 254.244L640.484 229.283L646.154 221.034L652.902 211.318Z" fill="black"/>
<path d="M664.891 237.46L660.602 301.198L660.152 307.952L641.171 306.815L640.456 306.772L626.158 305.913L627.123 271.844L630.976 254.674L640.506 229.712L646.175 221.463L652.924 211.712L654.725 209.179C654.725 209.179 655.919 216.462 660.309 213.25L660.402 213.185C664.691 210.467 664.891 237.46 664.891 237.46Z" fill="#111EAD"/>
<path d="M631.455 248.707C631.455 248.707 629.747 252.284 626.315 251.705C622.884 251.125 622.891 264.582 622.891 264.582C622.891 264.582 620.61 266.729 619.037 264.869C617.465 263.008 613.318 269.297 613.318 269.297L587.338 270.442C587.338 270.442 598.898 275.729 596.632 291.726C596.632 291.726 635.881 289.293 637.167 285.58C638.454 281.867 631.455 248.707 631.455 248.707Z" fill="white"/>
<path opacity="0.03" d="M631.455 248.707C631.455 248.707 629.747 252.284 626.315 251.705C622.884 251.125 622.891 264.582 622.891 264.582C622.891 264.582 620.61 266.729 619.037 264.869C617.465 263.008 613.318 269.297 613.318 269.297L587.338 270.442C587.338 270.442 598.898 275.729 596.632 291.726C596.632 291.726 635.881 289.293 637.167 285.58C638.454 281.867 631.455 248.707 631.455 248.707Z" fill="black"/>
<path d="M555.954 278.848L562.803 284.7L619.18 296.555L612.189 289.415L555.954 278.848Z" fill="white"/>
<path d="M653.01 213.572C652.073 215.003 649.392 222.329 647.155 228.725C645.289 234.055 643.73 238.741 643.73 238.741C643.73 238.741 640.091 262.45 638.233 266.736C636.374 271.021 637.382 287.734 637.382 287.734L630.454 329.007C630.454 329.007 627.316 350.292 622.469 363.005C617.686 375.518 612.36 381.384 612.196 381.57C614.341 378.666 626.029 321.474 626.029 321.474L629.89 249.344C629.89 249.344 630.454 242.49 631.026 236.63C631.598 230.771 643.18 222.772 643.18 222.772L654.347 206.882C655.469 208.385 654.718 211.003 653.01 213.572Z" fill="white"/>
<path d="M623.891 306.271C623.891 306.271 607.448 305.555 599.484 295.983C591.52 286.41 617.893 292.162 617.893 292.162L624.749 293.736L623.891 306.271Z" fill="#FBD4BE"/>
<path opacity="0.1" d="M700.679 415.825C699.799 418.943 699.657 422.223 700.265 425.405C682.328 426.679 663.14 421.828 663.14 421.828C659.565 425.119 650.15 429.97 650.15 429.97L645.017 366.296C641.736 357.711 640.449 312.731 640.449 312.731C640.449 312.731 640.742 310.377 641.164 306.85C641.164 306.764 641.164 306.671 641.199 306.586C642.479 296.734 645.017 278.24 646.261 275.743C647.977 272.309 640.985 263.173 640.985 263.173L644.166 236.022L644.552 232.745C651.258 229.748 656.398 220.175 656.398 220.175L660.345 213.257C664.634 210.503 664.856 237.496 664.856 237.496L660.566 301.234L674.778 297.306C674.778 297.306 703.103 407.684 700.679 415.825Z" fill="black"/>
<path d="M719.088 420.225C699.536 429.941 663.998 420.941 663.998 420.941C660.423 424.232 651.008 429.082 651.008 429.082L645.868 365.409C642.593 356.823 641.307 311.844 641.307 311.844C641.307 311.844 645.439 278.283 647.155 274.856C647.655 273.854 647.412 272.366 646.819 270.764C643.901 263.136 642.828 254.926 643.687 246.804L645.06 235.135L645.439 231.865C652.152 228.861 657.292 219.288 657.292 219.288L660.867 213.021L667.444 201.474L670.561 196.008L671.09 196.487L675.129 200.15C675.129 200.15 676.845 201.581 679.418 203.727C685.016 208.449 694.689 216.763 699.679 221.849C704.068 226.328 705.455 243.749 705.856 256.863C706.12 265.498 705.963 272.266 705.963 272.266C701.538 279.556 713.112 338.086 713.112 338.086C715.807 349.397 719.088 420.225 719.088 420.225Z" fill="white"/>
<path d="M645.788 247.997L645.945 250.995L647.263 250.926L647.219 250.078L646.673 250.107L646.605 248.804L647.752 248.744L647.708 247.896L645.788 247.997Z" fill="#6ABF4B"/>
<path d="M652.258 247.658L650.964 247.726L651.008 248.574L651.529 248.547L651.597 249.849L650.474 249.908L650.518 250.756L652.414 250.657L652.258 247.658Z" fill="#385CAD"/>
<path d="M650.362 247.757L648.482 247.856L648.526 248.704L649.633 248.646L649.701 249.949L649.745 250.798L649.811 252.055L648.704 252.113L648.673 251.515L647.899 251.555L647.975 252.997L650.628 252.858L650.518 250.756L650.474 249.908L650.362 247.757Z" fill="#6ABF4B"/>
<path d="M648.594 250.006L648.526 248.704L648.482 247.856L648.418 246.634L649.524 246.576L649.553 247.133L650.327 247.092L650.253 245.687L647.6 245.826L647.708 247.896L647.752 248.744L647.865 250.896L649.745 250.798L649.7 249.949L648.594 250.006Z" fill="#385CAD"/>
<path d="M654.067 247.987L653.766 248.003C653.721 247.923 653.642 247.884 653.54 247.889C653.365 247.898 653.256 248.04 653.267 248.253C653.279 248.48 653.404 248.606 653.599 248.596C653.734 248.589 653.824 248.506 653.858 248.365L653.514 248.383L653.502 248.164L654.094 248.133L654.108 248.41C654.062 248.625 653.887 248.845 653.592 248.86C653.258 248.878 653.009 248.634 652.99 248.267C652.971 247.901 653.192 247.631 653.526 247.614C653.793 247.599 653.995 247.739 654.067 247.987Z" fill="#385CAD"/>
<path d="M654.914 247.794L654.503 247.816L654.516 248.064L654.88 248.045L654.892 248.275L654.528 248.294L654.542 248.562L654.953 248.541L654.966 248.78L654.282 248.815L654.218 247.591L654.902 247.555L654.914 247.794Z" fill="#385CAD"/>
<path d="M656.113 248.106C656.132 248.468 655.917 248.73 655.56 248.749L655.143 248.77L655.079 247.546L655.497 247.524C655.853 247.506 656.094 247.742 656.113 248.106ZM655.529 248.491C655.735 248.48 655.848 248.345 655.837 248.12C655.825 247.895 655.697 247.769 655.492 247.78L655.363 247.787L655.401 248.498L655.529 248.491Z" fill="#385CAD"/>
<path d="M656.931 247.689L656.519 247.71L656.532 247.958L656.897 247.939L656.909 248.169L656.544 248.188L656.558 248.457L656.97 248.435L656.982 248.674L656.298 248.71L656.234 247.486L656.918 247.45L656.931 247.689Z" fill="#385CAD"/>
<path d="M657.688 248.649C657.371 248.666 657.1 248.42 657.081 248.051C657.061 247.683 657.305 247.412 657.622 247.396C657.94 247.379 658.206 247.624 658.225 247.991C658.246 248.36 658.005 248.632 657.688 248.649ZM657.673 248.377C657.851 248.368 657.96 248.22 657.949 248.006C657.937 247.788 657.814 247.657 657.636 247.666C657.455 247.675 657.348 247.819 657.359 248.037C657.37 248.251 657.492 248.386 657.673 248.377Z" fill="#385CAD"/>
<path d="M659.345 247.323L659.409 248.547L659.137 248.561L658.643 247.83L658.683 248.585L658.411 248.599L658.347 247.375L658.619 247.361L659.113 248.096L659.073 247.337L659.345 247.323Z" fill="#385CAD"/>
<path d="M653.1 249.447L653.327 249.435L653.688 250.233L653.963 249.402L654.189 249.39L654.246 250.486L654.045 250.496L654.008 249.783L653.777 250.51L653.626 250.518L653.32 249.819L653.357 250.532L653.156 250.543L653.099 249.447L653.1 249.447Z" fill="#6ABF4B"/>
<path d="M654.976 249.526L654.596 249.546L654.611 249.821L654.948 249.804L654.957 249.978L654.62 249.996L654.635 250.287L655.015 250.267L655.024 250.446L654.444 250.476L654.386 249.378L654.967 249.348L654.976 249.526Z" fill="#6ABF4B"/>
<path d="M656.054 249.843C656.071 250.174 655.874 250.401 655.555 250.417L655.206 250.435L655.149 249.34L655.498 249.321C655.817 249.305 656.036 249.51 656.054 249.843ZM655.538 250.232C655.748 250.221 655.86 250.082 655.848 249.855C655.836 249.628 655.711 249.497 655.5 249.508L655.358 249.515L655.396 250.239L655.538 250.232Z" fill="#6ABF4B"/>
<path d="M656.174 249.286L656.375 249.276L656.432 250.371L656.232 250.382L656.174 249.286Z" fill="#6ABF4B"/>
<path d="M657.03 249.228C657.252 249.216 657.439 249.337 657.518 249.557L657.288 249.57C657.235 249.467 657.146 249.42 657.038 249.425C656.863 249.435 656.746 249.581 656.758 249.803C656.77 250.025 656.902 250.16 657.076 250.151C657.183 250.146 657.267 250.089 657.309 249.98L657.539 249.968C657.484 250.198 657.311 250.335 657.088 250.347C656.801 250.362 656.569 250.142 656.552 249.814C656.535 249.486 656.742 249.243 657.03 249.228Z" fill="#6ABF4B"/>
<path d="M658.332 250.063L657.934 250.084L657.878 250.296L657.668 250.307L657.97 249.19L658.203 249.178L658.621 250.257L658.409 250.268L658.332 250.063ZM658.1 249.439L657.979 249.905L658.268 249.889L658.1 249.439Z" fill="#6ABF4B"/>
<path d="M658.897 249.144L658.945 250.065L659.275 250.048L659.284 250.222L658.754 250.25L658.697 249.154L658.897 249.144Z" fill="#6ABF4B"/>
<path d="M660.153 249.064C660.375 249.053 660.562 249.173 660.641 249.394L660.411 249.406C660.358 249.304 660.269 249.256 660.162 249.262C659.987 249.271 659.87 249.418 659.882 249.64C659.893 249.861 660.025 249.997 660.2 249.988C660.307 249.982 660.391 249.926 660.432 249.817L660.662 249.804C660.607 250.034 660.434 250.172 660.211 250.184C659.924 250.199 659.692 249.979 659.675 249.651C659.658 249.323 659.864 249.079 660.153 249.064Z" fill="#6ABF4B"/>
<path d="M661.384 249.191L661.004 249.211L661.019 249.486L661.355 249.469L661.364 249.643L661.028 249.661L661.043 249.952L661.422 249.932L661.432 250.111L660.851 250.141L660.794 249.043L661.374 249.013L661.384 249.191Z" fill="#6ABF4B"/>
<path d="M662.411 248.959L662.469 250.057L662.268 250.067L661.775 249.339L661.814 250.091L661.613 250.101L661.556 249.004L661.757 248.993L662.25 249.723L662.21 248.969L662.411 248.959Z" fill="#6ABF4B"/>
<path d="M662.555 248.952L663.288 248.914L663.298 249.091L663.032 249.105L663.079 250.024L662.879 250.034L662.831 249.116L662.564 249.13L662.555 248.952V248.952Z" fill="#6ABF4B"/>
<path d="M664.024 249.053L663.644 249.073L663.659 249.348L663.995 249.331L664.004 249.505L663.668 249.523L663.683 249.814L664.063 249.794L664.072 249.973L663.491 250.003L663.434 248.905L664.015 248.875L664.024 249.053Z" fill="#6ABF4B"/>
<path d="M664.571 248.847C664.811 248.834 664.94 248.98 664.949 249.164C664.956 249.297 664.896 249.436 664.738 249.491L665 249.923L664.768 249.935L664.525 249.52L664.431 249.525L664.453 249.952L664.252 249.962L664.195 248.867L664.571 248.847ZM664.573 249.029L664.405 249.038L664.422 249.36L664.59 249.352C664.702 249.346 664.748 249.279 664.743 249.18C664.739 249.083 664.685 249.024 664.573 249.029Z" fill="#6ABF4B"/>
<path opacity="0.03" d="M681.556 219.145C681.556 219.145 668.137 244.708 669.695 254.423C671.254 264.139 675.686 275.135 673.549 277.704C672.814 278.677 671.865 279.466 670.775 280.011C669.685 280.556 668.483 280.841 667.265 280.844C665.12 280.987 659.401 284.987 659.401 285.416C659.401 285.845 654.118 285.845 649.392 287.848C644.667 289.852 637.689 290.989 637.689 290.989C637.689 290.989 624.106 290.56 622.84 291.848C621.575 293.135 620.274 300.841 622.983 306.986C625.693 313.132 628.703 317.718 630.976 318.555C633.249 319.392 647.676 314.556 659.379 313.411C671.082 312.266 683.786 302.987 683.786 302.987C683.786 302.987 697.777 297.979 700.229 289.558C702.681 281.138 697.234 234.856 697.234 234.856C697.234 234.856 693.116 213.286 681.556 219.145Z" fill="black"/>
<path opacity="0.03" d="M679.84 216.999C679.84 216.999 666.421 242.568 667.994 252.277C669.567 261.985 673.985 272.989 671.84 275.564C671.109 276.539 670.161 277.329 669.071 277.874C667.982 278.419 666.781 278.704 665.563 278.705C663.419 278.848 657.699 282.847 657.699 283.277C657.699 283.706 652.416 283.706 647.691 285.702C642.965 287.698 635.988 288.843 635.988 288.843C635.988 288.843 622.405 288.414 621.146 289.701C619.888 290.989 618.573 298.702 621.289 304.84C624.006 310.978 627.009 315.572 629.282 316.409C631.555 317.246 645.982 312.409 657.685 311.272C669.388 310.134 682.092 300.841 682.092 300.841C682.092 300.841 696.076 295.833 698.499 287.419C700.923 279.006 695.504 232.71 695.504 232.71C695.504 232.71 691.4 211.147 679.84 216.999Z" fill="black"/>
<path d="M681.134 217.857C681.134 217.857 667.715 243.427 669.288 253.135C670.861 262.844 675.279 273.847 673.141 276.416C672.41 277.392 671.461 278.185 670.37 278.731C669.28 279.278 668.077 279.563 666.857 279.564C664.713 279.707 658.994 283.706 658.994 284.128C658.994 284.55 653.717 284.557 648.985 286.561C644.252 288.564 637.282 289.701 637.282 289.701C637.282 289.701 623.699 289.272 622.433 290.56C621.168 291.848 619.867 299.56 622.576 305.699C625.286 311.837 628.295 316.43 630.569 317.267C632.842 318.104 647.269 313.268 658.972 312.123C670.675 310.978 683.379 301.699 683.379 301.699C683.379 301.699 697.37 296.691 699.822 288.27C702.274 279.85 696.862 233.568 696.862 233.568C696.862 233.568 692.687 212.034 681.134 217.857Z" fill="white"/>
<path opacity="0.1" d="M680.841 286.439C680.841 286.439 670.117 284.293 673.849 287.87C677.581 291.447 677.56 294.581 682.128 294.437C686.696 294.294 680.841 286.439 680.841 286.439Z" fill="black"/>
<path opacity="0.1" d="M698.964 363.406C698.964 363.406 694.117 366.689 703.389 374.259C712.662 381.828 698.964 363.406 698.964 363.406Z" fill="black"/>
<path opacity="0.1" d="M689.713 390.399C689.713 390.828 687.997 406.138 694.417 409.966C700.837 413.794 689.713 390.399 689.713 390.399Z" fill="black"/>
<path d="M587.782 270.406C582.606 270.585 571.425 272.166 577.223 282.991C582.349 292.57 590.963 286.167 595.81 281.309C594.628 276.78 591.754 272.878 587.782 270.406V270.406Z" fill="#FBD4BE"/>
<path d="M595.875 281.224L596.09 281.002L595.875 281.224Z" fill="#FFB0B1"/>
<path opacity="0.1" d="M679.418 204.164C673.928 207.92 669.324 211.089 668.423 211.747C665.964 213.572 661.274 224.282 658.25 229.748C655.841 234.148 648.013 235.278 645.06 235.557L645.439 232.288C652.152 229.283 657.292 219.71 657.292 219.71L670.561 196.43L675.129 200.587C675.129 200.587 676.845 202.017 679.418 204.164Z" fill="black"/>
<path d="M679.418 203.735C673.928 207.491 669.324 210.66 668.423 211.325C665.964 213.143 661.274 223.853 658.25 229.319C655.841 233.718 648.013 234.849 645.06 235.128L645.439 231.858C652.152 228.854 657.292 219.281 657.292 219.281L670.561 196.001L675.129 200.143C675.129 200.143 676.845 201.56 679.418 203.735Z" fill="#7F87E4"/>
<path d="M668.852 185.505C668.855 189.8 667.554 193.994 665.12 197.532C662.246 201.714 657.969 204.728 653.065 206.024C648.162 207.321 642.956 206.816 638.392 204.6C633.829 202.385 630.21 198.605 628.193 193.948C626.176 189.29 625.894 184.064 627.398 179.216C628.902 174.368 632.093 170.221 636.391 167.526C640.69 164.831 645.811 163.768 650.826 164.529C655.841 165.29 660.417 167.824 663.725 171.673C667.032 175.522 668.851 180.429 668.852 185.505V185.505Z" fill="#F3CEA2"/>
<path opacity="0.1" d="M705.856 256.87C702.952 255.083 700.588 252.541 699.014 249.515C697.82 247.154 697.027 244.429 694.989 242.754C693.152 241.252 690.7 240.887 688.412 240.215C680.891 237.99 674.586 231.121 674.35 223.28C674.235 219.589 675.386 215.904 674.864 212.248C674.568 210.179 673.746 208.221 672.477 206.561C671.847 205.767 671.156 205.023 670.411 204.336C669.41 203.391 668.359 202.475 667.444 201.474C666.867 200.854 666.364 200.17 665.942 199.435C665.602 198.834 665.327 198.198 665.12 197.539C663.69 193.16 664.992 187.966 663.419 183.538L663.333 183.295C662.74 181.721 661.531 180.147 659.851 180.025C658.171 179.903 656.734 181.299 655.133 181.921C651.78 183.223 648.163 181.005 645.367 178.744C642.572 176.484 639.419 173.901 635.866 174.402C633.514 174.738 631.656 176.341 629.489 177.17C629 177.36 628.496 177.506 627.981 177.607C629.814 173.032 633.182 169.238 637.507 166.878C641.831 164.518 646.842 163.739 651.678 164.675C656.514 165.61 660.873 168.202 664.008 172.004C667.142 175.807 668.855 180.583 668.852 185.512C668.855 187.001 668.699 188.485 668.387 189.941C668.423 190.041 668.459 190.134 668.502 190.234C669.331 192.381 670.268 194.584 671.09 196.487L675.129 200.15C675.129 200.15 676.845 201.581 679.418 203.727C685.016 208.449 694.689 216.763 699.679 221.849C704.068 226.342 705.441 243.756 705.856 256.87Z" fill="black"/>
<path d="M629.239 164.099C630.261 162.018 630.769 159.685 631.991 157.711C633.786 154.849 636.917 153.017 640.134 151.908C648.534 149.011 666.285 144.804 671.59 151.908C672.634 153.339 673.499 154.928 674.943 155.915C676.044 156.666 677.374 156.988 678.582 157.553C681.963 159.142 684.122 162.604 685.273 166.138C686.424 169.673 686.767 173.465 687.611 177.106C688.69 181.778 690.585 186.206 692.472 190.606C694.696 195.8 697.055 201.188 701.344 204.858C707.199 209.866 708.493 216.956 713.927 222.45C720.361 228.975 720.153 239.742 716.836 248.292C716.4 249.415 715.907 250.588 716.079 251.783C716.25 252.978 717.137 254.065 717.973 255.017L721.49 258.988C713.169 260.998 703.754 256.648 699.879 249.015C698.685 246.654 697.891 243.935 695.847 242.254C694.017 240.751 691.557 240.394 689.277 239.721C681.756 237.489 675.45 230.614 675.214 222.772C675.1 219.088 676.251 215.403 675.729 211.755C675.439 209.672 674.614 207.7 673.334 206.031C671.368 203.463 668.401 201.739 666.8 198.877C664.091 194.091 666.149 187.873 664.198 182.737C663.597 181.163 662.396 179.589 660.716 179.467C659.036 179.345 657.599 180.741 655.991 181.363C652.645 182.665 649.027 180.454 646.232 178.186C643.437 175.918 640.284 173.343 636.724 173.851C634.372 174.18 632.52 175.783 630.354 176.62C628.753 177.235 625.507 177.786 624.106 176.434C621.146 173.708 628.002 166.646 629.239 164.099Z" fill="#3F3D56"/>
<path opacity="0.1" d="M701.867 246.654C700.666 244.293 699.879 241.574 697.834 239.9C696.004 238.397 693.545 238.033 691.257 237.36C683.744 235.135 677.438 228.26 677.195 220.419C677.081 216.734 678.232 213.042 677.717 209.394C677.418 207.324 676.593 205.366 675.322 203.706C673.349 201.138 670.382 199.413 668.788 196.552C666.078 191.773 668.137 185.555 666.178 180.411C665.585 178.845 664.377 177.271 662.704 177.142C661.031 177.013 659.58 178.423 657.978 179.045C654.633 180.347 651.008 178.129 648.22 175.868C645.432 173.608 642.265 171.025 638.712 171.526C636.36 171.862 634.501 173.465 632.342 174.294C630.741 174.91 627.488 175.468 626.086 174.116C623.141 171.254 629.997 164.207 631.227 161.674C632.249 159.585 632.757 157.26 633.986 155.285C634.051 155.178 634.122 155.071 634.194 154.963C633.274 155.726 632.48 156.629 631.841 157.639C630.619 159.614 630.111 161.932 629.089 164.028C627.852 166.561 620.996 173.629 623.949 176.469C625.379 177.829 628.596 177.271 630.197 176.655C632.342 175.818 634.215 174.216 636.567 173.887C640.142 173.379 643.287 175.961 646.075 178.222C648.863 180.483 652.509 182.701 655.841 181.399C657.442 180.776 658.843 179.374 660.559 179.503C662.275 179.632 663.419 181.198 664.041 182.772C665.993 187.909 663.934 194.126 666.643 198.913C668.244 201.724 671.211 203.484 673.177 206.067C674.457 207.735 675.282 209.707 675.572 211.79C676.094 215.439 674.943 219.124 675.058 222.808C675.293 230.678 681.599 237.525 689.12 239.757C691.386 240.429 693.86 240.787 695.69 242.289C697.742 243.971 698.549 246.689 699.722 249.05C703.597 256.684 713.012 261.034 721.333 259.023L719.675 257.149C712.461 257.256 705.162 253.15 701.867 246.654Z" fill="black"/>
<path opacity="0.1" d="M652.581 214.001C651.644 215.432 648.963 222.758 646.726 229.154C644.631 228.338 642.729 223.137 642.729 223.137L653.896 207.24C655.04 208.814 654.289 211.426 652.581 214.001Z" fill="black"/>
<path d="M653.01 213.572C652.073 215.003 649.392 222.329 647.155 228.725C645.06 227.916 643.158 222.708 643.158 222.708L654.325 206.818C655.469 208.385 654.718 211.003 653.01 213.572Z" fill="#5B63BB"/>
<path d="M588.082 286.661L581.891 267.122C581.817 266.893 581.79 266.652 581.81 266.413C581.83 266.174 581.897 265.941 582.007 265.727C582.118 265.514 582.269 265.324 582.453 265.17C582.636 265.015 582.849 264.898 583.078 264.826V264.826C583.538 264.682 584.037 264.726 584.466 264.948C584.894 265.171 585.217 265.553 585.365 266.013L591.556 285.53L590.942 289.616L588.082 286.661Z" fill="#BE8B87"/>
<path opacity="0.1" d="M582.477 265.405C582.939 265.259 583.44 265.302 583.87 265.524C584.3 265.747 584.624 266.131 584.772 266.593L590.963 286.11L590.498 289.172L590.949 289.644L591.564 285.559L585.337 266.042C585.189 265.582 584.866 265.199 584.437 264.977C584.009 264.754 583.51 264.71 583.049 264.854V264.854C582.661 264.98 582.327 265.232 582.098 265.57C582.22 265.504 582.346 265.449 582.477 265.405V265.405Z" fill="white"/>
<path d="M588.082 286.661L591.557 285.559L591.049 288.907L590.942 289.644L589.927 288.585L588.082 286.661Z" fill="#EFC8C4"/>
<path d="M589.926 288.585C589.987 288.509 590.062 288.445 590.148 288.399C590.198 288.367 590.256 288.351 590.316 288.351C590.375 288.351 590.434 288.367 590.484 288.399C590.533 288.458 590.573 288.523 590.605 288.592C590.653 288.671 590.717 288.739 590.794 288.789C590.87 288.84 590.957 288.873 591.049 288.886L590.941 289.601L589.926 288.585Z" fill="#727A9C"/>
<path d="M581.855 274.062C581.855 274.062 594.273 273.99 591.349 279.277C588.425 284.564 583.857 285.201 583.857 285.201L581.855 274.062Z" fill="#FBD4BE"/>
</g>
<defs>
<linearGradient id="paint0_linear_1421_887" x1="254.742" y1="554.37" x2="254.742" y2="114.133" gradientUnits="userSpaceOnUse">
<stop stop-color="#808080" stop-opacity="0.25"/>
<stop offset="0.54" stop-color="#808080" stop-opacity="0.12"/>
<stop offset="1" stop-color="#808080" stop-opacity="0.1"/>
</linearGradient>
<linearGradient id="paint1_linear_1421_887" x1="638.719" y1="548.803" x2="638.719" y2="146.729" gradientUnits="userSpaceOnUse">
<stop stop-color="#808080" stop-opacity="0.25"/>
<stop offset="0.54" stop-color="#808080" stop-opacity="0.12"/>
<stop offset="1" stop-color="#808080" stop-opacity="0.1"/>
</linearGradient>
<clipPath id="clip0_1421_887">
<rect width="790" height="560" fill="white"/>
</clipPath>
</defs>
</svg>
