<?xml version="1.0" standalone="no"?>
<!DOCTYPE svg PUBLIC "-//W3C//DTD SVG 20010904//EN"
 "http://www.w3.org/TR/2001/REC-SVG-20010904/DTD/svg10.dtd">
<svg version="1.0" xmlns="http://www.w3.org/2000/svg"
 width="2000.000000pt" height="2000.000000pt" viewBox="0 0 2000.000000 2000.000000"
 preserveAspectRatio="xMidYMid meet">

<g transform="translate(0.000000,2000.000000) scale(0.100000,-0.100000)"
fill="#000000" stroke="none">
<path d="M10 17370 l0 -580 268 2 267 3 0 575 0 575 -267 3 -268 2 0 -580z"/>
<path d="M9175 17075 c-229 -37 -412 -94 -610 -190 -412 -200 -710 -510 -865
-901 -127 -319 -146 -758 -49 -1153 39 -159 93 -310 209 -586 211 -503 226
-641 104 -948 -38 -97 -174 -375 -204 -417 -63 -90 -265 -476 -295 -565 -28
-82 -37 -159 -25 -212 6 -26 52 -151 101 -278 50 -126 102 -259 116 -295 100
-254 128 -456 83 -595 -28 -87 -39 -320 -21 -444 12 -82 45 -191 75 -250 26
-49 85 -110 128 -132 113 -58 276 -15 408 108 205 190 292 497 230 813 -33
166 -22 309 41 554 53 204 201 585 268 691 71 112 92 244 90 560 -2 307 -2
310 -87 437 -125 185 -236 404 -323 635 -36 96 -43 107 -122 187 -217 218
-308 403 -308 626 -1 125 26 215 76 259 43 38 74 39 114 6 23 -20 31 -37 36
-73 14 -104 55 -330 68 -372 l13 -45 8 75 c20 203 95 469 170 603 47 84 120
163 188 205 84 50 161 62 407 62 141 0 249 5 319 16 193 28 450 115 604 204
l71 41 45 -53 c25 -29 113 -121 197 -203 170 -168 191 -200 233 -354 24 -90
26 -110 26 -342 1 -214 3 -242 14 -215 25 57 99 260 127 346 43 135 94 163
165 92 52 -52 74 -127 73 -252 -2 -224 -93 -408 -309 -627 -75 -76 -85 -90
-120 -180 -90 -234 -195 -444 -312 -623 -33 -51 -65 -115 -79 -160 -22 -72
-23 -85 -19 -345 4 -363 20 -426 140 -580 125 -159 172 -311 136 -435 -42
-146 -74 -469 -67 -678 8 -255 47 -364 169 -477 114 -106 285 -177 429 -178
112 -2 154 42 154 158 -1 92 -35 166 -114 251 -69 74 -96 135 -119 273 -13 77
-14 109 -5 182 17 128 49 188 138 256 96 74 137 115 206 207 72 94 107 162
144 276 24 74 28 105 32 235 4 169 3 175 -90 535 -76 297 -107 486 -107 659 0
164 11 213 84 371 157 338 279 724 321 1011 24 167 20 366 -9 481 -66 260
-214 513 -426 728 -180 182 -313 265 -505 316 -79 21 -125 27 -220 28 -66 0
-132 -2 -146 -6 -26 -8 -26 -6 -32 51 -4 32 -18 94 -31 137 -80 250 -275 412
-576 479 -106 23 -443 29 -565 10z"/>
<path d="M5007 15488 c-16 -12 -17 -63 -15 -698 l3 -685 410 0 410 0 3 684 c1
497 -1 688 -9 697 -16 20 -776 21 -802 2z"/>
<path d="M8966 15249 c-59 -14 -175 -79 -181 -101 -15 -44 37 -62 83 -29 98
68 263 84 386 38 73 -27 92 -26 101 4 9 27 -7 43 -68 70 -42 18 -73 23 -167
25 -63 2 -132 -1 -154 -7z"/>
<path d="M9989 15237 c-37 -12 -85 -35 -108 -50 -35 -23 -42 -33 -39 -55 4
-39 33 -39 109 1 120 63 258 69 377 16 54 -23 85 -12 80 29 -2 23 -13 31 -63
51 -49 20 -81 26 -175 28 -100 3 -124 0 -181 -20z"/>
<path d="M9045 14815 c-55 -54 -15 -175 56 -175 56 0 97 69 78 133 -20 69 -86
90 -134 42z"/>
<path d="M10099 14814 c-19 -20 -24 -36 -24 -76 0 -42 4 -53 28 -74 15 -13 39
-24 52 -24 13 0 37 11 52 24 24 21 28 32 28 74 0 63 -31 102 -80 102 -21 0
-40 -9 -56 -26z"/>
<path d="M16047 10163 c-4 -3 -7 -141 -7 -305 l0 -298 415 0 415 0 -2 303 -3
302 -406 3 c-223 1 -408 -1 -412 -5z"/>
<path d="M135 10148 c-3 -7 -4 -321 -3 -698 l3 -685 399 -3 c286 -1 403 1 412
9 19 16 21 1358 2 1377 -18 18 -807 17 -813 0z"/>
<path d="M19251 9926 c-8 -9 -10 -169 -9 -577 l3 -564 378 -3 377 -2 0 580 0
580 -369 0 c-299 0 -371 -3 -380 -14z"/>
<path d="M7860 9331 c-6 -13 -10 -158 -10 -404 0 -359 1 -385 18 -400 17 -16
80 -17 705 -17 610 0 687 2 701 16 14 13 16 64 16 408 0 291 -3 395 -12 404
-9 9 -180 12 -710 12 -679 0 -698 -1 -708 -19z m1290 -251 l0 -90 -565 0 -565
0 0 90 0 90 565 0 565 0 0 -90z m0 -295 l0 -75 -565 0 -565 0 0 75 0 75 565 0
565 0 0 -75z"/>
<path d="M16418 8295 c-15 -9 -32 -24 -38 -35 -6 -10 -10 -92 -10 -189 0 -165
1 -171 24 -198 l24 -28 578 -3 c423 -2 586 1 607 9 49 21 57 51 57 228 l0 161
-29 32 -29 33 -579 2 c-496 2 -582 0 -605 -12z"/>
<path d="M6894 7428 c-4 -13 -19 -50 -35 -83 -30 -64 -28 -70 20 -98 l31 -18
0 110 c0 61 -2 111 -4 111 -3 0 -8 -10 -12 -22z"/>
<path d="M9280 7095 l0 -75 763 2 762 3 3 73 3 72 -766 0 -765 0 0 -75z"/>
<path d="M16230 5965 l0 -1085 785 0 785 0 0 1085 0 1085 -785 0 -785 0 0
-1085z m1430 885 l0 -80 -647 0 -648 0 3 80 4 80 644 0 644 0 0 -80z m-465
-447 c242 -126 294 -443 105 -633 -155 -154 -407 -154 -560 0 -150 149 -154
398 -10 548 91 94 166 123 305 119 89 -3 107 -7 160 -34z m465 -943 l0 -80
-644 0 -645 0 -3 23 c-2 12 -1 48 0 80 l4 57 644 0 644 0 0 -80z m0 -290 l0
-80 -647 0 -648 0 3 80 4 80 644 0 644 0 0 -80z"/>
<path d="M9807 6859 c7 -7 15 -10 18 -7 3 3 -2 9 -12 12 -14 6 -15 5 -6 -5z"/>
<path d="M10240 6855 l-35 -13 44 1 c23 1 38 3 32 5 -6 2 -9 8 -5 13 3 5 4 8
2 8 -2 -1 -19 -7 -38 -14z"/>
<path d="M10300 6861 c0 -10 19 -25 25 -20 1 2 -3 10 -11 17 -8 7 -14 8 -14 3z"/>
<path d="M9674 6853 c3 -4 18 -8 32 -9 14 -2 24 0 20 3 -3 3 -17 7 -32 9 -14
1 -23 0 -20 -3z"/>
<path d="M9766 6853 c-13 -13 -5 -21 17 -16 18 4 19 3 7 -6 -17 -12 -1 -15 18
-3 9 6 6 12 -12 20 -13 6 -27 8 -30 5z"/>
<path d="M10340 6856 c0 -3 9 -10 20 -16 15 -8 25 -8 38 0 16 11 16 11 -1 6
-10 -3 -27 -1 -38 4 -10 6 -19 8 -19 6z"/>
<path d="M10427 6834 c5 -13 2 -16 -9 -12 -8 4 -15 1 -15 -7 0 -20 33 -14 34
7 1 10 -2 20 -8 23 -5 4 -6 -2 -2 -11z"/>
<path d="M13978 6533 c46 -175 88 -335 93 -355 l10 -38 145 0 c81 0 154 5 165
10 18 10 19 25 19 340 0 180 -3 335 -6 344 -5 14 -38 16 -258 16 l-252 0 84
-317z"/>
<path d="M9627 6821 c-10 -14 -10 -14 5 -3 10 8 19 9 22 3 3 -5 1 -12 -4 -14
-6 -3 -5 -4 1 -3 17 3 19 33 3 33 -8 0 -20 -7 -27 -16z"/>
<path d="M10180 6820 c-6 -11 -8 -20 -6 -20 3 0 10 9 16 20 6 11 8 20 6 20 -3
0 -10 -9 -16 -20z"/>
<path d="M9868 6818 c9 -9 15 -9 24 0 9 9 7 12 -12 12 -19 0 -21 -3 -12 -12z"/>
<path d="M10320 6820 c-8 -5 -10 -10 -5 -10 6 0 17 5 25 10 8 5 11 10 5 10 -5
0 -17 -5 -25 -10z"/>
<path d="M9918 6813 c6 -2 10 -8 8 -12 -3 -4 1 -8 9 -8 11 0 12 4 4 14 -6 7
-17 13 -23 12 -7 0 -6 -2 2 -6z"/>
<path d="M10260 6809 c0 -5 5 -7 10 -4 6 3 10 8 10 11 0 2 -4 4 -10 4 -5 0
-10 -5 -10 -11z"/>
<path d="M10136 6801 c-4 -5 -2 -12 3 -15 5 -4 12 -2 15 3 4 5 2 12 -3 15 -5
4 -12 2 -15 -3z"/>
<path d="M10483 6780 c1 -12 6 -16 17 -12 11 4 10 -1 -5 -19 l-20 -24 23 19
c12 11 22 20 22 20 0 1 -9 9 -19 18 -18 16 -20 15 -18 -2z"/>
<path d="M9576 6775 c-9 -26 -7 -32 5 -12 6 10 9 21 6 23 -2 3 -7 -2 -11 -11z"/>
<path d="M9930 6773 c0 -5 9 -19 20 -33 11 -14 20 -20 19 -15 -3 24 2 27 16 9
15 -18 15 -18 8 0 -5 14 -3 17 7 11 9 -5 11 -4 6 4 -4 6 -12 9 -17 6 -5 -4 -9
-1 -9 4 0 6 -5 11 -11 11 -5 0 -7 -5 -3 -11 4 -7 1 -10 -7 -7 -8 3 -13 11 -11
17 1 6 -2 11 -8 11 -5 0 -10 -3 -10 -7z"/>
<path d="M10101 6773 c4 -23 -3 -32 -18 -27 -14 5 -15 4 -4 -4 11 -8 10 -11
-5 -15 -12 -3 -9 -4 8 -4 15 1 24 6 21 11 -4 5 1 7 11 3 9 -4 15 -3 12 2 -3 5
1 12 10 15 8 3 12 2 9 -3 -3 -5 -1 -12 5 -16 5 -3 10 1 10 9 0 8 -9 20 -19 26
-23 12 -41 13 -40 3z"/>
<path d="M9591 6744 c0 -11 3 -14 6 -6 3 7 2 16 -1 19 -3 4 -6 -2 -5 -13z"/>
<path d="M10495 6720 c-3 -5 1 -10 10 -10 9 0 13 5 10 10 -3 6 -8 10 -10 10
-2 0 -7 -4 -10 -10z"/>
<path d="M10540 6700 c6 -11 13 -20 16 -20 2 0 0 9 -6 20 -6 11 -13 20 -16 20
-2 0 0 -9 6 -20z"/>
<path d="M9576 6673 c-6 -14 -5 -15 5 -6 7 7 10 15 7 18 -3 3 -9 -2 -12 -12z"/>
<path d="M10495 6680 c3 -5 8 -10 11 -10 2 0 4 5 4 10 0 6 -5 10 -11 10 -5 0
-7 -4 -4 -10z"/>
<path d="M9527 6655 c3 -8 9 -12 14 -9 12 7 11 11 -5 17 -10 4 -13 1 -9 -8z"/>
<path d="M9586 6513 c-6 -14 -5 -15 5 -6 7 7 10 15 7 18 -3 3 -9 -2 -12 -12z"/>
<path d="M9520 6514 c0 -11 42 -54 53 -54 3 0 4 7 0 15 -3 9 -8 14 -10 11 -3
-3 -14 5 -24 17 -10 12 -18 17 -19 11z"/>
<path d="M10495 6469 c-4 -6 -5 -12 -2 -15 2 -3 7 2 10 11 7 17 1 20 -8 4z"/>
<path d="M10521 6447 c0 -16 -5 -26 -10 -23 -5 3 -8 -2 -7 -12 0 -9 -5 -16
-11 -14 -7 1 -13 -2 -13 -8 0 -5 5 -10 12 -10 9 0 9 -3 0 -12 -7 -7 -12 -17
-12 -22 1 -10 24 22 25 34 0 3 6 15 13 28 8 13 11 33 9 45 -3 18 -5 17 -6 -6z"/>
<path d="M9554 6438 c2 -7 7 -21 11 -31 6 -15 10 -16 16 -5 5 7 9 18 9 23 0 6
-5 3 -10 -5 -8 -12 -10 -11 -10 8 0 12 -4 22 -9 22 -5 0 -8 -6 -7 -12z"/>
<path d="M9597 6389 c7 -7 15 -10 18 -7 3 3 -2 9 -12 12 -14 6 -15 5 -6 -5z"/>
<path d="M9589 6364 c5 -11 18 -27 27 -35 16 -12 17 -12 11 3 -3 9 -3 19 1 21
4 2 1 2 -7 0 -7 -2 -20 5 -28 14 -13 17 -13 16 -4 -3z"/>
<path d="M9650 6315 c0 -2 6 -8 13 -14 10 -8 14 -7 14 2 0 8 -6 14 -14 14 -7
0 -13 -1 -13 -2z"/>
<path d="M10404 6309 c-3 -6 0 -17 8 -25 12 -12 17 -11 39 13 13 15 16 21 7
14 -15 -11 -18 -11 -18 0 0 8 -6 5 -15 -7 -13 -16 -14 -16 -9 -1 7 19 -1 23
-12 6z"/>
<path d="M10340 6230 c-9 -6 -10 -10 -3 -10 6 0 15 5 18 10 8 12 4 12 -15 0z"/>
<path d="M10374 6232 c3 -5 0 -13 -6 -15 -9 -4 -10 -6 -1 -6 17 -1 25 16 12
25 -7 4 -9 3 -5 -4z"/>
<path d="M9740 6219 c0 -5 5 -7 10 -4 6 3 10 8 10 11 0 2 -4 4 -10 4 -5 0 -10
-5 -10 -11z"/>
<path d="M10323 6193 c0 -9 4 -10 14 -2 7 6 13 12 13 14 0 1 -6 2 -13 2 -8 0
-14 -6 -14 -14z"/>
<path d="M9780 6161 c0 -13 39 -35 48 -27 3 3 0 6 -6 6 -6 0 -18 7 -26 16 -9
8 -16 11 -16 5z"/>
<path d="M9865 6150 c-3 -5 -1 -10 4 -10 6 0 11 5 11 10 0 6 -2 10 -4 10 -3 0
-8 -4 -11 -10z"/>
<path d="M10245 6140 c26 -11 35 -12 35 -2 0 4 -12 8 -27 9 -24 1 -25 1 -8 -7z"/>
<path d="M9880 6125 c-7 -8 -17 -12 -24 -8 -6 3 -4 -2 5 -11 9 -10 22 -14 33
-10 14 5 15 9 4 15 -11 7 -10 11 2 19 8 5 10 10 4 10 -6 0 -17 -7 -24 -15z"/>
<path d="M10190 6131 c0 -6 5 -13 12 -17 7 -4 8 -3 4 4 -4 7 -3 12 2 12 17 0
22 -13 10 -29 -8 -11 -6 -10 8 2 16 15 17 19 4 27 -19 12 -40 13 -40 1z"/>
<path d="M10181 6103 c7 -12 15 -20 18 -17 3 2 -3 12 -13 22 -17 16 -18 16 -5
-5z"/>
<path d="M10066 6065 c-11 -8 -14 -15 -7 -15 7 0 10 -4 7 -9 -7 -11 20 -8 31
3 4 4 4 7 -2 6 -22 -5 -27 1 -15 15 16 19 11 19 -14 0z"/>
<path d="M9923 6065 c1 -1 12 -7 24 -13 16 -9 22 -9 26 2 4 9 -4 13 -24 13
-16 0 -28 -1 -26 -2z"/>
<path d="M9989 6042 c-11 -14 -11 -15 1 -5 9 9 19 9 32 2 11 -6 22 -9 24 -6 2
2 -7 9 -20 15 -20 9 -27 8 -37 -6z"/>
<path d="M9280 5825 l0 -45 765 0 765 0 0 45 0 45 -765 0 -765 0 0 -45z"/>
<path d="M9280 5676 l0 -25 48 21 c63 28 63 28 4 28 -48 0 -52 -2 -52 -24z"/>
<path d="M10115 5688 c218 -24 301 -39 350 -62 47 -23 59 -25 195 -23 l145 2
3 48 3 47 -388 -1 c-285 -1 -367 -4 -308 -11z"/>
<path d="M11080 2736 l0 -695 49 -58 c27 -32 108 -119 180 -193 l130 -135 1
697 0 698 -176 190 c-97 104 -178 190 -180 190 -2 0 -4 -313 -4 -694z"/>
<path d="M19090 3356 c0 -3 36 -102 80 -220 68 -184 78 -220 69 -243 -5 -14
-17 -32 -27 -39 -14 -11 -422 -13 -2182 -14 l-2165 0 235 -235 235 -235 2332
0 2333 0 0 423 0 423 -73 72 -72 72 -383 0 c-210 0 -382 -2 -382 -4z"/>
<path d="M3501 2684 c-14 -6 -88 -50 -163 -98 l-138 -86 -1595 0 -1595 0 0
-373 0 -373 34 -32 34 -32 2335 0 2335 0 241 241 241 241 0 259 0 259 -812 1
c-447 0 -831 1 -852 2 -21 1 -51 -3 -65 -9z"/>
<path d="M7316 1863 l-138 -143 -974 0 c-875 0 -974 2 -974 16 0 8 -5 12 -11
8 -7 -4 50 -68 142 -160 l154 -154 1280 0 1280 0 -284 284 c-205 205 -292 285
-311 288 -23 4 -44 -14 -164 -139z"/>
<path d="M14053 1910 c-22 -9 -22 -14 -21 -132 l1 -123 -1288 -5 -1287 -5 193
-193 c139 -140 190 -198 183 -207 -39 -52 -48 -72 -51 -113 -5 -58 18 -107 66
-139 45 -30 132 -32 179 -3 l33 20 -23 29 c-21 26 -25 27 -50 15 -39 -20 -75
-17 -100 9 l-23 22 100 3 c105 3 119 9 108 49 -4 17 -1 23 11 23 13 0 16 -21
18 -152 l3 -153 40 0 40 0 5 67 c4 57 7 66 20 58 8 -5 36 -10 62 -10 79 0 138
69 138 163 0 17 5 27 15 27 12 0 15 -17 15 -95 l0 -95 40 0 40 0 0 95 c0 88 2
95 20 95 18 0 20 -8 22 -92 l3 -93 40 0 40 0 5 53 5 53 52 -55 c48 -52 55 -56
97 -56 25 0 46 3 46 6 0 3 -30 40 -67 81 -64 71 -66 76 -48 89 16 12 184 14
1062 11 574 -1 1043 0 1043 3 0 7 -754 760 -760 759 -3 0 -15 -4 -27 -9z
m-2118 -740 l39 -20 -52 0 c-53 0 -62 6 -40 28 14 14 7 16 53 -8z m383 -47 c8
-85 -118 -103 -134 -19 -9 51 0 58 69 54 62 -3 62 -3 65 -35z"/>
<path d="M10567 1532 c-11 -12 -13 -22 -7 -32 15 -23 12 -40 -7 -40 -32 -1
-63 -24 -54 -39 8 -12 17 -12 53 -3 23 7 66 13 93 14 37 2 50 7 50 18 0 10
-13 16 -42 18 -41 3 -42 4 -37 32 8 38 -25 59 -49 32z"/>
<path d="M10783 1409 c-8 -8 0 -22 31 -53 23 -22 48 -51 56 -63 10 -16 19 -20
28 -14 12 7 11 14 -2 39 -20 39 -20 39 4 45 24 6 26 30 4 48 -14 11 -19 10
-35 -10 l-20 -24 -22 22 c-27 24 -29 25 -44 10z"/>
<path d="M11174 1413 c-36 -7 -66 -48 -71 -97 -5 -39 -9 -45 -32 -48 -23 -3
-26 -8 -26 -38 0 -31 3 -35 27 -38 l27 -3 3 -107 3 -107 40 0 40 0 3 108 3
107 39 0 c40 0 40 0 40 40 l0 40 -40 0 c-37 0 -40 2 -40 29 0 32 19 44 56 35
22 -6 24 -3 24 34 0 36 -3 40 -31 46 -17 3 -34 5 -38 5 -3 -1 -16 -4 -27 -6z"/>
<path d="M10546 1395 c-87 -31 -155 -119 -163 -213 -6 -65 7 -79 94 -94 122
-20 309 14 382 71 23 18 23 18 7 74 -38 132 -189 209 -320 162z m27 -116 c29
-16 37 -28 37 -61 0 -64 -80 -91 -120 -41 -25 32 -20 69 12 96 24 20 41 21 71
6z m195 -11 c7 -7 12 -21 12 -33 0 -29 -19 -45 -52 -45 -36 0 -56 36 -39 69
13 23 59 29 79 9z"/>
<path d="M7380 1310 c0 -39 -3 -70 -7 -68 -61 31 -82 37 -115 28 -19 -6 -47
-24 -63 -40 -25 -26 -30 -40 -33 -98 -3 -58 0 -72 20 -102 13 -19 35 -41 48
-48 32 -17 105 -9 130 13 18 16 20 17 20 2 0 -11 8 -17 25 -17 l25 0 -2 198
c-3 196 -3 197 -25 200 -22 3 -23 0 -23 -68z m-32 -100 c31 -19 32 -22 32 -84
0 -77 -21 -106 -78 -106 -46 0 -68 14 -81 51 -28 81 9 156 79 158 8 1 30 -8
48 -19z"/>
<path d="M9337 1374 c-4 -4 -7 -36 -7 -71 l0 -63 -22 14 c-46 30 -107 25 -146
-12 -61 -57 -64 -168 -8 -229 38 -42 96 -54 144 -29 18 9 32 12 32 6 0 -5 14
-10 30 -10 l30 0 -2 198 c-3 190 -4 197 -23 200 -12 2 -24 0 -28 -4z m-42
-158 c19 -8 35 -21 36 -28 5 -79 -4 -134 -23 -150 -38 -33 -100 -22 -123 23
-31 59 -12 139 39 159 29 12 32 12 71 -4z"/>
<path d="M9597 1374 c-4 -4 -7 -94 -7 -201 l0 -193 25 0 c17 0 25 6 25 17 0
14 2 14 21 -3 32 -29 119 -26 153 5 34 32 49 82 44 147 -8 98 -90 152 -174
114 l-43 -18 -3 66 c-2 51 -7 68 -18 70 -9 1 -19 0 -23 -4z m157 -154 c58 -22
72 -126 25 -176 -27 -29 -77 -32 -114 -8 -23 15 -25 23 -25 85 0 67 1 70 33
89 36 23 46 24 81 10z"/>
<path d="M10388 1352 c-23 -28 -27 -29 -41 -15 -8 9 -23 13 -31 10 -23 -9 -20
-48 4 -54 17 -5 19 -11 13 -45 -5 -35 -3 -40 12 -37 9 2 23 20 29 40 7 20 23
50 35 68 15 21 19 36 13 47 -7 13 -12 11 -34 -14z"/>
<path d="M8070 1356 c-27 -33 18 -72 48 -42 13 13 14 20 6 34 -15 23 -38 26
-54 8z"/>
<path d="M7584 1269 c-35 -10 -82 -53 -95 -87 -15 -40 -10 -105 11 -140 40
-65 120 -89 194 -58 41 17 52 32 36 51 -10 12 -15 12 -36 -2 -14 -9 -43 -16
-66 -16 -33 0 -47 6 -65 27 -43 51 -35 56 87 56 l110 0 0 33 c0 93 -87 160
-176 136z m79 -50 c23 -10 47 -46 47 -69 0 -6 -39 -10 -89 -10 l-90 0 11 30
c18 54 68 73 121 49z"/>
<path d="M7863 1269 c-35 -10 -73 -52 -73 -80 0 -33 43 -69 99 -84 86 -22 106
-62 44 -86 -23 -9 -38 -7 -77 10 -39 16 -52 18 -58 8 -12 -19 -5 -31 33 -49
62 -32 153 -16 179 31 31 59 -5 108 -100 134 -52 15 -60 20 -60 41 0 39 56 49
112 20 25 -13 32 -14 39 -2 14 21 11 27 -18 42 -41 20 -84 26 -120 15z"/>
<path d="M8266 1269 c-114 -33 -132 -224 -25 -281 43 -23 66 -23 112 1 l37 19
0 -23 c0 -12 -9 -34 -21 -49 -17 -21 -29 -26 -68 -26 -27 0 -56 7 -70 16 -19
14 -25 14 -32 3 -13 -21 -6 -32 32 -52 40 -22 123 -18 162 7 41 27 47 57 47
226 l0 160 -25 0 c-16 0 -25 -6 -25 -16 0 -15 -2 -15 -22 -2 -32 21 -68 27
-102 17z m106 -66 c14 -12 18 -31 18 -79 0 -56 -3 -65 -26 -83 -80 -63 -172
32 -130 133 8 20 25 41 38 46 29 12 77 4 100 -17z"/>
<path d="M8629 1270 c-14 -4 -35 -13 -47 -19 -18 -10 -22 -9 -22 4 0 9 -9 15
-25 15 l-25 0 0 -145 0 -145 25 0 25 0 0 103 c0 115 7 131 67 143 24 5 36 1
52 -15 19 -19 21 -33 21 -126 l0 -105 25 0 25 0 0 119 c0 110 -2 122 -22 144
-26 29 -61 38 -99 27z"/>
<path d="M8904 1269 c-35 -10 -82 -53 -95 -87 -15 -40 -10 -105 11 -140 40
-65 120 -89 194 -58 41 17 52 32 36 51 -10 12 -15 12 -36 -2 -14 -9 -43 -16
-66 -16 -33 0 -47 6 -65 27 -43 51 -35 56 87 56 l110 0 0 33 c0 93 -87 160
-176 136z m79 -50 c23 -10 47 -46 47 -69 0 -6 -39 -10 -89 -10 l-90 0 11 30
c18 54 68 73 121 49z"/>
<path d="M11408 1266 c-16 -8 -28 -10 -28 -5 0 6 -19 9 -42 7 l-43 -3 0 -145
0 -145 40 0 40 0 5 95 c3 52 9 101 13 108 5 6 21 12 37 12 22 0 33 8 50 36 12
19 20 37 18 39 -13 14 -66 14 -90 1z"/>
<path d="M11576 1270 c-60 -18 -98 -77 -98 -150 0 -94 56 -150 150 -150 57 0
122 24 122 44 0 7 -10 22 -22 34 -21 18 -26 19 -48 7 -35 -20 -74 -18 -93 3
-10 10 -17 22 -17 25 0 4 45 7 100 7 l100 0 0 33 c-1 59 -34 115 -82 137 -47
21 -67 23 -112 10z m88 -86 c27 -26 18 -34 -39 -34 -38 0 -55 4 -55 13 0 36
65 51 94 21z"/>
<path d="M8070 1125 l0 -145 25 0 25 0 0 145 0 145 -25 0 -25 0 0 -145z"/>
<path d="M9874 1253 c3 -10 30 -76 60 -148 55 -130 55 -130 37 -160 -11 -19
-26 -31 -44 -33 -21 -3 -27 -9 -27 -28 0 -20 5 -24 30 -24 53 0 82 41 159 227
39 95 71 175 71 178 0 4 -12 5 -27 3 -25 -3 -32 -14 -71 -107 -23 -58 -44
-106 -46 -108 -2 -2 -23 45 -47 104 -40 99 -46 108 -72 111 -24 3 -28 0 -23
-15z"/>
<path d="M10800 1104 c-96 -40 -253 -56 -345 -34 -22 5 -41 7 -44 5 -11 -12
55 -76 101 -99 103 -52 230 -28 303 56 32 38 62 99 47 97 -4 -1 -32 -12 -62
-25z"/>
</g>
</svg>
